<svg width="24" height="24" viewBox="0 0 24 24" fill="none" xmlns="http://www.w3.org/2000/svg">
<path d="M0.624023 8.45193V7.47993H2.67602V15.9999H1.60802V8.45193H0.624023Z" fill="#EFEFEF"/>
<path d="M8.48515 15.0999C8.86915 14.7639 9.15715 14.5159 9.34915 14.3559C10.1571 13.6599 10.7931 13.0879 11.2571 12.6399C11.7291 12.1919 12.1211 11.7239 12.4331 11.2359C12.7451 10.7399 12.9011 10.2559 12.9011 9.78393C12.9011 9.27993 12.7691 8.87593 12.5051 8.57193C12.2491 8.26793 11.8371 8.11593 11.2691 8.11593C10.7251 8.11593 10.3051 8.28793 10.0091 8.63193C9.71315 8.96793 9.55315 9.41593 9.52915 9.97593H8.48515C8.51715 9.07993 8.78515 8.39193 9.28915 7.91193C9.80115 7.42393 10.4571 7.17993 11.2571 7.17993C12.0811 7.17993 12.7371 7.41193 13.2251 7.87593C13.7211 8.33193 13.9691 8.95593 13.9691 9.74793C13.9691 10.3239 13.8091 10.8879 13.4891 11.4399C13.1771 11.9839 12.8011 12.4799 12.3611 12.9279C11.9291 13.3679 11.3891 13.8719 10.7411 14.4399C10.3091 14.8159 10.1131 14.9879 10.1531 14.9559H14.2331V15.8799H8.48515V15.0999Z" fill="#EFEFEF"/>
<path d="M19.3344 11.8479L21.8904 15.9999H20.6904L18.6624 12.7239L16.7544 15.9999H15.5424L18.1104 11.8359L15.5424 7.68393H16.7544L18.7824 10.9719L20.6904 7.68393H21.9024L19.3344 11.8479Z" fill="#EFEFEF"/>
<path fill-rule="evenodd" clip-rule="evenodd" d="M7.52081 7.48684L4.94563 16.4933L3.79187 16.1635L6.36704 7.15695L7.52081 7.48684Z" fill="#EFEFEF"/>
</svg>
