<svg width="18" height="18" viewBox="0 0 18 18" fill="none" xmlns="http://www.w3.org/2000/svg">
<g clip-path="url(#clip0_905_3030)">
<path d="M0.38 5.6V4.77H2.26V12H1.34V5.6H0.38ZM6.67914 11.27C7.52581 10.59 8.18914 10.0333 8.66914 9.6C9.14914 9.16 9.55247 8.70333 9.87914 8.23C10.2125 7.75 10.3791 7.28 10.3791 6.82C10.3791 6.38667 10.2725 6.04667 10.0591 5.8C9.85247 5.54667 9.51581 5.42 9.04914 5.42C8.59581 5.42 8.24247 5.56333 7.98914 5.85C7.74247 6.13 7.60914 6.50667 7.58914 6.98H6.70914C6.73581 6.23333 6.96247 5.65667 7.38914 5.25C7.81581 4.84333 8.36581 4.64 9.03914 4.64C9.72581 4.64 10.2691 4.83 10.6691 5.21C11.0758 5.59 11.2791 6.11333 11.2791 6.78C11.2791 7.33333 11.1125 7.87333 10.7791 8.4C10.4525 8.92 10.0791 9.38 9.65914 9.78C9.23914 10.1733 8.70247 10.6333 8.04914 11.16H11.4891V11.92H6.67914V11.27ZM15.6911 8.52L17.8311 12H16.8011L15.1311 9.28L13.5411 12H12.5311L14.6611 8.52L12.5211 5.03H13.5411L15.2211 7.76L16.8211 5.03H17.8411L15.6911 8.52Z" fill="#EFEFEF"/>
<path d="M5.64918 5.08236L3.77811 11.6263" stroke="#EFEFEF" stroke-linecap="square"/>
</g>
<defs>
<clipPath id="clip0_905_3030">
<rect width="18" height="18" fill="white"/>
</clipPath>
</defs>
</svg>
