<svg width="24" height="24" viewBox="0 0 24 24" fill="none" xmlns="http://www.w3.org/2000/svg">
<path d="M0.624023 8.45199V7.47999H2.67602V16H1.60802V8.45199H0.624023Z" fill="#EFEFEF"/>
<path d="M8.35315 14.056V13.288L12.4811 7.35999H13.8731V13.12H15.0371V14.056H13.8731V16H12.8171V14.056H8.35315ZM12.8531 8.36799L9.62515 13.12H12.8531V8.36799Z" fill="#EFEFEF"/>
<path d="M19.9906 11.848L22.5466 16H21.3466L19.3186 12.724L17.4106 16H16.1986L18.7666 11.836L16.1986 7.68399H17.4106L19.4386 10.972L21.3466 7.68399H22.5586L19.9906 11.848Z" fill="#EFEFEF"/>
<path fill-rule="evenodd" clip-rule="evenodd" d="M7.52081 7.48684L4.94563 16.4933L3.79187 16.1635L6.36704 7.15695L7.52081 7.48684Z" fill="#EFEFEF"/>
</svg>
