<svg width="24" height="24" viewBox="0 0 24 24" fill="none" xmlns="http://www.w3.org/2000/svg">
<path d="M0.624023 8.45195V7.47995H2.67602V16H1.60802V8.45195H0.624023Z" fill="#EFEFEF"/>
<path d="M8.79715 9.32795C8.79715 8.88795 8.90515 8.49195 9.12115 8.13995C9.33715 7.77995 9.65715 7.49595 10.0811 7.28795C10.5051 7.07995 11.0171 6.97595 11.6171 6.97595C12.2251 6.97595 12.7411 7.07995 13.1651 7.28795C13.5891 7.49595 13.9051 7.77995 14.1131 8.13995C14.3291 8.49995 14.4372 8.89995 14.4372 9.33995C14.4372 9.80395 14.3172 10.212 14.0771 10.564C13.8371 10.908 13.5251 11.164 13.1411 11.332C13.5971 11.484 13.9651 11.76 14.2451 12.16C14.5251 12.552 14.6651 13.024 14.6651 13.576C14.6651 14.112 14.5371 14.584 14.2811 14.992C14.0252 15.392 13.6651 15.7 13.2011 15.916C12.7451 16.132 12.2171 16.24 11.6171 16.24C11.0171 16.24 10.4851 16.132 10.0211 15.916C9.56515 15.7 9.20915 15.392 8.95315 14.992C8.69715 14.584 8.56915 14.112 8.56915 13.576C8.56915 13.024 8.70915 12.552 8.98915 12.16C9.26915 11.76 9.64115 11.484 10.1051 11.332C9.69715 11.14 9.37715 10.876 9.14515 10.54C8.91315 10.204 8.79715 9.79995 8.79715 9.32795ZM9.82915 9.44795C9.82915 9.87995 9.99315 10.24 10.3211 10.528C10.6571 10.808 11.0891 10.948 11.6171 10.948C12.1451 10.948 12.5731 10.808 12.9011 10.528C13.2371 10.24 13.4051 9.87995 13.4051 9.44795C13.4051 8.95195 13.2451 8.57195 12.9251 8.30795C12.6131 8.03595 12.1771 7.89995 11.6171 7.89995C11.0651 7.89995 10.6291 8.03595 10.3091 8.30795C9.98915 8.57195 9.82915 8.95195 9.82915 9.44795ZM9.60115 13.552C9.60115 14.088 9.78115 14.516 10.1411 14.836C10.5091 15.156 11.0011 15.316 11.6171 15.316C12.2331 15.316 12.7211 15.156 13.0811 14.836C13.4411 14.508 13.6211 14.08 13.6211 13.552C13.6211 12.976 13.4371 12.544 13.0691 12.256C12.7011 11.96 12.2171 11.812 11.6171 11.812C11.0251 11.812 10.5411 11.96 10.1651 12.256C9.78915 12.544 9.60115 12.976 9.60115 13.552Z" fill="#EFEFEF"/>
<path d="M20.0023 11.848L22.5583 16H21.3583L19.3303 12.724L17.4223 16H16.2103L18.7783 11.836L16.2103 7.68395H17.4223L19.4503 10.972L21.3583 7.68395H22.5703L20.0023 11.848Z" fill="#EFEFEF"/>
<path fill-rule="evenodd" clip-rule="evenodd" d="M7.52081 7.48684L4.94563 16.4933L3.79187 16.1635L6.36704 7.15695L7.52081 7.48684Z" fill="#EFEFEF"/>
</svg>
