<svg width="18" height="18" viewBox="0 0 18 18" fill="none" xmlns="http://www.w3.org/2000/svg">
<g clip-path="url(#clip0_920_3681)">
<path d="M0.38 5.6V4.77H2.26V12H1.34V5.6H0.38ZM8.10914 8.24C7.73581 8.09333 7.44914 7.88 7.24914 7.6C7.04914 7.32 6.94914 6.98 6.94914 6.58C6.94914 6.22 7.03914 5.89667 7.21914 5.61C7.39914 5.31667 7.66581 5.08667 8.01914 4.92C8.37914 4.74667 8.81247 4.66 9.31914 4.66C9.82581 4.66 10.2558 4.74667 10.6091 4.92C10.9691 5.08667 11.2391 5.31667 11.4191 5.61C11.6058 5.89667 11.6991 6.22 11.6991 6.58C11.6991 6.96667 11.5958 7.30667 11.3891 7.6C11.1825 7.88667 10.8991 8.1 10.5391 8.24C10.9525 8.36667 11.2791 8.59 11.5191 8.91C11.7658 9.22333 11.8891 9.60333 11.8891 10.05C11.8891 10.4833 11.7825 10.8633 11.5691 11.19C11.3558 11.51 11.0525 11.76 10.6591 11.94C10.2725 12.1133 9.82581 12.2 9.31914 12.2C8.81247 12.2 8.36581 12.1133 7.97914 11.94C7.59914 11.76 7.30247 11.51 7.08914 11.19C6.87581 10.8633 6.76914 10.4833 6.76914 10.05C6.76914 9.60333 6.88914 9.22 7.12914 8.9C7.36914 8.58 7.69581 8.36 8.10914 8.24ZM10.8191 6.69C10.8191 6.28333 10.6858 5.97 10.4191 5.75C10.1525 5.53 9.78581 5.42 9.31914 5.42C8.85914 5.42 8.49581 5.53 8.22914 5.75C7.96247 5.97 7.82914 6.28667 7.82914 6.7C7.82914 7.07333 7.96581 7.37333 8.23914 7.6C8.51914 7.82667 8.87914 7.94 9.31914 7.94C9.76581 7.94 10.1258 7.82667 10.3991 7.6C10.6791 7.36667 10.8191 7.06333 10.8191 6.69ZM9.31914 8.64C8.82581 8.64 8.42247 8.75667 8.10914 8.99C7.79581 9.21667 7.63914 9.56 7.63914 10.02C7.63914 10.4467 7.78914 10.79 8.08914 11.05C8.39581 11.31 8.80581 11.44 9.31914 11.44C9.83247 11.44 10.2391 11.31 10.5391 11.05C10.8391 10.79 10.9891 10.4467 10.9891 10.02C10.9891 9.57333 10.8358 9.23333 10.5291 9C10.2225 8.76 9.81914 8.64 9.31914 8.64ZM16.2477 8.52L18.3877 12H17.3577L15.6877 9.28L14.0977 12H13.0877L15.2177 8.52L13.0777 5.03H14.0977L15.7777 7.76L17.3777 5.03H18.3977L16.2477 8.52Z" fill="#EFEFEF"/>
<path d="M5.64918 5.08236L3.77811 11.6263" stroke="#EFEFEF" stroke-linecap="square"/>
</g>
<defs>
<clipPath id="clip0_920_3681">
<rect width="18" height="18" fill="white"/>
</clipPath>
</defs>
</svg>
