<svg width="24" height="24" viewBox="0 0 24 24" fill="none" xmlns="http://www.w3.org/2000/svg">
<path d="M3 16.7755C3.52245 16.3184 3.91429 15.981 4.17551 15.7633C5.27483 14.8163 6.14014 14.0381 6.77143 13.4286C7.41361 12.819 7.94694 12.1823 8.37143 11.5184C8.79592 10.8435 9.00816 10.185 9.00816 9.54286C9.00816 8.85714 8.82857 8.30748 8.46939 7.89388C8.12109 7.48027 7.56055 7.27347 6.78776 7.27347C6.04762 7.27347 5.47619 7.50748 5.07347 7.97551C4.67075 8.43265 4.45306 9.04218 4.42041 9.80408H3C3.04354 8.58503 3.40816 7.64898 4.09388 6.99592C4.79048 6.33197 5.68299 6 6.77143 6C7.89252 6 8.78504 6.31565 9.44898 6.94694C10.1238 7.56735 10.4612 8.41633 10.4612 9.49388C10.4612 10.2776 10.2435 11.0449 9.80816 11.7959C9.38367 12.5361 8.87211 13.2109 8.27347 13.8204C7.68572 14.419 6.95102 15.1048 6.06939 15.8776C5.48163 16.3891 5.21497 16.6231 5.26939 16.5796H10.8204V17.8367H3V16.7755Z" fill="#EFEFEF"/>
<path d="M17.7608 12.351L21.2384 18H19.6057L16.8466 13.5429L14.2506 18H12.6017L16.0955 12.3347L12.6017 6.68571H14.2506L17.0098 11.1592L19.6057 6.68571H21.2547L17.7608 12.351Z" fill="#EFEFEF"/>
</svg>
