<svg width="18" height="18" viewBox="0 0 18 18" fill="none" xmlns="http://www.w3.org/2000/svg">
<path d="M2.51 11.27C3.35667 10.59 4.02 10.0333 4.5 9.6C4.98 9.16 5.38333 8.70333 5.71 8.23C6.04333 7.75 6.21 7.28 6.21 6.82C6.21 6.38667 6.10333 6.04667 5.89 5.8C5.68333 5.54667 5.34667 5.42 4.88 5.42C4.42667 5.42 4.07333 5.56333 3.82 5.85C3.57333 6.13 3.44 6.50667 3.42 6.98H2.54C2.56667 6.23333 2.79333 5.65667 3.22 5.25C3.64667 4.84333 4.19667 4.64 4.87 4.64C5.55667 4.64 6.1 4.83 6.5 5.21C6.90667 5.59 7.11 6.11333 7.11 6.78C7.11 7.33333 6.94333 7.87333 6.61 8.4C6.28333 8.92 5.91 9.38 5.49 9.78C5.07 10.1733 4.53333 10.6333 3.88 11.16H7.32V11.92H2.51V11.27ZM11.522 8.52L13.662 12H12.632L10.962 9.28L9.37195 12H8.36195L10.492 8.52L8.35195 5.03H9.37195L11.052 7.76L12.652 5.03H13.672L11.522 8.52Z" fill="#EFEFEF"/>
</svg>
