<svg width="24" height="24" viewBox="0 0 24 24" fill="none" xmlns="http://www.w3.org/2000/svg">
<path d="M3.29312 9.04663C3.29312 8.47668 3.43196 7.96373 3.70965 7.50777C3.98734 7.04145 4.39874 6.67358 4.94384 6.40415C5.48893 6.13472 6.14716 6 6.91852 6C7.70017 6 8.36355 6.13472 8.90864 6.40415C9.45374 6.67358 9.85999 7.04145 10.1274 7.50777C10.4051 7.97409 10.5439 8.49223 10.5439 9.06218C10.5439 9.66321 10.3897 10.1917 10.0811 10.6477C9.77257 11.0933 9.37146 11.4249 8.87779 11.6425C9.46402 11.8394 9.93713 12.1969 10.2971 12.715C10.6571 13.2228 10.837 13.8342 10.837 14.5492C10.837 15.2435 10.6725 15.8549 10.3434 16.3834C10.0143 16.9016 9.55144 17.3005 8.95492 17.5803C8.36869 17.8601 7.68989 18 6.91852 18C6.14716 18 5.46322 17.8601 4.8667 17.5803C4.28046 17.3005 3.82279 16.9016 3.49367 16.3834C3.16456 15.8549 3 15.2435 3 14.5492C3 13.8342 3.17998 13.2228 3.53995 12.715C3.89992 12.1969 4.37817 11.8394 4.97469 11.6425C4.45016 11.3938 4.03877 11.0518 3.74051 10.6166C3.44225 10.1813 3.29312 9.65803 3.29312 9.04663ZM4.61986 9.20207C4.61986 9.76166 4.8307 10.228 5.25238 10.601C5.68434 10.9637 6.23973 11.1451 6.91852 11.1451C7.59732 11.1451 8.14756 10.9637 8.56924 10.601C9.00121 10.228 9.21719 9.76166 9.21719 9.20207C9.21719 8.55959 9.01149 8.06736 8.6001 7.72539C8.19899 7.37306 7.63846 7.19689 6.91852 7.19689C6.20887 7.19689 5.64835 7.37306 5.23695 7.72539C4.82556 8.06736 4.61986 8.55959 4.61986 9.20207ZM4.32674 14.5181C4.32674 15.2124 4.55815 15.7668 5.02097 16.1813C5.49407 16.5959 6.12659 16.8031 6.91852 16.8031C7.71046 16.8031 8.33783 16.5959 8.80065 16.1813C9.26347 15.7565 9.49488 15.2021 9.49488 14.5181C9.49488 13.772 9.25833 13.2124 8.78522 12.8394C8.31212 12.456 7.68989 12.2642 6.91852 12.2642C6.15745 12.2642 5.53521 12.456 5.05183 12.8394C4.56844 13.2124 4.32674 13.772 4.32674 14.5181Z" fill="#EFEFEF"/>
<path d="M17.6986 12.3109L20.9846 17.6891H19.4418L16.8346 13.4456L14.3817 17.6891H12.8235L16.125 12.2953L12.8235 6.9171H14.3817L16.9889 11.1762L19.4418 6.9171H21L17.6986 12.3109Z" fill="#EFEFEF"/>
</svg>
