<svg width="24" height="24" viewBox="0 0 24 24" fill="none" xmlns="http://www.w3.org/2000/svg">
<path d="M12 2C10.0222 2 8.08879 2.58649 6.4443 3.6853C4.79981 4.78412 3.51809 6.3459 2.76121 8.17316C2.00433 10.0004 1.8063 12.0111 2.19215 13.9509C2.578 15.8907 3.53041 17.6725 4.92894 19.0711C6.32746 20.4696 8.10929 21.422 10.0491 21.8078C11.9889 22.1937 13.9996 21.9957 15.8268 21.2388C17.6541 20.4819 19.2159 19.2002 20.3147 17.5557C21.4135 15.9112 22 13.9778 22 12C22 9.34783 20.9464 6.80429 19.0711 4.92893C17.1957 3.05357 14.6522 2 12 2ZM12 6.28571C12.2119 6.28571 12.4191 6.34855 12.5953 6.46628C12.7715 6.58401 12.9088 6.75135 12.9899 6.94712C13.071 7.1429 13.0922 7.35833 13.0508 7.56617C13.0095 7.774 12.9075 7.96491 12.7576 8.11476C12.6078 8.2646 12.4169 8.36664 12.209 8.40798C12.0012 8.44932 11.7858 8.42811 11.59 8.34701C11.3942 8.26592 11.2269 8.12859 11.1091 7.95239C10.9914 7.7762 10.9286 7.56905 10.9286 7.35714C10.9286 7.07298 11.0415 6.80046 11.2424 6.59953C11.4433 6.3986 11.7158 6.28571 12 6.28571ZM14.8571 17.8036H9.14286V16.1964H11.1964V12.0893H9.85715V10.4821H12.8036V16.1964H14.8571V17.8036Z" fill="#EFEFEF"/>
</svg>
