<svg width="20" height="20" viewBox="0 0 20 20" fill="none" xmlns="http://www.w3.org/2000/svg">
<mask id="path-1-inside-1_3419_24416" fill="white">
<path d="M20 10C20 15.5228 15.5228 20 10 20C4.47715 20 0 15.5228 0 10C0 4.47715 4.47715 0 10 0C15.5228 0 20 4.47715 20 10Z"/>
</mask>
<path d="M19 10C19 14.9706 14.9706 19 10 19V21C16.0751 21 21 16.0751 21 10H19ZM10 19C5.02944 19 1 14.9706 1 10H-1C-1 16.0751 3.92487 21 10 21V19ZM1 10C1 5.02944 5.02944 1 10 1V-1C3.92487 -1 -1 3.92487 -1 10H1ZM10 1C14.9706 1 19 5.02944 19 10H21C21 3.92487 16.0751 -1 10 -1V1Z" fill="#3CBB5F" mask="url(#path-1-inside-1_3419_24416)"/>
<path fill-rule="evenodd" clip-rule="evenodd" d="M14.5815 4.58327C15.2252 4.8986 15.1891 5.47261 14.865 6.17114L10.8759 14.7689C10.2682 16.0788 8.50276 16.2077 7.72087 14.9994L5.22635 11.1443C4.80936 10.4999 4.58141 9.58327 5.41477 9.1666C5.73611 9.00594 6.24778 8.93886 6.66476 9.58326L9.16476 13.3333L12.9148 5.4166C13.3314 4.58323 13.8428 4.22145 14.5815 4.58327Z" fill="#3CBB5F"/>
</svg>
