<svg width="24" height="24" viewBox="0 0 24 24" fill="none" xmlns="http://www.w3.org/2000/svg">
<path fill-rule="evenodd" clip-rule="evenodd" d="M11.7844 3.2339C12.0963 3.2339 12.3491 3.48672 12.3491 3.79859L12.3491 11.2198L19.7703 11.2198C20.0822 11.2198 20.335 11.4726 20.335 11.7845C20.335 12.0964 20.0822 12.3492 19.7703 12.3492L12.3491 12.3492L12.3491 19.7704C12.3491 20.0823 12.0963 20.3351 11.7844 20.3351C11.4726 20.3351 11.2197 20.0823 11.2197 19.7704L11.2197 12.3492L3.79851 12.3492C3.48664 12.3492 3.23382 12.0964 3.23382 11.7845C3.23382 11.4726 3.48664 11.2198 3.79851 11.2198L11.2197 11.2198L11.2197 3.79859C11.2197 3.48672 11.4726 3.2339 11.7844 3.2339Z" fill="#EFEFEF"/>
</svg>
