<svg width="24" height="24" viewBox="0 0 24 24" fill="none" xmlns="http://www.w3.org/2000/svg">
<path fill-rule="evenodd" clip-rule="evenodd" d="M9.21042 4.07916C9.56388 4.09463 9.90888 4.18419 10.2235 4.34065C9.52634 5.09042 9.09993 6.09541 9.09993 7.2C9.09993 7.87731 9.26026 8.51717 9.54503 9.08371C9.4778 9.09576 9.40995 9.10509 9.34163 9.11166C8.88091 9.15597 8.41687 9.0727 8.0003 8.87097C7.58373 8.66923 7.23067 8.3568 6.97976 7.96786C6.72885 7.57892 6.58975 7.12846 6.57768 6.66577C6.56562 6.20308 6.68105 5.74598 6.91136 5.34449C7.14166 4.94301 7.47796 4.6126 7.88345 4.38943C8.28894 4.16626 8.74801 4.05892 9.21042 4.07916ZM11.1048 3.60984L11.0948 3.62476C11.7357 3.22862 12.4911 3 13.2999 3C15.6195 3 17.4999 4.8804 17.4999 7.2C17.4999 9.5196 15.6195 11.4 13.2999 11.4C12.0702 11.4 10.9639 10.8715 10.1958 10.0292C9.9527 10.1069 9.70099 10.1588 9.44471 10.1835C8.78738 10.2467 8.12533 10.1279 7.53099 9.84006C6.93666 9.55223 6.43294 9.10648 6.07495 8.55157C5.71697 7.99666 5.51851 7.35397 5.5013 6.69383C5.48409 6.0337 5.64878 5.38154 5.97736 4.80873C6.30594 4.23592 6.78575 3.76452 7.36428 3.44611C7.94281 3.12771 8.59777 2.97457 9.2575 3.00344C9.57763 3.01746 9.8929 3.07407 10.1953 3.17065C10.516 3.27306 10.8222 3.42042 11.1044 3.60959L11.1048 3.60984ZM13.2999 10.4C12.469 10.4 11.7121 10.0833 11.1432 9.56405C11.1816 9.53758 11.2195 9.51034 11.257 9.48233L11.2579 9.48162L11.2119 9.42019L10.6585 8.68117L10.6125 8.61974C10.5691 8.65226 10.5247 8.68331 10.4794 8.71286C10.2373 8.26239 10.0999 7.74724 10.0999 7.2C10.0999 5.43269 11.5326 4 13.2999 4C15.0672 4 16.4999 5.43269 16.4999 7.2C16.4999 8.96731 15.0672 10.4 13.2999 10.4ZM4.40811 13.0603C5.72303 11.8276 7.52645 11.1845 9.77079 11.5051C10.0442 11.5442 10.2341 11.7974 10.1951 12.0708C10.156 12.3442 9.90273 12.5341 9.62936 12.495C7.67371 12.2157 6.17712 12.7726 5.09205 13.7898C3.99246 14.8207 3.28044 16.3593 2.99327 18.0822C2.94788 18.3546 2.69026 18.5386 2.41788 18.4932C2.14549 18.4478 1.96148 18.1902 2.00688 17.9178C2.31972 16.0408 3.1077 14.2794 4.40811 13.0603ZM8.13659 13.9915C9.54554 12.997 11.4812 12.7 13.8999 12.7C14.1761 12.7 14.3999 12.9239 14.3999 13.2C14.3999 13.4761 14.1761 13.7 13.8999 13.7C11.5187 13.7 9.85432 14.003 8.71327 14.8085C7.59943 15.5947 6.88716 16.9333 6.59607 19.262C6.56182 19.536 6.31192 19.7304 6.03791 19.6962C5.7639 19.6619 5.56954 19.412 5.60379 19.138C5.9127 16.6667 6.70043 15.0053 8.13659 13.9915ZM18.5999 13.2C18.5999 12.9239 18.3761 12.7 18.0999 12.7C17.8238 12.7 17.5999 12.9239 17.5999 13.2V16.3H14.4999C14.2238 16.3 13.9999 16.5239 13.9999 16.8C13.9999 17.0761 14.2238 17.3 14.4999 17.3H17.5999V20.4C17.5999 20.6761 17.8238 20.9 18.0999 20.9C18.3761 20.9 18.5999 20.6761 18.5999 20.4V17.3H21.6999C21.9761 17.3 22.1999 17.0761 22.1999 16.8C22.1999 16.5239 21.9761 16.3 21.6999 16.3H18.5999V13.2Z" fill="#EEEEEE"/>
</svg>
