<svg width="24" height="24" viewBox="0 0 24 24" fill="none" xmlns="http://www.w3.org/2000/svg">
<path fill-rule="evenodd" clip-rule="evenodd" d="M11.7856 10.5C13.5805 10.5 15.0356 9.04492 15.0356 7.25C15.0356 5.45507 13.5805 4 11.7856 4C9.99069 4 8.53562 5.45507 8.53562 7.25C8.53562 9.04492 9.99069 10.5 11.7856 10.5ZM11.7856 11.5C14.1328 11.5 16.0356 9.59721 16.0356 7.25C16.0356 4.90279 14.1328 3 11.7856 3C9.43841 3 7.53562 4.90279 7.53562 7.25C7.53562 9.59721 9.43841 11.5 11.7856 11.5ZM6.56439 14.1272C7.98852 13.122 9.94559 12.8214 12.3929 12.8214C12.6691 12.8214 12.8929 13.0453 12.8929 13.3214C12.8929 13.5976 12.6691 13.8214 12.3929 13.8214C9.98308 13.8214 8.2973 14.128 7.14107 14.9442C6.01205 15.7412 5.29085 17.0976 4.99619 19.4549C4.96194 19.7289 4.71205 19.9233 4.43804 19.889C4.16403 19.8548 3.96966 19.6049 4.00391 19.3309C4.31639 16.831 5.11306 15.1517 6.56439 14.1272ZM17.1428 13.3214C17.1428 13.0453 16.9189 12.8214 16.6428 12.8214C16.3666 12.8214 16.1428 13.0453 16.1428 13.3214V16.4643H12.9999C12.7238 16.4643 12.4999 16.6881 12.4999 16.9643C12.4999 17.2404 12.7238 17.4643 12.9999 17.4643H16.1428V20.6071C16.1428 20.8833 16.3666 21.1071 16.6428 21.1071C16.9189 21.1071 17.1428 20.8833 17.1428 20.6071V17.4643H20.2856C20.5618 17.4643 20.7856 17.2404 20.7856 16.9643C20.7856 16.6881 20.5618 16.4643 20.2856 16.4643H17.1428V13.3214Z" fill="#EEEEEE"/>
</svg>
