<svg width="24" height="24" viewBox="0 0 24 24" fill="none" xmlns="http://www.w3.org/2000/svg">
<path fill-rule="evenodd" clip-rule="evenodd" d="M11.7333 12.6666C14.3106 12.6666 16.3999 9.91062 16.3999 7.33329C16.3999 4.75596 14.3106 2.66663 11.7333 2.66663C9.15592 2.66663 7.06659 4.75596 7.06659 7.33329C7.06659 9.91062 9.15592 12.6666 11.7333 12.6666ZM8.26205 13.6753C6.51166 13.2978 5.43178 13.0649 3.15758 14.794C1.29953 16.2067 1.28576 19.2283 1.35153 20.3568C1.36618 20.6081 1.57687 20.7939 1.82857 20.7939H22.1741C22.4288 20.7939 22.6411 20.6039 22.6526 20.3494C22.7043 19.207 22.6588 16.1627 20.852 14.794C18.4072 12.942 17.2465 13.2234 15.5185 13.6424C14.5988 13.8653 13.5185 14.1273 11.9983 14.1273C10.3575 14.1273 9.2112 13.88 8.26205 13.6753Z" fill="#EFEFEF"/>
</svg>
