<svg width="24" height="24" viewBox="0 0 24 24" fill="none" xmlns="http://www.w3.org/2000/svg">
<path d="M9.73788 9.18176C12.0232 9.18176 13.8758 7.35021 13.8758 5.09088C13.8758 2.83155 12.0232 1 9.73788 1C7.45258 1 5.59998 2.83155 5.59998 5.09088C5.59998 7.35021 7.45258 9.18176 9.73788 9.18176Z" fill="#EFEFEF"/>
<path d="M10.9586 21.1271C10.7306 20.9043 10.5819 20.6144 10.5347 20.3009C10.4874 19.9875 10.5442 19.6674 10.6965 19.3885L11.062 18.7067L10.3103 18.4817C10.0037 18.3868 9.73687 18.1957 9.55017 17.9373C9.36348 17.6789 9.26715 17.3673 9.27581 17.0499V15.6522C9.27523 15.3361 9.3775 15.0283 9.56751 14.7741C9.75753 14.52 10.0252 14.333 10.331 14.2408L11.0827 14.0158L10.7241 13.334C10.5763 13.0589 10.52 12.7448 10.5633 12.4363C10.6067 12.1278 10.7474 11.8406 10.9655 11.6158C10.4349 11.5471 9.90055 11.5106 9.36546 11.5067C7.785 11.4699 6.21581 11.7784 4.7698 12.4101C3.32378 13.0418 2.03658 13.9812 1 15.1612V20.4453C1 20.6261 1.07266 20.7996 1.20199 20.9274C1.33133 21.0553 1.50674 21.1271 1.68965 21.1271H10.9586V21.1271Z" fill="#EFEFEF"/>
<path d="M22.862 15.4272L21.4827 15.0181C21.3871 14.6814 21.2529 14.3566 21.0827 14.05L21.7723 12.7818C21.799 12.7347 21.8087 12.6801 21.8 12.6269C21.7912 12.5736 21.7644 12.5249 21.724 12.4886L20.7241 11.4932C20.6855 11.4561 20.6364 11.4317 20.5834 11.4231C20.5303 11.4146 20.4759 11.4224 20.4275 11.4454L19.1517 12.1273C18.8376 11.9586 18.5072 11.8215 18.1655 11.7182L17.7448 10.3545C17.7263 10.3043 17.6924 10.2609 17.648 10.2304C17.6035 10.1998 17.5506 10.1837 17.4965 10.1841H16.062C16.0082 10.1856 15.9562 10.2034 15.9131 10.2351C15.8699 10.2668 15.8376 10.3109 15.8206 10.3614L15.4068 11.725C15.0585 11.8252 14.7229 11.9648 14.4069 12.1409L13.1586 11.4591C13.1101 11.4336 13.0546 11.4238 13.0002 11.4312C12.9457 11.4385 12.895 11.4626 12.8551 11.5L11.8414 12.4818C11.8014 12.5198 11.7751 12.5697 11.7664 12.6238C11.7577 12.6779 11.7671 12.7334 11.7931 12.7818L12.4827 14.0227C12.298 14.3307 12.1477 14.6576 12.0345 14.9977L10.6552 15.4136C10.603 15.4285 10.5572 15.4599 10.5248 15.503C10.4924 15.5461 10.4752 15.5985 10.4758 15.6522V17.05C10.4752 17.1036 10.4924 17.1561 10.5248 17.1992C10.5572 17.2423 10.603 17.2737 10.6552 17.2886L12.0345 17.7045C12.1378 18.0384 12.2765 18.3607 12.4482 18.6659L11.7586 19.9613C11.7326 20.0097 11.7232 20.0652 11.7319 20.1193C11.7407 20.1734 11.767 20.2233 11.8069 20.2613L12.8345 21.2499C12.8743 21.2873 12.925 21.3114 12.9795 21.3188C13.034 21.3261 13.0894 21.3163 13.1379 21.2908L14.4275 20.609C14.7345 20.7722 15.0581 20.9025 15.3931 20.9977L15.8068 22.3954C15.8242 22.4469 15.8575 22.4918 15.9021 22.5236C15.9466 22.5554 16.0002 22.5726 16.0551 22.5726H17.4689C17.5227 22.5712 17.5747 22.5534 17.6179 22.5216C17.6611 22.4899 17.6933 22.4458 17.7103 22.3954L18.1241 20.9977C18.455 20.9037 18.7742 20.7733 19.0758 20.609L20.3792 21.2908C20.4278 21.3163 20.4832 21.3261 20.5376 21.3188C20.5921 21.3114 20.6428 21.2873 20.6827 21.2499L21.6896 20.2613C21.7274 20.2219 21.7518 20.1717 21.7592 20.1179C21.7666 20.0641 21.7567 20.0093 21.7309 19.9613L21.0413 18.6795C21.2063 18.3808 21.3381 18.0653 21.4344 17.7386L22.8137 17.3227C22.8655 17.3062 22.9111 17.2746 22.9443 17.232C22.9775 17.1894 22.9969 17.1378 22.9999 17.084V15.6727C23.0016 15.6233 22.9896 15.5743 22.9653 15.5311C22.941 15.4878 22.9053 15.4519 22.862 15.4272V15.4272ZM16.7724 18.6454C16.3165 18.6467 15.8705 18.5143 15.4908 18.2649C15.1111 18.0155 14.8148 17.6603 14.6394 17.2443C14.464 16.8283 14.4174 16.3703 14.5054 15.9281C14.5935 15.4859 14.8124 15.0795 15.1342 14.7603C15.4561 14.4411 15.8665 14.2236 16.3135 14.1352C16.7606 14.0467 17.224 14.0914 17.6453 14.2636C18.0666 14.4357 18.4268 14.7276 18.6802 15.1023C18.9336 15.4769 19.0689 15.9175 19.0689 16.3681C19.0689 16.9709 18.8272 17.5491 18.3967 17.976C17.9662 18.4029 17.3821 18.6436 16.7724 18.6454Z" fill="#EFEFEF"/>
</svg>
