<svg width="32" height="32" viewBox="0 0 32 32" fill="none" xmlns="http://www.w3.org/2000/svg">
<path fill-rule="evenodd" clip-rule="evenodd" d="M30.5 16C30.5 24.0081 24.0081 30.5 16 30.5C7.99187 30.5 1.5 24.0081 1.5 16C1.5 7.99187 7.99187 1.5 16 1.5C24.0081 1.5 30.5 7.99187 30.5 16ZM31.5 16C31.5 24.5604 24.5604 31.5 16 31.5C7.43959 31.5 0.5 24.5604 0.5 16C0.5 7.43959 7.43959 0.5 16 0.5C24.5604 0.5 31.5 7.43959 31.5 16ZM13.75 9.8C14.1642 9.8 14.5 10.1358 14.5 10.55V21.55C14.5 21.9642 14.1642 22.3 13.75 22.3C13.3358 22.3 13 21.9642 13 21.55V10.55C13 10.1358 13.3358 9.8 13.75 9.8ZM18.25 9.8C18.6642 9.8 19 10.1358 19 10.55V21.55C19 21.9642 18.6642 22.3 18.25 22.3C17.8358 22.3 17.5 21.9642 17.5 21.55V10.55C17.5 10.1358 17.8358 9.8 18.25 9.8Z" fill="#EFEFEF"/>
</svg>
