<svg width="24" height="24" viewBox="0 0 24 24" fill="none" xmlns="http://www.w3.org/2000/svg">
<path fill-rule="evenodd" clip-rule="evenodd" d="M16.3118 7.90394C16.4651 8.05727 16.4651 8.30586 16.3118 8.45919L12.6632 12.1078L16.3118 15.7564C16.4651 15.9097 16.4651 16.1583 16.3118 16.3117C16.1584 16.465 15.9098 16.465 15.7565 16.3117L12.1079 12.6631L8.45929 16.3117C8.30596 16.465 8.05737 16.465 7.90404 16.3117C7.75071 16.1583 7.75071 15.9097 7.90404 15.7564L11.5526 12.1078L7.90404 8.45919C7.75071 8.30586 7.75071 8.05727 7.90404 7.90394C8.05737 7.75061 8.30596 7.75061 8.45929 7.90394L12.1079 11.5525L15.7565 7.90394C15.9098 7.75061 16.1584 7.75061 16.3118 7.90394Z" fill="#EFEFEF" stroke="#EFEFEF" stroke-width="0.5" stroke-linecap="round"/>
<path d="M22 12C22 17.5228 17.5228 22 12 22C6.47715 22 2 17.5228 2 12C2 6.47715 6.47715 2 12 2C17.5228 2 22 6.47715 22 12ZM3.46912 12C3.46912 16.7115 7.28853 20.5309 12 20.5309C16.7115 20.5309 20.5309 16.7115 20.5309 12C20.5309 7.28853 16.7115 3.46912 12 3.46912C7.28853 3.46912 3.46912 7.28853 3.46912 12Z" fill="#EFEFEF"/>
</svg>
