<svg width="24" height="24" viewBox="0 0 24 24" fill="none" xmlns="http://www.w3.org/2000/svg">
<path d="M2 5C2 3.34315 3.34315 2 5 2H19C20.6569 2 22 3.34315 22 5V19C22 20.6569 20.6569 22 19 22H5C3.34315 22 2 20.6569 2 19V5Z" fill="#2B87DB"/>
<path fill-rule="evenodd" clip-rule="evenodd" d="M19 4H5C4.44771 4 4 4.44772 4 5V19C4 19.5523 4.44772 20 5 20H19C19.5523 20 20 19.5523 20 19V5C20 4.44771 19.5523 4 19 4ZM5 2C3.34315 2 2 3.34315 2 5V19C2 20.6569 3.34315 22 5 22H19C20.6569 22 22 20.6569 22 19V5C22 3.34315 20.6569 2 19 2H5Z" fill="#113B61"/>
<path fill-rule="evenodd" clip-rule="evenodd" d="M16.4659 6.11504C16.9546 6.37226 17.1422 6.97698 16.885 7.4657L12.2768 16.2212C11.7469 17.2282 10.3326 17.3015 9.7014 16.3547L7.16806 12.5547C6.8617 12.0951 6.98588 11.4743 7.44541 11.1679C7.90493 10.8616 8.5258 10.9857 8.83216 11.4453L10.8988 14.5453L15.1152 6.53421C15.3724 6.04548 15.9771 5.85782 16.4659 6.11504Z" fill="#113B61"/>
</svg>
