<svg width="24" height="24" viewBox="0 0 24 24" fill="none" xmlns="http://www.w3.org/2000/svg">
<path fill-rule="evenodd" clip-rule="evenodd" d="M7.65381 5C7.65381 3.61929 8.7731 2.5 10.1538 2.5H20C21.3807 2.5 22.5 3.61929 22.5 5V14.8462C22.5 16.2269 21.3807 17.3462 20 17.3462H15.0769V16.3462H20C20.8284 16.3462 21.5 15.6746 21.5 14.8462V5C21.5 4.17157 20.8284 3.5 20 3.5H10.1538C9.32538 3.5 8.65381 4.17157 8.65381 5V8.38461H7.65381V5Z" fill="#EFEFEF"/>
<path fill-rule="evenodd" clip-rule="evenodd" d="M13.8462 8.61536H4C3.44771 8.61536 3 9.06307 3 9.61536V19.4615C3 20.0138 3.44771 20.4615 4 20.4615H13.8462C14.3984 20.4615 14.8462 20.0138 14.8462 19.4615V9.61536C14.8462 9.06307 14.3984 8.61536 13.8462 8.61536ZM4 7.61536C2.89543 7.61536 2 8.51079 2 9.61536V19.4615C2 20.5661 2.89543 21.4615 4 21.4615H13.8462C14.9507 21.4615 15.8462 20.5661 15.8462 19.4615V9.61536C15.8462 8.51079 14.9507 7.61536 13.8462 7.61536H4Z" fill="#EFEFEF"/>
<path fill-rule="evenodd" clip-rule="evenodd" d="M6.08193 11.5819C6.19117 11.4727 6.36827 11.4727 6.47751 11.5819L9.07692 14.1813L11.6763 11.5819C11.7856 11.4727 11.9627 11.4727 12.0719 11.5819C12.1812 11.6912 12.1812 11.8683 12.0719 11.9775L9.47251 14.5769L12.0719 17.1763C12.1812 17.2856 12.1812 17.4627 12.0719 17.5719C11.9627 17.6812 11.7856 17.6812 11.6763 17.5719L9.07692 14.9725L6.47751 17.5719C6.36827 17.6812 6.19117 17.6812 6.08193 17.5719C5.97269 17.4627 5.97269 17.2856 6.08193 17.1763L8.68134 14.5769L6.08193 11.9775C5.97269 11.8683 5.97269 11.6912 6.08193 11.5819Z" fill="#EFEFEF"/>
</svg>
