<svg width="24" height="24" viewBox="0 0 24 24" fill="none" xmlns="http://www.w3.org/2000/svg">
<path fill-rule="evenodd" clip-rule="evenodd" d="M3.22633 3.22633C3.5281 2.92456 4.01736 2.92456 4.31913 3.22633L11.5 10.4072L18.6809 3.22633C18.9826 2.92456 19.4719 2.92456 19.7737 3.22633C20.0754 3.5281 20.0754 4.01736 19.7737 4.31913L12.5928 11.5L19.7737 18.6809C20.0754 18.9826 20.0754 19.4719 19.7737 19.7737C19.4719 20.0754 18.9826 20.0754 18.6809 19.7737L11.5 12.5928L4.31913 19.7737C4.01736 20.0754 3.5281 20.0754 3.22633 19.7737C2.92456 19.4719 2.92456 18.9826 3.22633 18.6809L10.4072 11.5L3.22633 4.31913C2.92456 4.01736 2.92456 3.5281 3.22633 3.22633Z" fill="#EFEFEF"/>
</svg>
