<svg width="24" height="24" viewBox="0 0 24 24" fill="none" xmlns="http://www.w3.org/2000/svg">
<path fill-rule="evenodd" clip-rule="evenodd" d="M4 3H20C20.5523 3 21 3.44772 21 4V20C21 20.5523 20.5523 21 20 21H4C3.44772 21 3 20.5523 3 20V4C3 3.44772 3.44772 3 4 3ZM1 4C1 2.34315 2.34315 1 4 1H20C21.6569 1 23 2.34315 23 4V20C23 21.6569 21.6569 23 20 23H4C2.34315 23 1 21.6569 1 20V4ZM16.4366 5.36235C16.2463 5.16223 15.9368 5.1613 15.7453 5.36028L6.66126 14.8005C6.58693 14.8778 6.53831 14.9779 6.52257 15.0862L6.22438 17.1372C6.17943 17.4464 6.40832 17.7248 6.70747 17.7248H9.01251C9.14165 17.7248 9.26556 17.6714 9.35717 17.5762L18.4127 8.16562C18.6042 7.96664 18.6051 7.64311 18.4148 7.44298L16.4366 5.36235Z" fill="url(#paint0_linear_971_2005)"/>
<defs>
<linearGradient id="paint0_linear_971_2005" x1="12" y1="1" x2="12" y2="23" gradientUnits="userSpaceOnUse">
<stop stop-color="white"/>
<stop offset="1" stop-color="#ADACAC"/>
</linearGradient>
</defs>
</svg>
