<svg width="22" height="18" viewBox="0 0 22 18" fill="none" xmlns="http://www.w3.org/2000/svg">
<path fill-rule="evenodd" clip-rule="evenodd" d="M3.36364 1.63636H18.6364C19.1635 1.63636 19.5909 2.00268 19.5909 2.45455V15.5455C19.5909 15.9973 19.1635 16.3636 18.6364 16.3636H3.36364C2.83646 16.3636 2.40909 15.9973 2.40909 15.5455V2.45455C2.40909 2.00268 2.83646 1.63636 3.36364 1.63636ZM0.5 2.45455C0.5 1.09894 1.78209 0 3.36364 0H18.6364C20.2179 0 21.5 1.09894 21.5 2.45455V15.5455C21.5 16.9011 20.2179 18 18.6364 18H3.36364C1.78209 18 0.5 16.9011 0.5 15.5455V2.45455ZM15.2349 3.5692C15.0533 3.40546 14.7579 3.4047 14.5751 3.56751L5.90393 11.2914C5.83298 11.3545 5.78657 11.4365 5.77154 11.5251L5.48691 13.2031C5.444 13.4561 5.66249 13.6839 5.94804 13.6839H8.1483C8.27158 13.6839 8.38986 13.6402 8.4773 13.5623L17.1212 5.86278C17.304 5.69998 17.3049 5.43527 17.1233 5.27153L15.2349 3.5692Z" fill="#EFEFEF"/>
</svg>
