<svg width="18" height="18" viewBox="0 0 18 18" fill="none" xmlns="http://www.w3.org/2000/svg">
<path fill-rule="evenodd" clip-rule="evenodd" d="M11.8125 1.9125C11.8125 1.78824 11.7118 1.6875 11.5875 1.6875H6.4125C6.28824 1.6875 6.1875 1.78824 6.1875 1.9125V7.0875C6.1875 7.21176 6.28824 7.3125 6.4125 7.3125H8.2125C8.33676 7.3125 8.4375 7.41324 8.4375 7.5375V9.3375C8.4375 9.46176 8.33676 9.5625 8.2125 9.5625H2.8125H1.9125C1.78824 9.5625 1.6875 9.66324 1.6875 9.7875V10.6875V12.7125C1.6875 12.8368 1.58676 12.9375 1.4625 12.9375H0.7875C0.663236 12.9375 0.5625 13.0382 0.5625 13.1625V16.0875C0.5625 16.2118 0.663236 16.3125 0.7875 16.3125H3.7125C3.83676 16.3125 3.9375 16.2118 3.9375 16.0875V13.1625C3.9375 13.0382 3.83676 12.9375 3.7125 12.9375H3.0375C2.91324 12.9375 2.8125 12.8368 2.8125 12.7125V10.9125C2.8125 10.7882 2.91324 10.6875 3.0375 10.6875H8.2125C8.33676 10.6875 8.4375 10.7882 8.4375 10.9125V12.7125C8.4375 12.8368 8.33676 12.9375 8.2125 12.9375H7.5375C7.41324 12.9375 7.3125 13.0382 7.3125 13.1625V16.0875C7.3125 16.2118 7.41324 16.3125 7.5375 16.3125H10.4625C10.5868 16.3125 10.6875 16.2118 10.6875 16.0875V13.1625C10.6875 13.0382 10.5868 12.9375 10.4625 12.9375H9.7875C9.66324 12.9375 9.5625 12.8368 9.5625 12.7125V10.9125C9.5625 10.7882 9.66324 10.6875 9.7875 10.6875H14.9625C15.0868 10.6875 15.1875 10.7882 15.1875 10.9125V12.7125C15.1875 12.8368 15.0868 12.9375 14.9625 12.9375H14.2875C14.1632 12.9375 14.0625 13.0382 14.0625 13.1625V16.0875C14.0625 16.2118 14.1632 16.3125 14.2875 16.3125H17.2125C17.3368 16.3125 17.4375 16.2118 17.4375 16.0875V13.1625C17.4375 13.0382 17.3368 12.9375 17.2125 12.9375H16.5375C16.4132 12.9375 16.3125 12.8368 16.3125 12.7125V10.6875V9.7875C16.3125 9.66324 16.2118 9.5625 16.0875 9.5625H15.1875H9.7875C9.66324 9.5625 9.5625 9.46176 9.5625 9.3375V7.5375C9.5625 7.41324 9.66324 7.3125 9.7875 7.3125H11.5875C11.7118 7.3125 11.8125 7.21176 11.8125 7.0875V1.9125Z" fill="#EFEFEF"/>
</svg>
