<svg width="18" height="18" viewBox="0 0 18 18" fill="none" xmlns="http://www.w3.org/2000/svg">
<path fill-rule="evenodd" clip-rule="evenodd" d="M7.09929 1.5C6.60992 1.5 6.21321 1.89739 6.21321 2.3876V3.55365H2.03571C1.73985 3.55365 1.5 3.79391 1.5 4.09029C1.5 4.38666 1.73985 4.62692 2.03571 4.62692H3.44674C3.44229 4.67539 3.44177 4.72492 3.44548 4.77518L4.25171 15.678C4.28599 16.1415 4.67139 16.5 5.13537 16.5H12.8646C13.3286 16.5 13.714 16.1415 13.7483 15.678L14.5545 4.77518C14.5582 4.72492 14.5577 4.67539 14.5533 4.62692H15.9643C16.2602 4.62692 16.5 4.38666 16.5 4.09029C16.5 3.79391 16.2602 3.55365 15.9643 3.55365H11.7868V2.3876C11.7868 1.89739 11.3901 1.5 10.9007 1.5H7.09929ZM10.9007 3.55365V2.3876H7.09929V3.55365H10.9007ZM12.8646 15.6124L13.6709 4.70961H9L4.32914 4.70961L5.13537 15.6124H12.8646ZM7.59375 6.19555C7.83843 6.19555 8.03679 6.39424 8.03679 6.63935V13.2131C8.03679 13.4582 7.83843 13.6569 7.59375 13.6569C7.34907 13.6569 7.15071 13.4582 7.15071 13.2131V6.63935C7.15071 6.39424 7.34907 6.19555 7.59375 6.19555ZM10.8493 6.63935C10.8493 6.39424 10.6509 6.19555 10.4062 6.19555C10.1616 6.19555 9.96321 6.39424 9.96321 6.63935V13.2131C9.96321 13.4582 10.1616 13.6569 10.4062 13.6569C10.6509 13.6569 10.8493 13.4582 10.8493 13.2131V6.63935Z" fill="#EFEFEF"/>
</svg>
