<svg width="24" height="24" viewBox="0 0 24 24" fill="none" xmlns="http://www.w3.org/2000/svg">
<path fill-rule="evenodd" clip-rule="evenodd" d="M20.8514 5.62861C20.6996 5.24895 20.3319 5 19.923 5H4.47703C4.06813 5 3.70042 5.24895 3.54856 5.62861L1.07152 11.8212C1.02428 11.9393 1 12.0654 1 12.1926V18C1 18.5523 1.44772 19 2 19H22.4C22.9523 19 23.4 18.5523 23.4 18V12.1926C23.4 12.0654 23.3757 11.9393 23.3285 11.8212L20.8514 5.62861ZM5.2 14.1C5.2 13.7134 5.5134 13.4 5.9 13.4H18.5C18.8866 13.4 19.2 13.7134 19.2 14.1C19.2 14.4866 18.8866 14.8 18.5 14.8H5.9C5.5134 14.8 5.2 14.4866 5.2 14.1Z" fill="#EFEFEF"/>
</svg>
