<svg width="24" height="24" viewBox="0 0 24 24" fill="none" xmlns="http://www.w3.org/2000/svg">
<path d="M20.1907 7.00799L6.08464 1.09321C5.80239 0.975346 5.48258 0.969016 5.19543 1.07561C5.05353 1.12916 4.92415 1.20892 4.81475 1.3103C4.70535 1.41168 4.61808 1.53268 4.55798 1.66632L1.09354 9.36642C0.9729 9.63454 0.968998 9.93732 1.08269 10.2082C1.19639 10.479 1.41837 10.6958 1.69982 10.8107L9.73385 14.0899L8.30188 17.4999H3.30963V14.1999H1V23H3.30963V19.7H8.30188C9.25229 19.7 10.0941 19.1565 10.4452 18.3161L11.8564 14.9567L15.8047 16.5682C16.0849 16.6829 16.4014 16.6874 16.685 16.5806C16.9686 16.4739 17.1964 16.2646 17.3187 15.9984L20.7831 8.45561C20.9057 8.18877 20.9121 7.88651 20.8011 7.61513C20.69 7.34376 20.4705 7.12541 20.1907 7.00799ZM20.7831 15.9984C20.18 16.0795 17.7971 14.9567 17.7971 14.9567L20.1907 9.74543C20.1907 9.74543 22.5194 10.3499 22.9414 10.8107C23.3635 11.2716 21.3862 15.9173 20.7831 15.9984Z" fill="#EFEFEF"/>
</svg>
