<svg width="24" height="24" viewBox="0 0 24 24" fill="none" xmlns="http://www.w3.org/2000/svg">
<path fill-rule="evenodd" clip-rule="evenodd" d="M9.09932 2.5C9.09932 2.22386 9.32318 2 9.59932 2H13.2174C13.4935 2 13.7174 2.22386 13.7174 2.5V10.5451C13.7174 10.8212 13.9412 11.0451 14.2174 11.0451L16.6483 11.0451C17.0891 11.0451 17.3142 11.5741 17.0086 11.8918L11.7864 17.3189C11.5897 17.5233 11.2625 17.5233 11.0658 17.3189L5.8436 11.8918C5.53794 11.5741 5.76306 11.0451 6.20389 11.0451L8.59932 11.0451C8.87547 11.0451 9.09932 10.8212 9.09932 10.5451V2.5ZM13.7174 12.0703C14.875 12.0451 14.049 12.0451 14.0775 12.0451H14.2982C14.7391 12.0451 14.9642 12.5741 14.6585 12.8918L11.7864 15.8766C11.5897 16.081 11.2625 16.081 11.0658 15.8766L8.19363 12.8918C7.88797 12.5741 8.11309 12.0451 8.55392 12.0451H9.04782C9.04782 12.0451 9.5 12.0898 9.5 12C9.5 12.0284 9.40068 12.0451 9.5 12.0451C9.77614 12.0451 10.0993 11.9242 10.0993 11.6481V3.5C10.0993 3.22386 10.3232 3 10.5993 3H12.2174C12.4935 3 12.7174 3.22386 12.7174 3.5V11.6481C12.7174 11.9242 12.9075 12.0703 13.1836 12.0703H13.3867H13.5586H13.7174ZM2 15.1631V20.0902C2 20.6425 2.44772 21.0902 3 21.0902H20.0902C20.6425 21.0902 21.0902 20.6425 21.0902 20.0902V15.1631H20.0902V20.0902H3V15.1631H2Z" fill="#EFEFEF"/>
</svg>
