<svg width="24" height="24" viewBox="0 0 24 24" fill="none" xmlns="http://www.w3.org/2000/svg">
<path fill-rule="evenodd" clip-rule="evenodd" d="M4.5664 20.9999L3 21L4.15943 19.9774L4.15947 19.9773L4.15947 19.9773L4.15978 19.9771L4.16129 19.9757L4.16791 19.9699L4.19502 19.9458C4.2191 19.9243 4.25496 19.8921 4.30128 19.8503C4.39392 19.7665 4.5283 19.6439 4.69382 19.4898C5.02507 19.1813 5.47986 18.7475 5.97372 18.2467C6.97326 17.2331 8.08972 15.9876 8.69081 14.9608C9.32485 13.8778 9.64388 12.5134 9.79958 11.3854C9.83444 11.1328 9.86077 10.8948 9.88064 10.6777L6.61944 10.6777C5.53819 10.6777 4.99958 9.40583 5.76807 8.66728L12.352 2.33993C12.8236 1.88669 13.5831 1.88669 14.0547 2.33993L20.6387 8.66728C21.4072 9.40583 20.8685 10.6777 19.7873 10.6777L16.3299 10.6777C16.2548 11.2075 16.1417 11.8759 15.9757 12.5978C15.5932 14.261 14.9012 16.3422 13.6358 17.5976C13.0367 18.192 12.2034 18.6911 11.3299 19.1046C10.4494 19.5215 9.49033 19.8688 8.60986 20.1458C7.72786 20.4233 6.91483 20.6335 6.3226 20.7742C6.02616 20.8447 5.78423 20.898 5.61566 20.9338C5.53136 20.9517 5.46536 20.9652 5.41999 20.9744L5.36771 20.9848L5.35372 20.9875L5.34986 20.9883L5.34872 20.9885L5.34836 20.9886C5.34824 20.9886 5.34815 20.9886 5.26552 20.5835L5.26551 20.5835L5.34812 20.9886L5.28995 20.9998L5.23065 20.9998L4.5664 20.9999ZM15.2497 9.50252C15.2511 9.48646 15.2523 9.4723 15.2533 9.46008L15.2567 9.41741L15.2574 9.40736L15.2576 9.40525L15.2576 9.40495C15.2576 9.40502 15.2576 9.4051 15.8614 9.44496C16.4651 9.48481 16.4651 9.48494 16.4651 9.48509L16.4651 9.48549L16.465 9.48667L16.4647 9.49052L16.4638 9.50252L19.7873 9.50252L13.2034 3.17517L6.61944 9.50252L9.94116 9.50252C9.94117 9.49614 9.94117 9.49036 9.94116 9.48518L9.94104 9.45976L9.94098 9.45419L9.94097 9.45334C9.94098 9.45343 9.94098 9.45353 10.5461 9.44495C11.1511 9.43637 11.1511 9.4365 11.1511 9.43664L11.1511 9.43699L11.1511 9.43792L11.1512 9.44073L11.1513 9.45007L11.1514 9.4833C11.1515 9.51178 11.1514 9.55274 11.1507 9.60507C11.1493 9.70969 11.1458 9.85995 11.1371 10.0469C11.1198 10.4204 11.0818 10.9426 10.9991 11.5415C10.8355 12.7269 10.4899 14.2656 9.74298 15.5416C9.06188 16.705 7.85307 18.0401 6.84789 19.0594C6.67592 19.2338 6.50864 19.4002 6.34939 19.5564C6.87931 19.4249 7.53637 19.2483 8.23676 19.0279C9.08492 18.761 9.98679 18.4331 10.7995 18.0483C11.6194 17.6602 12.3117 17.2312 12.7708 16.7756C13.7795 15.7749 14.4165 13.9853 14.7945 12.3417C14.9795 11.5374 15.0956 10.8001 15.1655 10.2636C15.1772 10.1732 15.1877 10.0885 15.1969 10.0103L15.1969 9.50252L15.2497 9.50252Z" fill="#EEEEEE"/>
</svg>
