<svg width="24" height="24" viewBox="0 0 24 24" fill="none" xmlns="http://www.w3.org/2000/svg">
<path fill-rule="evenodd" clip-rule="evenodd" d="M3.75 2C2.7835 2 2 2.7835 2 3.75V21.1143C2 22.0808 2.7835 22.8643 3.75 22.8643H21.1143C22.0808 22.8643 22.8643 22.0808 22.8643 21.1143V8.32803C22.8643 7.8639 22.68 7.41879 22.3518 7.0906L17.7737 2.51256C17.4455 2.18437 17.0004 2 16.5363 2H3.75ZM3.5 3.75C3.5 3.61193 3.61193 3.5 3.75 3.5H16.5363C16.6026 3.5 16.6662 3.52634 16.7131 3.57322L21.2911 8.15126C21.338 8.19814 21.3643 8.26173 21.3643 8.32803V21.1143C21.3643 21.2524 21.2524 21.3643 21.1143 21.3643H3.75C3.61193 21.3643 3.5 21.2524 3.5 21.1143V3.75ZM14.6596 6.62287C15.2118 6.62287 15.6596 7.07058 15.6596 7.62287V10.7867C15.6596 11.339 15.2118 11.7867 14.6596 11.7867H7.62287C7.07058 11.7867 6.62287 11.339 6.62287 10.7867V7.62287C6.62287 7.07058 7.07058 6.62287 7.62287 6.62287H14.6596ZM10.4956 8.41389C10.4956 8.13775 10.7195 7.91389 10.9956 7.91389H13.8685C14.1446 7.91389 14.3685 8.13774 14.3685 8.41389V9.9958C14.3685 10.2719 14.1446 10.4958 13.8685 10.4958H10.9956C10.7195 10.4958 10.4956 10.2719 10.4956 9.9958V8.41389Z" fill="#EFEFEF"/>
</svg>
