<svg width="28" height="28" viewBox="0 0 28 28" fill="none" xmlns="http://www.w3.org/2000/svg">
<path fill-rule="evenodd" clip-rule="evenodd" d="M2.5 14C2.5 7.64872 7.64873 2.5 14 2.5C20.3513 2.5 25.5 7.64873 25.5 14C25.5 20.3513 20.3513 25.5 14 25.5C7.64873 25.5 2.5 20.3513 2.5 14ZM1.5 14C1.5 7.09644 7.09644 1.5 14 1.5C20.9036 1.5 26.5 7.09644 26.5 14C26.5 20.9036 20.9036 26.5 14 26.5C7.09644 26.5 1.5 20.9036 1.5 14ZM11 18C10.7239 18 10.5 17.7761 10.5 17.5L10.5 9.5C10.5 9.22386 10.7239 9 11 9C11.2761 9 11.5 9.22386 11.5 9.5L11.5 12.9751L18.0176 9.55427C18.3506 9.37952 18.75 9.62098 18.75 9.99699L18.75 17.003C18.75 17.379 18.3506 17.6205 18.0176 17.4457L11.5 14.0249L11.5 17.5C11.5 17.7761 11.2761 18 11 18Z" fill="#EFEFEF"/>
</svg>
