<svg width="24" height="24" viewBox="0 0 24 24" fill="none" xmlns="http://www.w3.org/2000/svg">
<path d="M14.25 12.433L9 15.4641C8.66667 15.6566 8.25 15.416 8.25 15.0311L8.25 8.96891C8.25 8.58401 8.66667 8.34345 9 8.5359L14.25 11.567C14.4165 11.6631 14.4998 11.8313 14.5 11.9995V8C14.5 7.72386 14.7239 7.5 15 7.5C15.2761 7.5 15.5 7.72386 15.5 8V16C15.5 16.2761 15.2761 16.5 15 16.5C14.7239 16.5 14.5 16.2761 14.5 16V11.9995C14.4999 12.1678 14.4166 12.3368 14.25 12.433Z" fill="#EFEFEF"/>
<path fill-rule="evenodd" clip-rule="evenodd" d="M23 12C23 18.0751 18.0751 23 12 23C5.92487 23 1 18.0751 1 12C1 5.92487 5.92487 1 12 1C18.0751 1 23 5.92487 23 12ZM2.04377 12C2.04377 17.4987 6.50133 21.9562 12 21.9562C17.4987 21.9562 21.9562 17.4987 21.9562 12C21.9562 6.50133 17.4987 2.04377 12 2.04377C6.50133 2.04377 2.04377 6.50133 2.04377 12Z" fill="#EFEFEF"/>
</svg>
