<svg width="24" height="24" viewBox="0 0 24 24" fill="none" xmlns="http://www.w3.org/2000/svg">
<path d="M8.50002 7.5C9.00005 7.5 9.00005 8.00003 9.00005 8.00003C9.00005 8.00003 9.00005 8.78787 9.00005 9.00004V12C9.19335 11.8775 9.38655 11.7549 9.38655 11.7549L9.77305 11.5097L10.546 11.0193L12.092 10.0385L15.184 8.07704C15.2661 8.02785 15.3598 8.00141 15.4555 8.00043C15.5512 7.99946 15.6455 8.02398 15.7286 8.07148C15.8116 8.11898 15.8806 8.18774 15.9283 8.2707C15.976 8.35367 16.0008 8.44784 16 8.54354V15.4565C16.0006 15.5522 15.9757 15.6462 15.9279 15.729C15.8801 15.8118 15.8112 15.8805 15.7281 15.9278C15.6451 15.9752 15.5509 15.9997 15.4553 15.9986C15.3597 15.9976 15.2661 15.9712 15.184 15.922L9.00005 12V15C9.00005 15.2122 9.00005 15.9986 9.00005 15.9986C9.00005 15.9986 9.00005 16.5 8.5 16.5C8 16.5 8 16 8 16C8 16 8.00005 15.4122 8.00005 15.2V8.80004C8.00005 8.58787 8.00002 8 8.00002 8C8.00002 8 8.00002 7.5 8.50002 7.5Z" fill="#EFEFEF"/>
<path d="M23 12C23 18.0751 18.0751 23 12 23C5.92487 23 1 18.0751 1 12C1 5.92487 5.92487 1 12 1C18.0751 1 23 5.92487 23 12ZM2.04377 12C2.04377 17.4987 6.50133 21.9562 12 21.9562C17.4987 21.9562 21.9562 17.4987 21.9562 12C21.9562 6.50133 17.4987 2.04377 12 2.04377C6.50133 2.04377 2.04377 6.50133 2.04377 12Z" fill="#EFEFEF"/>
</svg>
