<svg width="24" height="24" viewBox="0 0 24 24" fill="none" xmlns="http://www.w3.org/2000/svg">
<path fill-rule="evenodd" clip-rule="evenodd" d="M1 5V2C1 1.72386 1.11193 1.47386 1.29289 1.29289C1.47386 1.11193 1.72386 1 2 1H5H7H8.5V2H7H5L4.99852 2C4.53592 2.00022 4.0978 2.10515 3.70658 2.29237L9.26961 7.85539C9.66013 8.24592 9.66013 8.87908 9.26961 9.26961C8.87908 9.66013 8.24592 9.66013 7.85539 9.26961L2.29237 3.70658C2.10495 4.09822 2 4.53685 2 5V6V7V8.5H1V7V5ZM15.5 2V1H17H19H22C22.2761 1 22.5261 1.11193 22.7071 1.29289C22.8881 1.47386 23 1.72386 23 2V5V7V8.5H22V7V6V5C22 4.53685 21.895 4.09822 21.7076 3.70658L16.1446 9.26961C15.7541 9.66013 15.1209 9.66013 14.7304 9.26961C14.3399 8.87908 14.3399 8.24592 14.7304 7.85539L20.2934 2.29237C19.9018 2.10495 19.4631 2 19 2H18H17H15.5ZM22 15.5H23V17V19V22C23 22.2761 22.8881 22.5261 22.7071 22.7071C22.5261 22.8881 22.2761 23 22 23H19H17H15.5V22H17H18H19C19.4631 22 19.9017 21.8951 20.2934 21.7077L14.3178 15.7321C13.9273 15.3416 13.9273 14.7084 14.3178 14.3179C14.7083 13.9274 15.3415 13.9274 15.732 14.3179L21.7076 20.2935C21.895 19.9018 22 19.4632 22 19V18V17V15.5ZM8.5 22V23H7H5H2C1.72386 23 1.47386 22.8881 1.29289 22.7071C1.11193 22.5261 1 22.2761 1 22V19V17V15.5H2V17V19L2 19.0015C2.00022 19.4641 2.10515 19.9022 2.29237 20.2934L7.85539 14.7304C8.24592 14.3399 8.87908 14.3399 9.26961 14.7304C9.66013 15.1209 9.66013 15.7541 9.26961 16.1446L3.70658 21.7076C4.09822 21.895 4.53685 22 5 22H6H7H8.5Z" fill="url(#paint0_linear_371_649)"/>
<defs>
<linearGradient id="paint0_linear_371_649" x1="12" y1="1" x2="12" y2="23" gradientUnits="userSpaceOnUse">
<stop stop-color="white"/>
<stop offset="1" stop-color="#ADACAC"/>
</linearGradient>
</defs>
</svg>
