<svg width="22" height="18" viewBox="0 0 22 18" fill="none" xmlns="http://www.w3.org/2000/svg">
<path fill-rule="evenodd" clip-rule="evenodd" d="M0.5 3.27273V0.818182C0.5 0.592247 0.606842 0.387701 0.779581 0.239639C0.952319 0.0915779 1.19096 0 1.45455 0H4.31818H6.22727H7.65909V0.818182H6.22727H4.31818L4.31677 0.818182C3.87519 0.818365 3.45699 0.904215 3.08356 1.05739L8.39372 5.60896C8.76649 5.92848 8.76649 6.44652 8.39372 6.76604C8.02094 7.08556 7.41656 7.08556 7.04378 6.76604L1.73363 2.21448C1.55473 2.53491 1.45455 2.89379 1.45455 3.27273V4.09091V4.90909V6.13636H0.5V4.90909V3.27273ZM14.3409 0.818182V0H15.7727H17.6818H20.5455C20.809 0 21.0477 0.0915781 21.2204 0.23964C21.3932 0.387702 21.5 0.592247 21.5 0.818182V3.27273V4.90909V6.13636H20.5455V4.90909V4.09091V3.27273C20.5455 2.89379 20.4453 2.53491 20.2664 2.21448L14.9562 6.76604C14.5834 7.08556 13.9791 7.08556 13.6063 6.76604C13.2335 6.44652 13.2335 5.92848 13.6063 5.60896L18.9164 1.05739C18.5426 0.904052 18.1239 0.818182 17.6818 0.818182H16.7273H15.7727H14.3409ZM20.5455 11.8636H21.5V13.0909V14.7273V17.1818C21.5 17.4078 21.3932 17.6123 21.2204 17.7604C21.0477 17.9084 20.809 18 20.5455 18H17.6818H15.7727H14.3409V17.1818H15.7727H16.7273H17.6818C18.1239 17.1818 18.5426 17.096 18.9164 16.9426L13.2124 12.0535C12.8397 11.734 12.8397 11.216 13.2124 10.8965C13.5852 10.5769 14.1896 10.5769 14.5624 10.8965L20.2663 15.7856C20.4453 15.4651 20.5455 15.1062 20.5455 14.7273V13.9091V13.0909V11.8636ZM7.65909 17.1818V18H6.22727H4.31818H1.45455C1.19096 18 0.952319 17.9084 0.77958 17.7604C0.606841 17.6123 0.5 17.4078 0.5 17.1818V14.7273V13.0909V11.8636H1.45455V13.0909V14.7273L1.45455 14.7285C1.45476 15.107 1.55492 15.4654 1.73363 15.7855L7.04378 11.234C7.41656 10.9144 8.02094 10.9144 8.39372 11.234C8.76649 11.5535 8.76649 12.0715 8.39372 12.391L3.08356 16.9426C3.45739 17.0959 3.87609 17.1818 4.31818 17.1818H5.27273H6.22727H7.65909Z" fill="#EFEFEF"/>
</svg>
