<svg width="34" height="27" viewBox="0 0 34 27" fill="none" xmlns="http://www.w3.org/2000/svg">
<g filter="url(#filter0_i_530_2384)">
<rect width="34" height="27" rx="2" fill="url(#paint0_linear_530_2384)"/>
<path d="M5 0V27" stroke="#195892" stroke-width="0.5"/>
<path d="M11 0V27" stroke="#195892" stroke-width="0.5"/>
<path d="M17 0V27" stroke="#195892" stroke-width="0.5"/>
<path d="M34 17L1.07288e-06 17" stroke="#195892" stroke-width="0.5"/>
<path d="M34 5L0 5" stroke="#195892" stroke-width="0.5"/>
<path d="M34 11L1.07288e-06 11" stroke="#195892" stroke-width="0.5"/>
<path d="M34 23L1.07288e-06 23" stroke="#195892" stroke-width="0.5"/>
<path d="M23 0V27" stroke="#195892" stroke-width="0.5"/>
<path d="M29 0V27" stroke="#195892" stroke-width="0.5"/>
<path d="M10.328 10.16C10.2253 9.73067 10.0387 9.40867 9.768 9.194C9.49733 8.97933 9.11933 8.872 8.634 8.872C7.89667 8.872 7.346 9.15667 6.982 9.726C6.618 10.286 6.42667 11.2193 6.408 12.526C6.65067 12.1153 7.00533 11.798 7.472 11.574C7.93867 11.35 8.44267 11.238 8.984 11.238C9.6 11.238 10.1413 11.3733 10.608 11.644C11.084 11.9053 11.4527 12.288 11.714 12.792C11.9847 13.296 12.12 13.898 12.12 14.598C12.12 15.2513 11.9893 15.8347 11.728 16.348C11.476 16.8613 11.098 17.2673 10.594 17.566C10.09 17.8553 9.48333 18 8.774 18C7.81267 18 7.05667 17.79 6.506 17.37C5.96467 16.9407 5.582 16.3387 5.358 15.564C5.14333 14.7893 5.036 13.8233 5.036 12.666C5.036 9.25 6.24 7.542 8.648 7.542C9.58133 7.542 10.314 7.794 10.846 8.298C11.3873 8.802 11.7047 9.42267 11.798 10.16H10.328ZM8.634 12.582C8.06467 12.582 7.57933 12.7547 7.178 13.1C6.786 13.436 6.59 13.926 6.59 14.57C6.59 15.214 6.772 15.7273 7.136 16.11C7.50933 16.4833 8.02733 16.67 8.69 16.67C9.278 16.67 9.74 16.488 10.076 16.124C10.4213 15.76 10.594 15.2747 10.594 14.668C10.594 14.0333 10.426 13.5293 10.09 13.156C9.76333 12.7733 9.278 12.582 8.634 12.582ZM18.6454 8.494L19.2754 9.614L17.3574 10.328L19.2754 11.042L18.6314 12.19L17.0354 10.93L17.3294 12.96H16.0414L16.3074 10.93L14.7114 12.218L14.0394 11.028L15.9434 10.314L14.0394 9.628L14.6834 8.48L16.3214 9.74L16.0414 7.696H17.3434L17.0354 9.74L18.6454 8.494ZM26.7151 10.16C26.6124 9.73067 26.4258 9.40867 26.1551 9.194C25.8844 8.97933 25.5064 8.872 25.0211 8.872C24.2838 8.872 23.7331 9.15667 23.3691 9.726C23.0051 10.286 22.8138 11.2193 22.7951 12.526C23.0378 12.1153 23.3924 11.798 23.8591 11.574C24.3258 11.35 24.8298 11.238 25.3711 11.238C25.9871 11.238 26.5284 11.3733 26.9951 11.644C27.4711 11.9053 27.8398 12.288 28.1011 12.792C28.3718 13.296 28.5071 13.898 28.5071 14.598C28.5071 15.2513 28.3764 15.8347 28.1151 16.348C27.8631 16.8613 27.4851 17.2673 26.9811 17.566C26.4771 17.8553 25.8704 18 25.1611 18C24.1998 18 23.4438 17.79 22.8931 17.37C22.3518 16.9407 21.9691 16.3387 21.7451 15.564C21.5304 14.7893 21.4231 13.8233 21.4231 12.666C21.4231 9.25 22.6271 7.542 25.0351 7.542C25.9684 7.542 26.7011 7.794 27.2331 8.298C27.7744 8.802 28.0918 9.42267 28.1851 10.16H26.7151ZM25.0211 12.582C24.4518 12.582 23.9664 12.7547 23.5651 13.1C23.1731 13.436 22.9771 13.926 22.9771 14.57C22.9771 15.214 23.1591 15.7273 23.5231 16.11C23.8964 16.4833 24.4144 16.67 25.0771 16.67C25.6651 16.67 26.1271 16.488 26.4631 16.124C26.8084 15.76 26.9811 15.2747 26.9811 14.668C26.9811 14.0333 26.8131 13.5293 26.4771 13.156C26.1504 12.7733 25.6651 12.582 25.0211 12.582Z" fill="#D1D7E1"/>
</g>
<defs>
<filter id="filter0_i_530_2384" x="0" y="0" width="34" height="27" filterUnits="userSpaceOnUse" color-interpolation-filters="sRGB">
<feFlood flood-opacity="0" result="BackgroundImageFix"/>
<feBlend mode="normal" in="SourceGraphic" in2="BackgroundImageFix" result="shape"/>
<feColorMatrix in="SourceAlpha" type="matrix" values="0 0 0 0 0 0 0 0 0 0 0 0 0 0 0 0 0 0 127 0" result="hardAlpha"/>
<feOffset/>
<feGaussianBlur stdDeviation="1"/>
<feComposite in2="hardAlpha" operator="arithmetic" k2="-1" k3="1"/>
<feColorMatrix type="matrix" values="0 0 0 0 0 0 0 0 0 0 0 0 0 0 0 0 0 0 0.6 0"/>
<feBlend mode="normal" in2="shape" result="effect1_innerShadow_530_2384"/>
</filter>
<linearGradient id="paint0_linear_530_2384" x1="17" y1="0" x2="17" y2="27" gradientUnits="userSpaceOnUse">
<stop stop-color="#1D6AB0"/>
<stop offset="1" stop-color="#103A64"/>
</linearGradient>
</defs>
</svg>
