<svg width="34" height="27" viewBox="0 0 34 27" fill="none" xmlns="http://www.w3.org/2000/svg">
<g filter="url(#filter0_i_530_2408)">
<rect width="34" height="27" rx="2" fill="url(#paint0_linear_530_2408)"/>
<path d="M4 0V27" stroke="#195892" stroke-width="0.5"/>
<path d="M9 0V27" stroke="#195892" stroke-width="0.5"/>
<path d="M14 0V27" stroke="#195892" stroke-width="0.5"/>
<path d="M34 11L0 11" stroke="#195892" stroke-width="0.5"/>
<path d="M34 15L0 15" stroke="#195892" stroke-width="0.5"/>
<path d="M34 19L0 19" stroke="#195892" stroke-width="0.5"/>
<path d="M34 3L0 3" stroke="#195892" stroke-width="0.5"/>
<path d="M34 7L1.07288e-06 7" stroke="#195892" stroke-width="0.5"/>
<path d="M34 23L1.07288e-06 23" stroke="#195892" stroke-width="0.5"/>
<path d="M24 0V27" stroke="#195892" stroke-width="0.5"/>
<path d="M19 0V27" stroke="#195892" stroke-width="0.5"/>
<path d="M29 0V27" stroke="#195892" stroke-width="0.5"/>
<path d="M10.328 10.16C10.2253 9.73067 10.0387 9.40867 9.768 9.194C9.49733 8.97933 9.11933 8.872 8.634 8.872C7.89667 8.872 7.346 9.15667 6.982 9.726C6.618 10.286 6.42667 11.2193 6.408 12.526C6.65067 12.1153 7.00533 11.798 7.472 11.574C7.93867 11.35 8.44267 11.238 8.984 11.238C9.6 11.238 10.1413 11.3733 10.608 11.644C11.084 11.9053 11.4527 12.288 11.714 12.792C11.9847 13.296 12.12 13.898 12.12 14.598C12.12 15.2513 11.9893 15.8347 11.728 16.348C11.476 16.8613 11.098 17.2673 10.594 17.566C10.09 17.8553 9.48333 18 8.774 18C7.81267 18 7.05667 17.79 6.506 17.37C5.96467 16.9407 5.582 16.3387 5.358 15.564C5.14333 14.7893 5.036 13.8233 5.036 12.666C5.036 9.25 6.24 7.542 8.648 7.542C9.58133 7.542 10.314 7.794 10.846 8.298C11.3873 8.802 11.7047 9.42267 11.798 10.16H10.328ZM6.59 14.57C6.59 15.214 6.772 15.7273 7.136 16.11C7.50933 16.4833 8.02733 16.67 8.69 16.67C9.278 16.67 9.74 16.488 10.076 16.124C10.4213 15.76 10.594 15.2747 10.594 14.668C10.594 14.0333 10.426 13.5293 10.09 13.156C9.76333 12.7733 9.278 12.582 8.634 12.582C8.06467 12.582 7.57933 12.7547 7.178 13.1C6.786 13.436 6.59 13.926 6.59 14.57ZM18.6454 8.494L19.2754 9.614L17.3574 10.328L19.2754 11.042L18.6314 12.19L17.0354 10.93L17.3294 12.96H16.0414L16.3074 10.93L14.7114 12.218L14.0394 11.028L15.9434 10.314L14.0394 9.628L14.6834 8.48L16.3214 9.74L16.0414 7.696H17.3434L17.0354 9.74L18.6454 8.494ZM21.4931 10.23C21.4931 9.726 21.6191 9.264 21.8711 8.844C22.1231 8.424 22.5011 8.09267 23.0051 7.85C23.5091 7.598 24.1251 7.472 24.8531 7.472C25.5718 7.472 26.1831 7.598 26.6871 7.85C27.2004 8.09267 27.5831 8.424 27.8351 8.844C28.0871 9.264 28.2131 9.726 28.2131 10.23C28.2131 10.7527 28.0778 11.2147 27.8071 11.616C27.5458 12.008 27.1958 12.3113 26.7571 12.526C27.2891 12.7313 27.7091 13.058 28.0171 13.506C28.3251 13.954 28.4791 14.4907 28.4791 15.116C28.4791 15.7507 28.3251 16.306 28.0171 16.782C27.7091 17.2487 27.2798 17.6127 26.7291 17.874C26.1784 18.126 25.5531 18.252 24.8531 18.252C24.1531 18.252 23.5278 18.126 22.9771 17.874C22.4358 17.6127 22.0111 17.2487 21.7031 16.782C21.3951 16.306 21.2411 15.7507 21.2411 15.116C21.2411 14.4813 21.3951 13.94 21.7031 13.492C22.0111 13.044 22.4264 12.722 22.9491 12.526C21.9784 12.0407 21.4931 11.2753 21.4931 10.23ZM23.0331 10.44C23.0331 10.9067 23.2011 11.2893 23.5371 11.588C23.8824 11.8773 24.3211 12.022 24.8531 12.022C25.3851 12.022 25.8238 11.8727 26.1691 11.574C26.5144 11.2753 26.6871 10.8927 26.6871 10.426C26.6871 9.90333 26.5238 9.502 26.1971 9.222C25.8704 8.942 25.4224 8.802 24.8531 8.802C24.2931 8.802 23.8498 8.942 23.5231 9.222C23.1964 9.502 23.0331 9.908 23.0331 10.44ZM22.7671 15.06C22.7671 15.62 22.9538 16.0727 23.3271 16.418C23.7004 16.754 24.2091 16.922 24.8531 16.922C25.4878 16.922 25.9871 16.7493 26.3511 16.404C26.7244 16.0587 26.9111 15.6107 26.9111 15.06C26.9111 14.472 26.7244 14.0193 26.3511 13.702C25.9778 13.3847 25.4784 13.226 24.8531 13.226C24.2371 13.226 23.7331 13.38 23.3411 13.688C22.9584 13.996 22.7671 14.4533 22.7671 15.06Z" fill="#D1D7E1"/>
</g>
<defs>
<filter id="filter0_i_530_2408" x="0" y="0" width="34" height="27" filterUnits="userSpaceOnUse" color-interpolation-filters="sRGB">
<feFlood flood-opacity="0" result="BackgroundImageFix"/>
<feBlend mode="normal" in="SourceGraphic" in2="BackgroundImageFix" result="shape"/>
<feColorMatrix in="SourceAlpha" type="matrix" values="0 0 0 0 0 0 0 0 0 0 0 0 0 0 0 0 0 0 127 0" result="hardAlpha"/>
<feOffset/>
<feGaussianBlur stdDeviation="1"/>
<feComposite in2="hardAlpha" operator="arithmetic" k2="-1" k3="1"/>
<feColorMatrix type="matrix" values="0 0 0 0 0 0 0 0 0 0 0 0 0 0 0 0 0 0 0.8 0"/>
<feBlend mode="normal" in2="shape" result="effect1_innerShadow_530_2408"/>
</filter>
<linearGradient id="paint0_linear_530_2408" x1="17" y1="0" x2="17" y2="27" gradientUnits="userSpaceOnUse">
<stop stop-color="#1D6AB0"/>
<stop offset="1" stop-color="#103A64"/>
</linearGradient>
</defs>
</svg>
