<svg width="34" height="27" viewBox="0 0 34 27" fill="none" xmlns="http://www.w3.org/2000/svg">
<g filter="url(#filter0_i_531_2437)">
<rect width="34" height="27" rx="2" fill="url(#paint0_linear_531_2437)"/>
<path d="M3 0V27" stroke="#195892" stroke-width="0.5"/>
<path d="M7.5 0V27" stroke="#195892" stroke-width="0.5"/>
<path d="M12 0V27" stroke="#195892" stroke-width="0.5"/>
<path d="M16.5 0V27" stroke="#195892" stroke-width="0.5"/>
<path d="M34 10L0 10" stroke="#195892" stroke-width="0.5"/>
<path d="M34 13.5L0 13.5" stroke="#195892" stroke-width="0.5"/>
<path d="M34 17L0 17" stroke="#195892" stroke-width="0.5"/>
<path d="M34 20.5L0 20.5" stroke="#195892" stroke-width="0.5"/>
<path d="M33.5386 3L0.397175 3" stroke="#195892" stroke-width="0.5"/>
<path d="M34 6.5L1.07288e-06 6.5" stroke="#195892" stroke-width="0.5"/>
<path d="M34 24L1.07288e-06 24" stroke="#195892" stroke-width="0.5"/>
<path d="M25.5 0V27" stroke="#195892" stroke-width="0.5"/>
<path d="M21 0V27" stroke="#195892" stroke-width="0.5"/>
<path d="M30 0V27" stroke="#195892" stroke-width="0.5"/>
<path d="M6.562 12.666C5.59133 12.1807 5.106 11.4153 5.106 10.37C5.106 9.866 5.232 9.404 5.484 8.984C5.736 8.564 6.114 8.23267 6.618 7.99C7.122 7.738 7.738 7.612 8.466 7.612C9.18467 7.612 9.796 7.738 10.3 7.99C10.8133 8.23267 11.196 8.564 11.448 8.984C11.7 9.404 11.826 9.866 11.826 10.37C11.826 10.8927 11.6907 11.3547 11.42 11.756C11.1587 12.148 10.8087 12.4513 10.37 12.666C10.902 12.862 11.322 13.184 11.63 13.632C11.938 14.0707 12.092 14.5887 12.092 15.186C12.092 15.7927 11.938 16.3293 11.63 16.796C11.322 17.2627 10.8927 17.622 10.342 17.874C9.79133 18.126 9.166 18.252 8.466 18.252C7.766 18.252 7.14067 18.126 6.59 17.874C6.04867 17.622 5.624 17.2627 5.316 16.796C5.008 16.3293 4.854 15.7927 4.854 15.186C4.854 14.5793 5.008 14.0567 5.316 13.618C5.624 13.1793 6.03933 12.862 6.562 12.666ZM10.3 10.566C10.3 10.0433 10.1367 9.642 9.81 9.362C9.48333 9.082 9.03533 8.942 8.466 8.942C7.906 8.942 7.46267 9.082 7.136 9.362C6.80933 9.642 6.646 10.048 6.646 10.58C6.646 11.0467 6.814 11.4293 7.15 11.728C7.49533 12.0173 7.934 12.162 8.466 12.162C8.998 12.162 9.43667 12.0127 9.782 11.714C10.1273 11.4153 10.3 11.0327 10.3 10.566ZM8.466 13.366C7.85 13.366 7.346 13.52 6.954 13.828C6.57133 14.1267 6.38 14.5607 6.38 15.13C6.38 15.662 6.56667 16.096 6.94 16.432C7.31333 16.7587 7.822 16.922 8.466 16.922C9.10067 16.922 9.6 16.754 9.964 16.418C10.3373 16.082 10.524 15.6527 10.524 15.13C10.524 14.57 10.3327 14.136 9.95 13.828C9.57667 13.52 9.082 13.366 8.466 13.366ZM18.5907 8.494L19.2207 9.614L17.3027 10.328L19.2207 11.042L18.5767 12.19L16.9807 10.93L17.2747 12.96H15.9867L16.2527 10.93L14.6567 12.218L13.9847 11.028L15.8887 10.314L13.9847 9.628L14.6287 8.48L16.2667 9.74L15.9867 7.696H17.2887L16.9807 9.74L18.5907 8.494ZM22.8944 12.666C21.9238 12.1807 21.4384 11.4153 21.4384 10.37C21.4384 9.866 21.5644 9.404 21.8164 8.984C22.0684 8.564 22.4464 8.23267 22.9504 7.99C23.4544 7.738 24.0704 7.612 24.7984 7.612C25.5171 7.612 26.1284 7.738 26.6324 7.99C27.1458 8.23267 27.5284 8.564 27.7804 8.984C28.0324 9.404 28.1584 9.866 28.1584 10.37C28.1584 10.8927 28.0231 11.3547 27.7524 11.756C27.4911 12.148 27.1411 12.4513 26.7024 12.666C27.2344 12.862 27.6544 13.184 27.9624 13.632C28.2704 14.0707 28.4244 14.5887 28.4244 15.186C28.4244 15.7927 28.2704 16.3293 27.9624 16.796C27.6544 17.2627 27.2251 17.622 26.6744 17.874C26.1238 18.126 25.4984 18.252 24.7984 18.252C24.0984 18.252 23.4731 18.126 22.9224 17.874C22.3811 17.622 21.9564 17.2627 21.6484 16.796C21.3404 16.3293 21.1864 15.7927 21.1864 15.186C21.1864 14.5793 21.3404 14.0567 21.6484 13.618C21.9564 13.1793 22.3718 12.862 22.8944 12.666ZM26.6324 10.566C26.6324 10.0433 26.4691 9.642 26.1424 9.362C25.8158 9.082 25.3678 8.942 24.7984 8.942C24.2384 8.942 23.7951 9.082 23.4684 9.362C23.1418 9.642 22.9784 10.048 22.9784 10.58C22.9784 11.0467 23.1464 11.4293 23.4824 11.728C23.8278 12.0173 24.2664 12.162 24.7984 12.162C25.3304 12.162 25.7691 12.0127 26.1144 11.714C26.4598 11.4153 26.6324 11.0327 26.6324 10.566ZM24.7984 13.366C24.1824 13.366 23.6784 13.52 23.2864 13.828C22.9038 14.1267 22.7124 14.5607 22.7124 15.13C22.7124 15.662 22.8991 16.096 23.2724 16.432C23.6458 16.7587 24.1544 16.922 24.7984 16.922C25.4331 16.922 25.9324 16.754 26.2964 16.418C26.6698 16.082 26.8564 15.6527 26.8564 15.13C26.8564 14.57 26.6651 14.136 26.2824 13.828C25.9091 13.52 25.4144 13.366 24.7984 13.366Z" fill="#D1D7E1"/>
</g>
<defs>
<filter id="filter0_i_531_2437" x="0" y="0" width="34" height="27" filterUnits="userSpaceOnUse" color-interpolation-filters="sRGB">
<feFlood flood-opacity="0" result="BackgroundImageFix"/>
<feBlend mode="normal" in="SourceGraphic" in2="BackgroundImageFix" result="shape"/>
<feColorMatrix in="SourceAlpha" type="matrix" values="0 0 0 0 0 0 0 0 0 0 0 0 0 0 0 0 0 0 127 0" result="hardAlpha"/>
<feOffset/>
<feGaussianBlur stdDeviation="1"/>
<feComposite in2="hardAlpha" operator="arithmetic" k2="-1" k3="1"/>
<feColorMatrix type="matrix" values="0 0 0 0 0 0 0 0 0 0 0 0 0 0 0 0 0 0 0.8 0"/>
<feBlend mode="normal" in2="shape" result="effect1_innerShadow_531_2437"/>
</filter>
<linearGradient id="paint0_linear_531_2437" x1="17" y1="0" x2="17" y2="27" gradientUnits="userSpaceOnUse">
<stop stop-color="#1D6AB0"/>
<stop offset="1" stop-color="#103A64"/>
</linearGradient>
</defs>
</svg>
