<svg width="18" height="18" viewBox="0 0 18 18" fill="none" xmlns="http://www.w3.org/2000/svg">
<path d="M3.94 8.24C3.56667 8.09333 3.28 7.88 3.08 7.6C2.88 7.32 2.78 6.98 2.78 6.58C2.78 6.22 2.87 5.89667 3.05 5.61C3.23 5.31667 3.49667 5.08667 3.85 4.92C4.21 4.74667 4.64333 4.66 5.15 4.66C5.65667 4.66 6.08667 4.74667 6.44 4.92C6.8 5.08667 7.07 5.31667 7.25 5.61C7.43667 5.89667 7.53 6.22 7.53 6.58C7.53 6.96667 7.42667 7.30667 7.22 7.6C7.01333 7.88667 6.73 8.1 6.37 8.24C6.78333 8.36667 7.11 8.59 7.35 8.91C7.59667 9.22333 7.72 9.60333 7.72 10.05C7.72 10.4833 7.61333 10.8633 7.4 11.19C7.18667 11.51 6.88333 11.76 6.49 11.94C6.10333 12.1133 5.65667 12.2 5.15 12.2C4.64333 12.2 4.19667 12.1133 3.81 11.94C3.43 11.76 3.13333 11.51 2.92 11.19C2.70667 10.8633 2.6 10.4833 2.6 10.05C2.6 9.60333 2.72 9.22 2.96 8.9C3.2 8.58 3.52667 8.36 3.94 8.24ZM6.65 6.69C6.65 6.28333 6.51667 5.97 6.25 5.75C5.98333 5.53 5.61667 5.42 5.15 5.42C4.69 5.42 4.32667 5.53 4.06 5.75C3.79333 5.97 3.66 6.28667 3.66 6.7C3.66 7.07333 3.79667 7.37333 4.07 7.6C4.35 7.82667 4.71 7.94 5.15 7.94C5.59667 7.94 5.95667 7.82667 6.23 7.6C6.51 7.36667 6.65 7.06333 6.65 6.69ZM5.15 8.64C4.65667 8.64 4.25333 8.75667 3.94 8.99C3.62667 9.21667 3.47 9.56 3.47 10.02C3.47 10.4467 3.62 10.79 3.92 11.05C4.22667 11.31 4.63667 11.44 5.15 11.44C5.66333 11.44 6.07 11.31 6.37 11.05C6.67 10.79 6.82 10.4467 6.82 10.02C6.82 9.57333 6.66667 9.23333 6.36 9C6.05333 8.76 5.65 8.64 5.15 8.64ZM12.0786 8.52L14.2186 12H13.1886L11.5186 9.28L9.92859 12H8.91859L11.0486 8.52L8.90859 5.03H9.92859L11.6086 7.76L13.2086 5.03H14.2286L12.0786 8.52Z" fill="url(#paint0_linear_920_3679)"/>
<defs>
<linearGradient id="paint0_linear_920_3679" x1="8.5" y1="1" x2="8.5" y2="16" gradientUnits="userSpaceOnUse">
<stop stop-color="#1D6AB0"/>
<stop offset="1" stop-color="#103A64"/>
</linearGradient>
</defs>
</svg>
