<svg width="28" height="28" viewBox="0 0 28 28" fill="none" xmlns="http://www.w3.org/2000/svg">
<path fill-rule="evenodd" clip-rule="evenodd" d="M14 25.5C20.3513 25.5 25.5 20.3513 25.5 14C25.5 7.64873 20.3513 2.5 14 2.5C7.64873 2.5 2.5 7.64873 2.5 14C2.5 20.3513 7.64873 25.5 14 25.5ZM14 26.5C20.9036 26.5 26.5 20.9036 26.5 14C26.5 7.09644 20.9036 1.5 14 1.5C7.09644 1.5 1.5 7.09644 1.5 14C1.5 20.9036 7.09644 26.5 14 26.5ZM7.25 14.933C6.91667 14.7406 6.91667 14.2594 7.25 14.067L13.25 10.6029C13.5833 10.4104 14 10.651 14 11.0359V13.634L19.25 10.6029C19.5833 10.4104 20 10.651 20 11.0359V17.9641C20 18.349 19.5833 18.5896 19.25 18.3971L14 15.366V17.9641C14 18.349 13.5833 18.5896 13.25 18.3971L7.25 14.933Z" fill="url(#paint0_linear_763_3482)"/>
<defs>
<linearGradient id="paint0_linear_763_3482" x1="14" y1="1.5" x2="14" y2="26.5" gradientUnits="userSpaceOnUse">
<stop stop-color="#1D6AB0"/>
<stop offset="1" stop-color="#103A64"/>
</linearGradient>
</defs>
</svg>
