<svg width="16" height="16" viewBox="0 0 16 16" fill="none" xmlns="http://www.w3.org/2000/svg">
<path fill-rule="evenodd" clip-rule="evenodd" d="M10.8145 4.0032H13.7914C14.4516 4.0032 14.9888 4.54037 15 5.18945V12.4077C15 13.0568 14.4628 13.5939 13.8026 13.5939H2.19744C1.53717 13.5939 1 13.0679 1 12.4077V5.18945C1 4.54037 1.53717 4.0032 2.19744 4.0032H5.16307C5.27498 4.0032 5.36451 3.92486 5.38689 3.82414L5.56595 2.95124C5.67786 2.40288 6.15907 2 6.72982 2H9.2478C9.80735 2 10.2998 2.40288 10.4117 2.95124L10.5907 3.82414C10.6131 3.92486 10.7138 4.0032 10.8145 4.0032ZM13.7914 12.6315C13.9145 12.6315 14.0152 12.5308 14.0152 12.4077V5.18945C14.0152 5.06635 13.9145 4.96563 13.7914 4.96563H10.8145C10.255 4.96563 9.76259 4.56275 9.65068 4.01439L9.47162 3.14149C9.46043 3.04077 9.35971 2.96243 9.25899 2.96243H6.74101C6.6291 2.96243 6.53957 3.04077 6.51719 3.14149L6.33813 4.01439C6.22622 4.56275 5.745 4.96563 5.17426 4.96563H2.19744C2.07434 4.96563 1.97362 5.06635 1.97362 5.18945V12.4077C1.97362 12.5308 2.07434 12.6315 2.19744 12.6315H13.7914ZM4.87207 8.80414C4.87207 7.0919 6.27095 5.69302 7.99437 5.69302C9.71779 5.69302 11.1167 7.0919 11.1167 8.80414C11.1167 10.5164 9.71779 11.9152 7.99437 11.9152C6.27095 11.9152 4.87207 10.5164 4.87207 8.80414ZM5.84569 8.80414C5.84569 9.9792 6.80812 10.9416 7.99437 10.9416C9.18062 10.9416 10.1431 9.9792 10.1431 8.80414C10.1431 7.62908 9.18062 6.66665 7.99437 6.66665C6.80812 6.66665 5.84569 7.62908 5.84569 8.80414Z" fill="url(#paint0_linear_813_3130)"/>
<defs>
<linearGradient id="paint0_linear_813_3130" x1="8" y1="2" x2="8" y2="13.5939" gradientUnits="userSpaceOnUse">
<stop stop-color="#1D6AB0"/>
<stop offset="1" stop-color="#103A64"/>
</linearGradient>
</defs>
</svg>
