<svg width="24" height="24" viewBox="0 0 24 24" fill="none" xmlns="http://www.w3.org/2000/svg">
<path fill-rule="evenodd" clip-rule="evenodd" d="M9.46572 2C8.81323 2 8.28428 2.52985 8.28428 3.18346V4.7382H2.71429C2.3198 4.7382 2 5.05855 2 5.45371C2 5.84888 2.3198 6.16923 2.71429 6.16923H4.59566C4.58972 6.23385 4.58902 6.2999 4.59398 6.36691L5.66895 20.904C5.71465 21.522 6.22853 22 6.84716 22H17.1528C17.7715 22 18.2853 21.522 18.3311 20.904L19.406 6.36691C19.411 6.2999 19.4103 6.23385 19.4043 6.16923H21.2857C21.6802 6.16923 22 5.84888 22 5.45371C22 5.05855 21.6802 4.7382 21.2857 4.7382H15.7157V3.18346C15.7157 2.52985 15.1868 2 14.5343 2H9.46572ZM14.5343 4.7382V3.18346H9.46572V4.7382H14.5343ZM17.1528 20.8165L18.2278 6.27949H12L5.77218 6.27949L6.84716 20.8165H17.1528ZM10.125 8.26073C10.4512 8.26073 10.7157 8.52566 10.7157 8.85246V17.6175C10.7157 17.9443 10.4512 18.2092 10.125 18.2092C9.79876 18.2092 9.53428 17.9443 9.53428 17.6175V8.85246C9.53428 8.52566 9.79876 8.26073 10.125 8.26073ZM14.4657 8.85246C14.4657 8.52566 14.2012 8.26073 13.875 8.26073C13.5488 8.26073 13.2843 8.52566 13.2843 8.85246V17.6175C13.2843 17.9443 13.5488 18.2092 13.875 18.2092C14.2012 18.2092 14.4657 17.9443 14.4657 17.6175V8.85246Z" fill="url(#paint0_linear_1503_8575)"/>
<defs>
<linearGradient id="paint0_linear_1503_8575" x1="12" y1="2" x2="12" y2="22" gradientUnits="userSpaceOnUse">
<stop stop-color="#1D6AB0"/>
<stop offset="1" stop-color="#103A64"/>
</linearGradient>
</defs>
</svg>
