<svg width="24" height="24" viewBox="0 0 24 24" fill="none" xmlns="http://www.w3.org/2000/svg">
<path d="M12 1C5.928 1 1 5.928 1 12C1 18.072 5.928 23 12 23C18.072 23 23 18.072 23 12C23 5.928 18.072 1 12 1ZM13.1 19.7H10.9V17.5H13.1V19.7ZM15.377 11.175L14.387 12.187C13.595 12.99 13.1 13.65 13.1 15.3H10.9V14.75C10.9 13.54 11.395 12.44 12.187 11.637L13.551 10.251C13.958 9.855 14.2 9.305 14.2 8.7C14.2 7.49 13.21 6.5 12 6.5C10.79 6.5 9.8 7.49 9.8 8.7H7.6C7.6 6.269 9.569 4.3 12 4.3C14.431 4.3 16.4 6.269 16.4 8.7C16.4 9.668 16.004 10.548 15.377 11.175Z" fill="#EFEFEF"/>
</svg>
