<svg width="28" height="28" viewBox="0 0 28 28" fill="none" xmlns="http://www.w3.org/2000/svg">
<path fill-rule="evenodd" clip-rule="evenodd" d="M25.5 14C25.5 20.3513 20.3513 25.5 14 25.5C7.64873 25.5 2.5 20.3513 2.5 14C2.5 7.64873 7.64873 2.5 14 2.5C20.3513 2.5 25.5 7.64873 25.5 14ZM26.5 14C26.5 20.9036 20.9036 26.5 14 26.5C7.09644 26.5 1.5 20.9036 1.5 14C1.5 7.09644 7.09644 1.5 14 1.5C20.9036 1.5 26.5 7.09644 26.5 14ZM17 10C17.2761 10 17.5 10.2239 17.5 10.5V18.5C17.5 18.7761 17.2761 19 17 19C16.7239 19 16.5 18.7761 16.5 18.5V15.0249L9.98237 18.4457C9.64944 18.6205 9.25 18.379 9.25 18.003L9.25 10.997C9.25 10.621 9.64944 10.3795 9.98237 10.5543L16.5 13.9751V10.5C16.5 10.2239 16.7239 10 17 10Z" fill="url(#paint0_linear_763_3452)"/>
<defs>
<linearGradient id="paint0_linear_763_3452" x1="14" y1="1.5" x2="14" y2="26.5" gradientUnits="userSpaceOnUse">
<stop stop-color="#1D6AB0"/>
<stop offset="1" stop-color="#103A64"/>
</linearGradient>
</defs>
</svg>
