<svg width="18" height="18" viewBox="0 0 18 18" fill="none" xmlns="http://www.w3.org/2000/svg">
<g clip-path="url(#clip0_763_3334)">
<path fill-rule="evenodd" clip-rule="evenodd" d="M1.7564 2C1.37788 1.59783 0.74501 1.57865 0.342836 1.95717C-0.0593373 2.33568 -0.0785154 2.96856 0.300001 3.37073L6.56968 10.0323C6.42559 10.011 6.27816 10 6.12817 10C4.47131 10 3.12817 11.3431 3.12817 13C3.12817 14.6569 4.47131 16 6.12817 16C7.78502 16 9.12817 14.6569 9.12817 13C9.12817 12.5412 9.02516 12.1064 8.84102 11.7176C9.03769 11.7359 9.23657 11.7253 9.43067 11.6856C9.23691 12.0826 9.12817 12.5286 9.12817 13C9.12817 14.6569 10.4713 16 12.1282 16C13.785 16 15.1282 14.6569 15.1282 13C15.1282 11.3431 13.785 10 12.1282 10C11.8925 10 11.6632 10.0272 11.4431 10.0786L17.7564 3.37073C18.1349 2.96856 18.1157 2.33568 17.7136 1.95717C17.3114 1.57865 16.6785 1.59783 16.3 2L9.0282 9.72629L1.7564 2ZM6.12817 14.5C6.95659 14.5 7.62817 13.8284 7.62817 13C7.62817 12.1716 6.95659 11.5 6.12817 11.5C5.29974 11.5 4.62817 12.1716 4.62817 13C4.62817 13.8284 5.29974 14.5 6.12817 14.5ZM12.1282 14.5C12.9566 14.5 13.6282 13.8284 13.6282 13C13.6282 12.1716 12.9566 11.5 12.1282 11.5C11.2997 11.5 10.6282 12.1716 10.6282 13C10.6282 13.8284 11.2997 14.5 12.1282 14.5Z" fill="url(#paint0_linear_763_3334)"/>
</g>
<defs>
<linearGradient id="paint0_linear_763_3334" x1="9.0282" y1="1.68536" x2="9.0282" y2="16" gradientUnits="userSpaceOnUse">
<stop stop-color="#1D6AB0"/>
<stop offset="1" stop-color="#103A64"/>
</linearGradient>
<clipPath id="clip0_763_3334">
<rect width="18" height="18" fill="white"/>
</clipPath>
</defs>
</svg>
