<svg width="16" height="16" viewBox="0 0 16 16" fill="none" xmlns="http://www.w3.org/2000/svg">
<path d="M10.2089 1.02198C10.1559 1.03288 10.0717 1.05935 10.0218 1.0796C9.79262 1.17303 9.78795 1.17615 7.86412 3.09472C6.83985 4.11629 6.01357 4.92763 5.98863 4.93697C5.95901 4.94788 5.59108 4.9541 4.87861 4.9541C4.16926 4.9541 3.78418 4.96033 3.72962 4.97123C3.68441 4.98058 3.58775 5.0164 3.51447 5.05066C3.28842 5.15811 3.0951 5.38391 3.02494 5.62218C3.00312 5.69848 3 5.92273 3 7.71205V9.71626L3.03742 9.82839C3.05924 9.88912 3.09978 9.97944 3.12784 10.0262C3.20267 10.1492 3.36481 10.2971 3.502 10.3641C3.70779 10.4653 3.71559 10.4669 4.89888 10.4669C5.64876 10.4669 5.9746 10.4715 5.99798 10.484C6.01669 10.4933 6.84609 11.3125 7.84074 12.3045C8.83539 13.2949 9.69908 14.1436 9.75833 14.1872C10.0249 14.3865 10.3196 14.4628 10.569 14.399C10.9401 14.3024 11.1755 13.9754 11.2316 13.4755C11.2441 13.3681 11.2472 11.6597 11.2441 7.55476C11.2394 1.99372 11.2378 1.78193 11.2098 1.68382C11.1303 1.4004 10.9744 1.19795 10.7592 1.09205C10.5675 0.998617 10.41 0.978373 10.2089 1.02198ZM10.4833 1.62931C10.5456 1.66202 10.5877 1.72742 10.6158 1.83488C10.6361 1.91585 10.6392 2.58548 10.6361 7.71205L10.6314 13.4958L10.5971 13.597C10.5597 13.706 10.4895 13.7932 10.4256 13.8088C10.3648 13.8244 10.2822 13.8041 10.1886 13.7496C10.1247 13.7122 9.58372 13.1828 8.10889 11.7127C6.42983 10.0386 6.11335 9.71626 6.08997 9.65709C6.06502 9.59168 6.06346 9.45931 6.06346 7.7027V5.81839L6.09932 5.74053C6.12894 5.67668 6.47504 5.32474 8.10109 3.70828C9.18305 2.63376 10.0951 1.73365 10.1278 1.70874C10.2525 1.61686 10.396 1.58415 10.4833 1.62931ZM5.49598 5.60816C5.44765 5.81061 5.44609 5.88068 5.45077 7.77434C5.45545 9.44685 5.45856 9.67422 5.48039 9.74585L5.50534 9.82839H4.67906C3.86837 9.82839 3.84966 9.82839 3.78262 9.79568C3.74209 9.77544 3.69844 9.73651 3.67349 9.69913L3.6314 9.63528V7.71049V5.78569L3.67349 5.72029C3.72338 5.64709 3.78418 5.60972 3.88708 5.59259C3.92605 5.58636 4.30645 5.58169 4.73051 5.58325C5.40712 5.5848 5.50222 5.58792 5.49598 5.60816Z" fill="url(#paint0_linear_815_3180)"/>
<path d="M12.3135 5.7172C12.1779 5.74834 12.0828 5.8667 12.0812 6.00529C12.0796 6.16725 12.1747 6.26224 12.4257 6.35257C12.8716 6.51141 13.2115 6.88516 13.3378 7.35234C13.3876 7.53766 13.3892 7.89116 13.3378 8.07647C13.266 8.34433 13.1242 8.57792 12.9184 8.77102C12.7734 8.9065 12.6362 8.99215 12.432 9.07158C12.2199 9.15567 12.1701 9.18681 12.1233 9.26624C12.0672 9.36279 12.0672 9.46868 12.1248 9.56835C12.2137 9.7194 12.3634 9.74588 12.6113 9.65711C13.3549 9.39238 13.8725 8.75389 13.977 7.97837C13.9879 7.89739 13.991 7.75256 13.9863 7.61708C13.9692 7.15145 13.8055 6.7341 13.4999 6.37281C13.2692 6.10029 12.9589 5.88694 12.6191 5.76859C12.4663 5.71408 12.3821 5.70007 12.3135 5.7172Z" fill="url(#paint1_linear_815_3180)"/>
<defs>
<linearGradient id="paint0_linear_815_3180" x1="7.1226" y1="14.421" x2="7.1226" y2="1" gradientUnits="userSpaceOnUse">
<stop stop-color="#103C65"/>
<stop offset="1" stop-color="#1F6CB4"/>
</linearGradient>
<linearGradient id="paint1_linear_815_3180" x1="13.0348" y1="9.70787" x2="13.0348" y2="5.71031" gradientUnits="userSpaceOnUse">
<stop stop-color="#103C65"/>
<stop offset="1" stop-color="#1F6CB4"/>
</linearGradient>
</defs>
</svg>
