<svg width="16" height="16" viewBox="0 0 16 16" fill="none" xmlns="http://www.w3.org/2000/svg">
<path d="M8.20888 1.02198C8.15587 1.03288 8.07169 1.05935 8.0218 1.0796C7.79262 1.17303 7.78795 1.17615 5.86412 3.09472C4.83985 4.11629 4.01357 4.92763 3.98863 4.93697C3.95901 4.94788 3.59108 4.9541 2.87861 4.9541C2.16926 4.9541 1.78418 4.96033 1.72962 4.97123C1.68441 4.98058 1.58775 5.0164 1.51447 5.05066C1.28842 5.15811 1.0951 5.38391 1.02494 5.62218C1.00312 5.69848 1 5.92273 1 7.71205V9.71626L1.03742 9.82839C1.05924 9.88912 1.09978 9.97944 1.12784 10.0262C1.20267 10.1492 1.36481 10.2971 1.502 10.3641C1.70779 10.4653 1.71559 10.4669 2.89888 10.4669C3.64876 10.4669 3.9746 10.4715 3.99798 10.484C4.01669 10.4933 4.84609 11.3125 5.84074 12.3045C6.83539 13.2949 7.69908 14.1436 7.75833 14.1872C8.02492 14.3865 8.31957 14.4628 8.56901 14.399C8.94006 14.3024 9.17547 13.9754 9.23159 13.4755C9.24407 13.3681 9.24718 11.6597 9.24407 7.55476C9.23939 1.99372 9.23783 1.78193 9.20977 1.68382C9.13026 1.4004 8.97436 1.19795 8.75921 1.09205C8.56745 0.998617 8.40999 0.978373 8.20888 1.02198ZM8.48327 1.62931C8.54563 1.66202 8.58772 1.72742 8.61578 1.83488C8.63605 1.91585 8.63917 2.58548 8.63605 7.71205L8.63137 13.4958L8.59707 13.597C8.55966 13.706 8.4895 13.7932 8.42558 13.8088C8.36478 13.8244 8.28215 13.8041 8.18861 13.7496C8.12469 13.7122 7.58372 13.1828 6.10889 11.7127C4.42983 10.0386 4.11335 9.71626 4.08997 9.65709C4.06502 9.59168 4.06346 9.45931 4.06346 7.7027V5.81839L4.09932 5.74053C4.12894 5.67668 4.47504 5.32474 6.10109 3.70828C7.18305 2.63376 8.09507 1.73365 8.12781 1.70874C8.25253 1.61686 8.39596 1.58415 8.48327 1.62931ZM3.49598 5.60816C3.44765 5.81061 3.44609 5.88068 3.45077 7.77434C3.45545 9.44685 3.45856 9.67422 3.48039 9.74585L3.50534 9.82839H2.67906C1.86837 9.82839 1.84966 9.82839 1.78262 9.79568C1.74209 9.77544 1.69844 9.73651 1.67349 9.69913L1.6314 9.63528V7.71049V5.78569L1.67349 5.72029C1.72338 5.64709 1.78418 5.60972 1.88708 5.59259C1.92605 5.58636 2.30645 5.58169 2.73051 5.58325C3.40712 5.5848 3.50222 5.58792 3.49598 5.60816Z" fill="url(#paint0_linear_815_3189)"/>
<path d="M11.5857 3.80487C11.5 3.82978 11.4438 3.87806 11.4049 3.96371C11.3628 4.05403 11.3597 4.09141 11.3862 4.17706C11.4111 4.26271 11.4766 4.325 11.6777 4.44802C12.1797 4.75948 12.571 5.13323 12.8875 5.6082C13.1853 6.05358 13.377 6.53322 13.4721 7.0736C13.5205 7.34612 13.5329 7.87092 13.4971 8.16213C13.3942 9.00151 13.0387 9.74589 12.4447 10.3626C12.2187 10.5962 11.9692 10.7908 11.5857 11.0275C11.4189 11.1303 11.3612 11.2393 11.3893 11.3935C11.4111 11.5087 11.5561 11.6177 11.6902 11.6193C11.7712 11.6193 11.924 11.543 12.1719 11.3779C12.4198 11.2128 12.5617 11.0976 12.7924 10.8734C13.4051 10.2754 13.8307 9.53098 14.0178 8.7321C14.2033 7.93789 14.1659 7.08294 13.9133 6.32454C13.6015 5.38551 12.981 4.57572 12.1548 4.02912C11.8445 3.82355 11.7073 3.76905 11.5857 3.80487Z" fill="url(#paint1_linear_815_3189)"/>
<path d="M10.3135 5.7172C10.1779 5.74834 10.0828 5.8667 10.0812 6.00529C10.0796 6.16725 10.1747 6.26224 10.4257 6.35257C10.8716 6.51141 11.2115 6.88516 11.3378 7.35234C11.3876 7.53766 11.3892 7.89116 11.3378 8.07647C11.266 8.34433 11.1242 8.57792 10.9184 8.77102C10.7734 8.9065 10.6362 8.99215 10.432 9.07158C10.2199 9.15567 10.1701 9.18681 10.1233 9.26624C10.0672 9.36279 10.0672 9.46868 10.1248 9.56835C10.2137 9.7194 10.3634 9.74588 10.6113 9.65711C11.3549 9.39238 11.8725 8.75389 11.977 7.97837C11.9879 7.89739 11.991 7.75256 11.9863 7.61708C11.9692 7.15145 11.8055 6.7341 11.4999 6.37281C11.2692 6.10029 10.9589 5.88694 10.6191 5.76859C10.4663 5.71408 10.3821 5.70007 10.3135 5.7172Z" fill="url(#paint2_linear_815_3189)"/>
<defs>
<linearGradient id="paint0_linear_815_3189" x1="5.1226" y1="14.421" x2="5.1226" y2="1" gradientUnits="userSpaceOnUse">
<stop stop-color="#103C66"/>
<stop offset="1" stop-color="#1F6BB3"/>
</linearGradient>
<linearGradient id="paint1_linear_815_3189" x1="12.7516" y1="11.6193" x2="12.7516" y2="3.79465" gradientUnits="userSpaceOnUse">
<stop stop-color="#103C66"/>
<stop offset="1" stop-color="#1F6BB3"/>
</linearGradient>
<linearGradient id="paint2_linear_815_3189" x1="11.0348" y1="9.70787" x2="11.0348" y2="5.71031" gradientUnits="userSpaceOnUse">
<stop stop-color="#103C66"/>
<stop offset="1" stop-color="#1F6BB3"/>
</linearGradient>
</defs>
</svg>
