<svg width="16" height="16" viewBox="0 0 16 16" fill="none" xmlns="http://www.w3.org/2000/svg">
<path fill-rule="evenodd" clip-rule="evenodd" d="M9.0218 1.07959C9.07169 1.05935 9.15587 1.03288 9.20888 1.02197C9.40999 0.978371 9.56745 0.998616 9.75921 1.09205C9.97436 1.19795 10.1303 1.40039 10.2098 1.68382C10.2378 1.78193 10.2394 1.99372 10.2441 7.55476C10.2472 11.6597 10.2441 13.3681 10.2316 13.4755C10.1755 13.9754 9.94006 14.3024 9.56901 14.399C9.31957 14.4628 9.02492 14.3865 8.75833 14.1872C8.69908 14.1436 7.83539 13.2949 6.84074 12.3045C5.84609 11.3125 5.01669 10.4933 4.99798 10.484C4.9746 10.4715 4.64876 10.4669 3.89888 10.4669C2.71559 10.4669 2.70779 10.4653 2.502 10.3641C2.36481 10.2971 2.20267 10.1492 2.12784 10.0262C2.09978 9.97944 2.05924 9.88912 2.03742 9.82839L2 9.71626V7.71204C2 5.92273 2.00312 5.69848 2.02494 5.62218C2.0951 5.38391 2.28842 5.15811 2.51447 5.05065C2.58775 5.01639 2.68441 4.98058 2.72962 4.97123C2.78418 4.96033 3.16926 4.9541 3.87861 4.9541C4.59108 4.9541 4.95901 4.94787 4.98863 4.93697C5.01357 4.92763 5.83985 4.11629 6.86412 3.09471C8.78795 1.17615 8.79262 1.17303 9.0218 1.07959ZM9.61578 1.83487C9.58772 1.72742 9.54563 1.66202 9.48327 1.62931C9.39596 1.58415 9.25253 1.61686 9.12781 1.70873C9.09507 1.73365 8.18305 2.63376 7.10109 3.70828C5.47504 5.32474 5.12894 5.67668 5.09932 5.74053L5.06346 5.81839V7.7027C5.06346 9.45931 5.06502 9.59168 5.08997 9.65709C5.11335 9.71626 5.42983 10.0386 7.10889 11.7127C8.58372 13.1828 9.12469 13.7122 9.18861 13.7496C9.28215 13.8041 9.36478 13.8244 9.42558 13.8088C9.4895 13.7932 9.55966 13.706 9.59707 13.597L9.63137 13.4958L9.63605 7.71204C9.63917 2.58548 9.63605 1.91585 9.61578 1.83487ZM4.45077 7.77433C4.44609 5.88068 4.44765 5.81061 4.49598 5.60816C4.50222 5.58792 4.40712 5.5848 3.73051 5.58324C3.30645 5.58169 2.92605 5.58636 2.88708 5.59259C2.78418 5.60972 2.72338 5.64709 2.67349 5.72028L2.6314 5.78569V7.71049V9.63528L2.67349 9.69913C2.69844 9.73651 2.74209 9.77544 2.78262 9.79568C2.84966 9.82839 2.86837 9.82839 3.67906 9.82839H4.50534L4.48039 9.74585C4.45856 9.67422 4.45545 9.44685 4.45077 7.77433ZM11.3767 6.02323C11.2791 5.9256 11.1208 5.9256 11.0232 6.02323C10.9255 6.12086 10.9255 6.27916 11.0232 6.37679L12.3464 7.70001L11.0232 9.02323C10.9255 9.12086 10.9255 9.27916 11.0232 9.37679C11.1208 9.47442 11.2791 9.47442 11.3767 9.37679L12.7 8.05356L14.0232 9.37679C14.1208 9.47442 14.2791 9.47442 14.3767 9.37679C14.4744 9.27916 14.4744 9.12086 14.3767 9.02323L13.0535 7.70001L14.3767 6.37679C14.4744 6.27916 14.4744 6.12086 14.3767 6.02323C14.2791 5.9256 14.1208 5.9256 14.0232 6.02323L12.7 7.34646L11.3767 6.02323Z" fill="url(#paint0_linear_815_3172)"/>
<defs>
<linearGradient id="paint0_linear_815_3172" x1="8.22498" y1="1" x2="8.22498" y2="14.421" gradientUnits="userSpaceOnUse">
<stop stop-color="#1F6DB5"/>
<stop offset="1" stop-color="#103B64"/>
</linearGradient>
</defs>
</svg>
