<svg width="40" height="41" viewBox="0 0 40 41" fill="none" xmlns="http://www.w3.org/2000/svg">
<path d="M27.1381 11.4111V5.53716C27.1381 4.59846 26.3366 3.83398 25.3608 3.83398H3.44422C2.46841 3.83398 1.66699 4.59846 1.66699 5.53716V29.602C1.66699 30.2243 2.05286 30.8216 2.61311 31.1061L16.1185 37.805C16.7122 38.0859 17.4208 37.6912 17.4208 37.037V30.5123H25.3571C26.3366 30.5123 27.1344 29.7443 27.1344 28.8091V19.5003H23.5799V26.2561C23.5799 26.7397 23.1978 27.1095 22.6932 27.1095H17.4542V12.6592C17.4542 12.037 17.0684 11.4396 16.5044 11.1551L8.53843 7.23677H22.6969C23.2015 7.23677 23.5836 7.60657 23.5836 8.09014V11.4396H27.1381V11.4111Z" fill="#FF8225"/>
<path d="M31.6981 8.62708L37.475 14.1633C38.2134 14.8744 38.2134 15.9233 37.475 16.6309L31.6981 22.1671C30.9561 22.8747 29.8319 22.9032 29.0898 22.1956C28.3811 21.5129 28.4665 20.3786 29.1492 19.6959L31.7538 17.2283H21.6581C21.1535 17.2283 20.6489 17.0292 20.3261 16.6594C19.495 15.8096 19.7028 14.302 20.7714 13.7366C21.0385 13.5944 21.365 13.509 21.6618 13.509H31.7575C31.7575 13.509 29.1826 11.0378 29.1529 11.0378C28.4702 10.3871 28.3848 9.22088 29.0935 8.57019C29.8022 7.89105 30.9561 7.9195 31.6981 8.62708Z" fill="#FF8225"/>
</svg>
