<svg width="24" height="24" viewBox="0 0 24 24" fill="none" xmlns="http://www.w3.org/2000/svg">
<path fill-rule="evenodd" clip-rule="evenodd" d="M4.5664 2.00013L3 2L4.15943 3.02262L4.15947 3.02265L4.15947 3.02265L4.15978 3.02292L4.16129 3.02426L4.16791 3.03012L4.19502 3.05425C4.2191 3.07574 4.25496 3.10787 4.30128 3.14973C4.39392 3.23347 4.5283 3.35606 4.69382 3.5102C5.02507 3.8187 5.47986 4.25248 5.97372 4.7533C6.97326 5.76694 8.08972 7.01241 8.69081 8.03917C9.32485 9.12223 9.64388 10.4866 9.79958 11.6146C9.83444 11.8672 9.86077 12.1052 9.88065 12.3223H6.61944C5.53819 12.3223 4.99958 13.5942 5.76807 14.3327L12.352 20.6601C12.8236 21.1133 13.5831 21.1133 14.0547 20.6601L20.6387 14.3327C21.4072 13.5942 20.8685 12.3223 19.7873 12.3223L16.3299 12.3223C16.2548 11.7925 16.1417 11.1241 15.9757 10.4022C15.5932 8.73903 14.9012 6.65783 13.6358 5.4024C13.0367 4.80805 12.2034 4.30889 11.3299 3.89539C10.4494 3.4785 9.49033 3.13125 8.60986 2.8542C7.72786 2.57667 6.91483 2.36653 6.3226 2.22576C6.02616 2.1553 5.78423 2.10203 5.61566 2.06623C5.53136 2.04833 5.46535 2.03479 5.41999 2.02563L5.36771 2.0152L5.35372 2.01246L5.34986 2.01171L5.34872 2.01149L5.34836 2.01142C5.34824 2.0114 5.34815 2.01138 5.26552 2.41651L5.26551 2.41651L5.34812 2.01138L5.28995 2.00019L5.23065 2.00019L4.5664 2.00013ZM15.2497 13.4975C15.2511 13.5135 15.2523 13.5277 15.2533 13.5399L15.2567 13.5826L15.2575 13.5926L15.2576 13.5948L15.2576 13.595C15.2576 13.595 15.2576 13.5949 15.8614 13.555C16.4651 13.5152 16.4651 13.5151 16.4651 13.5149L16.4651 13.5145L16.465 13.5133L16.4647 13.5095L16.4638 13.4975L19.7873 13.4975L13.2034 19.8248L6.61945 13.4975L9.94116 13.4975C9.94117 13.5039 9.94117 13.5096 9.94116 13.5148L9.94104 13.5402L9.94099 13.5458L9.94098 13.5467C9.94098 13.5466 9.94098 13.5465 10.5461 13.555C11.1511 13.5636 11.1511 13.5635 11.1511 13.5634L11.1511 13.563L11.1511 13.5621L11.1512 13.5593L11.1513 13.5499L11.1514 13.5167C11.1515 13.4882 11.1514 13.4473 11.1507 13.3949C11.1493 13.2903 11.1458 13.14 11.1371 12.9531C11.1198 12.5796 11.0818 12.0574 10.9991 11.4585C10.8355 10.2731 10.4899 8.73438 9.74298 7.45843C9.06188 6.29499 7.85307 4.95992 6.84789 3.94057C6.67592 3.76617 6.50864 3.59976 6.34939 3.44363C6.87931 3.57506 7.53637 3.75175 8.23676 3.97213C9.08492 4.23901 9.98679 4.56692 10.7995 4.95169C11.6194 5.33984 12.3117 5.76883 12.7708 6.22437C13.7795 7.22509 14.4165 9.01471 14.7945 10.6583C14.9795 11.4626 15.0956 12.1999 15.1655 12.7364C15.1772 12.8268 15.1877 12.9115 15.1969 12.9897V13.4975H15.2497Z" fill="#EEEEEE"/>
</svg>
