<svg width="18" height="18" viewBox="0 0 18 18" fill="none" xmlns="http://www.w3.org/2000/svg">
<path fill-rule="evenodd" clip-rule="evenodd" d="M3.5 17C2.11929 17 1 15.8807 1 14.5L1 11.5C1 11.2239 1.22386 11 1.5 11C1.77614 11 2 11.2239 2 11.5L2 14.5C2 15.3284 2.67157 16 3.5 16L14.5 16C15.3284 16 16 15.3284 16 14.5L16 11.5C16 11.2239 16.2239 11 16.5 11C16.7761 11 17 11.2239 17 11.5L17 14.5C17 15.8807 15.8807 17 14.5 17L3.5 17ZM7.5 1.5L7.5 7.25L7.5 8L7.5 8.25L5.00222 8.25L9.00002 12.2892L12.9978 8.25L10.5 8.25L10.5 8L10.5 7.25L10.5 1.5L7.5 1.5ZM11.5 7.25L11.5 1.5C11.5 0.947715 11.0523 0.5 10.5 0.5L7.5 0.5C6.94771 0.5 6.5 0.947716 6.5 1.5L6.5 7.25L5.00222 7.25C4.1138 7.25 3.66652 8.32201 4.29148 8.95345L8.28927 12.9927C8.68061 13.3881 9.31942 13.3881 9.71076 12.9927L13.7085 8.95345C14.3335 8.32201 13.8862 7.25 12.9978 7.25L11.5 7.25Z" fill="#EFEFEF"/>
</svg>
