<svg width="40" height="41" viewBox="0 0 40 41" fill="none" xmlns="http://www.w3.org/2000/svg">
<path fill-rule="evenodd" clip-rule="evenodd" d="M15.9286 8.08328V6.10027H24.0726V8.08328H15.9286ZM13.6559 8.08328V5.72256C13.6559 4.67953 14.5039 3.83398 15.5499 3.83398H24.4514C25.4974 3.83398 26.3453 4.67953 26.3453 5.72256V8.08328H35.1522C35.989 8.08328 36.6673 8.75971 36.6673 9.59413V10.2079C36.6673 11.0423 35.989 11.7188 35.1522 11.7188H32.3077L30.5212 35.7681C30.4626 36.557 29.8036 37.1673 29.0102 37.1673H10.991C10.1976 37.1673 9.53862 36.557 9.48001 35.7681L7.69352 11.7188H4.84914C4.01234 11.7188 3.33398 11.0423 3.33398 10.2079V9.59413C3.33398 8.75971 4.01234 8.08328 4.84914 8.08328H13.6559ZM30.0288 11.7188H9.97247L11.6946 34.901H28.3067L30.0288 11.7188ZM16.8757 14.2211C17.5033 14.2211 18.0121 14.7285 18.0121 15.3543V29.8963C18.0121 30.5221 17.5033 31.0295 16.8757 31.0295C16.2481 31.0295 15.7393 30.5221 15.7393 29.8963V15.3543C15.7393 14.7285 16.2481 14.2211 16.8757 14.2211ZM24.262 15.3543C24.262 14.7285 23.7532 14.2211 23.1256 14.2211C22.498 14.2211 21.9893 14.7285 21.9893 15.3543V29.8963C21.9893 30.5221 22.498 31.0295 23.1256 31.0295C23.7532 31.0295 24.262 30.5221 24.262 29.8963V15.3543Z" fill="#FF8225"/>
</svg>
