<svg width="40" height="41" viewBox="0 0 40 41" fill="none" xmlns="http://www.w3.org/2000/svg">
<path fill-rule="evenodd" clip-rule="evenodd" d="M18.6365 4.83847C19.2918 3.81166 20.7913 3.81165 21.4465 4.83847L39.5237 33.1672C40.2317 34.2766 39.4348 35.7304 38.1188 35.7304H1.9643C0.648207 35.7304 -0.148648 34.2766 0.559318 33.1672L18.6365 4.83847ZM17.7193 15.9149C17.7193 14.9944 18.4655 14.2482 19.3859 14.2482H20.6973C21.6178 14.2482 22.364 14.9944 22.364 15.9149V25.3546C22.364 26.275 21.6178 27.0212 20.6973 27.0212H19.3859C18.4655 27.0212 17.7193 26.275 17.7193 25.3546V15.9149ZM19.386 28.1825C18.4655 28.1825 17.7193 28.9286 17.7193 29.8491V31.1605C17.7193 32.081 18.4655 32.8272 19.386 32.8272H20.6973C21.6178 32.8272 22.364 32.081 22.364 31.1605V29.8491C22.364 28.9286 21.6178 28.1825 20.6973 28.1825H19.386Z" fill="#FF8225"/>
</svg>
