<svg width="24" height="24" viewBox="0 0 24 24" fill="none" xmlns="http://www.w3.org/2000/svg">
<path fill-rule="evenodd" clip-rule="evenodd" d="M2.5 4C2.22386 4 2 4.22386 2 4.5C2 4.77614 2.22386 5 2.5 5H21.4167C21.6929 5 21.9167 4.77614 21.9167 4.5C21.9167 4.22386 21.6929 4 21.4167 4H2.5ZM2.5 9.04461C2.22386 9.04461 2 9.26846 2 9.54461C2 9.82075 2.22386 10.0446 2.5 10.0446H21.4167C21.6929 10.0446 21.9167 9.82075 21.9167 9.54461C21.9167 9.26846 21.6929 9.04461 21.4167 9.04461H2.5ZM2 14.5888C2 14.3127 2.22386 14.0888 2.5 14.0888H21.4167C21.6929 14.0888 21.9167 14.3127 21.9167 14.5888C21.9167 14.865 21.6929 15.0888 21.4167 15.0888H2.5C2.22386 15.0888 2 14.865 2 14.5888ZM2.5 19.1334C2.22386 19.1334 2 19.3573 2 19.6334C2 19.9096 2.22386 20.1334 2.5 20.1334H21.4167C21.6929 20.1334 21.9167 19.9096 21.9167 19.6334C21.9167 19.3573 21.6929 19.1334 21.4167 19.1334H2.5Z" fill="#EFEFEF"/>
</svg>
