<svg width="24" height="24" viewBox="0 0 24 24" fill="none" xmlns="http://www.w3.org/2000/svg">
<path fill-rule="evenodd" clip-rule="evenodd" d="M1 7.6C1 6.91044 1.28973 6.24912 1.80546 5.76152C2.32118 5.27393 3.02065 5 3.75 5H14.0625C14.7295 4.99993 15.3738 5.22905 15.8754 5.64471C16.377 6.06036 16.7017 6.63421 16.7891 7.2594L21.0654 5.4628C21.2747 5.37462 21.504 5.3373 21.7324 5.35423C21.9609 5.37116 22.1812 5.4418 22.3735 5.55973C22.5657 5.67766 22.7237 5.83915 22.8331 6.0295C22.9425 6.21986 22.9999 6.43305 23 6.6497V16.3503C22.9998 16.5668 22.9424 16.7798 22.8331 16.97C22.7237 17.1602 22.5659 17.3216 22.3738 17.4395C22.1818 17.5574 21.9617 17.628 21.7334 17.6451C21.5052 17.6622 21.276 17.6251 21.0667 17.5372L16.7891 15.7406C16.7017 16.3658 16.377 16.9396 15.8754 17.3553C15.3738 17.7709 14.7295 18.0001 14.0625 18H3.75C3.02065 18 2.32118 17.7261 1.80546 17.2385C1.28973 16.7509 1 16.0896 1 15.4V7.6Z" fill="#EFEFEF"/>
</svg>
