<svg width="24" height="24" viewBox="0 0 24 24" fill="none" xmlns="http://www.w3.org/2000/svg">
<path fill-rule="evenodd" clip-rule="evenodd" d="M3 3C2.44772 3 2 3.44772 2 4V15.1538C2 15.7061 2.44771 16.1538 3 16.1538H20C20.5523 16.1538 21 15.7061 21 15.1538V4C21 3.44772 20.5523 3 20 3H3ZM13.3924 17.6154C13.5581 17.6154 13.6924 17.7497 13.6924 17.9154V18.7769C13.6924 18.9426 13.8267 19.0769 13.9924 19.0769H17.777C17.9427 19.0769 18.077 19.2112 18.077 19.3769V20.2384C18.077 20.4041 17.9427 20.5384 17.777 20.5384H13.6924L13.6924 20.5385L13.6923 20.5385H9.30781L9.30777 20.5385L9.30773 20.5384H5.22315C5.05747 20.5384 4.92315 20.4041 4.92315 20.2384V19.3769C4.92315 19.2112 5.05747 19.0769 5.22315 19.0769H9.00777C9.17345 19.0769 9.30777 18.9426 9.30777 18.7769V17.9154C9.30777 17.7497 9.44208 17.6154 9.60777 17.6154H13.3924Z" fill="#EFEFEF"/>
</svg>
