<svg width="15" height="15" viewBox="0 0 15 15" fill="none" xmlns="http://www.w3.org/2000/svg">
<path fill-rule="evenodd" clip-rule="evenodd" d="M11.2444 6.69231C11.4381 6.1233 11.5449 5.49984 11.5449 4.84615C11.5449 2.1697 9.75406 0 7.54492 0C5.33578 0 3.54492 2.1697 3.54492 4.84615C3.54492 5.49984 3.65175 6.1233 3.84541 6.69231H1.54492C0.992637 6.69231 0.544922 7.14002 0.544922 7.69231V13.2308C0.544922 13.7831 0.992637 14.2308 1.54492 14.2308H13.5449C14.0972 14.2308 14.5449 13.7831 14.5449 13.2308V7.69231C14.5449 7.14002 14.0972 6.69231 13.5449 6.69231H11.2444ZM9.14214 6.69231C9.52025 6.21229 9.75243 5.56207 9.75243 4.84615C9.75243 3.36908 8.7641 2.17167 7.54492 2.17167C6.32575 2.17167 5.33741 3.36908 5.33741 4.84615C5.33741 5.56207 5.56959 6.21229 5.9477 6.69231H9.14214Z" fill="#3D495D"/>
</svg>
