<svg width="24" height="24" viewBox="0 0 24 24" fill="none" xmlns="http://www.w3.org/2000/svg">
<path fill-rule="evenodd" clip-rule="evenodd" d="M21.0881 21.0835C20.5037 21.6699 19.7103 22 18.8824 22L13.5882 22C12.7603 22 11.9669 21.6699 11.3825 21.0835C10.7982 20.4972 10.4706 19.7027 10.4706 18.875L10.4706 17.8125C10.4706 17.2602 10.9183 16.8125 11.4706 16.8125C12.0229 16.8125 12.4706 17.2602 12.4706 17.8125L12.4706 18.875C12.4706 19.1745 12.5892 19.461 12.7992 19.6717C13.009 19.8823 13.2929 20 13.5882 20L18.8824 20C19.1777 20 19.4616 19.8823 19.6714 19.6717C19.8814 19.461 20 19.1745 20 18.875L20 6.125C20 5.82552 19.8814 5.53899 19.6714 5.32828C19.4616 5.11768 19.1777 5 18.8824 5L13.5882 5C13.2929 5 13.009 5.11768 12.7992 5.32828C12.5892 5.53899 12.4706 5.82551 12.4706 6.125L12.4706 7.1875C12.4706 7.73978 12.0229 8.1875 11.4706 8.1875C10.9183 8.1875 10.4706 7.73978 10.4706 7.1875L10.4706 6.125C10.4706 5.29731 10.7982 4.50283 11.3825 3.91652C11.9669 3.33008 12.7603 3 13.5882 3L18.8824 3C19.7103 3 20.5037 3.33009 21.0881 3.91652C21.6724 4.50283 22 5.29731 22 6.125L22 18.875C22 19.7027 21.6724 20.4972 21.0881 21.0835ZM6.88235 16.3958C6.49115 16.7857 5.85799 16.7846 5.46814 16.3934L2.29167 13.2059C1.90278 12.8156 1.90278 12.1844 2.29167 11.7941L5.46814 8.60662C5.85799 8.21542 6.49115 8.21432 6.88235 8.60417C7.27355 8.99401 7.27465 9.62718 6.8848 10.0184L5.40831 11.5L14.1176 11.5C14.6699 11.5 15.1176 11.9477 15.1176 12.5C15.1176 13.0523 14.6699 13.5 14.1176 13.5L5.40831 13.5L6.8848 14.9816C7.27465 15.3728 7.27355 16.006 6.88235 16.3958Z" fill="#EFEFEF"/>
</svg>
