<svg width="24" height="24" viewBox="0 0 24 24" fill="none" xmlns="http://www.w3.org/2000/svg">
<path d="M11.9834 22.733C11.6826 22.8992 11.3174 22.8992 11.0166 22.733L2.05728 17.7853C1.73857 17.6093 1.54071 17.274 1.54071 16.9099L1.54071 7.09011C1.54071 6.72603 1.73858 6.39073 2.05728 6.21472L11.0166 1.26697C11.3174 1.10082 11.6826 1.10082 11.9834 1.26697L20.9427 6.21473C21.2614 6.39073 21.4593 6.72604 21.4593 7.09011L21.4593 16.9099C21.4593 17.274 21.2614 17.6093 20.9427 17.7853L11.9834 22.733Z" fill="#68A9E5"/>
<rect x="10.0625" y="6.3125" width="2.875" height="2.875" rx="1" fill="#113B61"/>
<rect x="10.0625" y="10.625" width="2.875" height="7.1875" rx="1" fill="#113B61"/>
</svg>
