<svg width="24" height="24" viewBox="0 0 24 24" fill="none" xmlns="http://www.w3.org/2000/svg">
<path fill-rule="evenodd" clip-rule="evenodd" d="M21 20C21 20.5523 20.5523 21 20 21L14.7518 21C14.4756 21 14.2518 20.7761 14.2518 20.5C14.2518 20.2239 14.4756 20 14.7518 20L20 20L20 3.75532L14.7518 3.75532C14.4756 3.75532 14.2518 3.53146 14.2518 3.25532C14.2518 2.97917 14.4756 2.75532 14.7518 2.75532L20 2.75532C20.5523 2.75532 21 3.20303 21 3.75532L21 20ZM9.21606 14.6769L9.21606 16.653C9.21606 17.5414 8.14405 17.9887 7.51261 17.3638L2.68775 12.5884C2.29236 12.197 2.29235 11.5582 2.68775 11.1669L7.51261 6.39153C8.14405 5.76656 9.21606 6.21385 9.21606 7.10227L9.21606 9.07833L15.9762 9.07833C16.5285 9.07833 16.9762 9.52605 16.9762 10.0783L16.9762 13.6769C16.9762 14.2292 16.5285 14.6769 15.9762 14.6769L9.21606 14.6769ZM9.21606 13.6769L15.9762 13.6769L15.9762 10.0783L9.21606 10.0783L9.21606 10.1532L8.21606 10.1532L8.21606 7.10227L3.3912 11.8776L8.21606 16.653L8.21606 13.6021L9.21606 13.6021L9.21606 13.6769Z" fill="#ECEDEF"/>
</svg>
