<svg width="24" height="24" viewBox="0 0 24 24" fill="none" xmlns="http://www.w3.org/2000/svg">
<path fill-rule="evenodd" clip-rule="evenodd" d="M3 4C3 3.44772 3.44772 3 4 3H9.24823C9.52437 3 9.74823 3.22386 9.74823 3.5C9.74823 3.77614 9.52437 4 9.24823 4H4V20.2447H9.24823C9.52437 20.2447 9.74823 20.4685 9.74823 20.7447C9.74823 21.0208 9.52437 21.2447 9.24823 21.2447H4C3.44772 21.2447 3 20.797 3 20.2447V4ZM14.7839 9.32309V7.34699C14.7839 6.45857 15.856 6.01128 16.4874 6.63625L21.3122 11.4116C21.7076 11.803 21.7076 12.4418 21.3122 12.8331L16.4874 17.6085C15.856 18.2334 14.7839 17.7862 14.7839 16.8977V14.9217H8.02376C7.47148 14.9217 7.02376 14.474 7.02376 13.9217V10.3231C7.02376 9.7708 7.47148 9.32309 8.02376 9.32309H14.7839ZM14.7839 10.3231H8.02376V13.9217L14.7839 13.9217V13.8468H15.7839V16.8977L20.6088 12.1224L15.7839 7.34699V10.3979H14.7839V10.3231Z" fill="#ECEDEF"/>
</svg>
