<svg width="24" height="24" viewBox="0 0 24 24" fill="none" xmlns="http://www.w3.org/2000/svg">
<path fill-rule="evenodd" clip-rule="evenodd" d="M11.9373 5.37503C12.4895 5.37503 12.9373 5.82274 12.9373 6.37503L12.9373 14.5C12.9373 15.0523 12.4895 15.5 11.9373 15.5C11.385 15.5 10.9373 15.0523 10.9373 14.5L10.9373 6.37503C10.9373 5.82274 11.385 5.37503 11.9373 5.37503Z" fill="#EFEFEF"/>
<path d="M13.25 17.625C13.25 18.3154 12.6904 18.875 12 18.875C11.3096 18.875 10.75 18.3154 10.75 17.625C10.75 16.9346 11.3096 16.375 12 16.375C12.6904 16.375 13.25 16.9346 13.25 17.625Z" fill="#EFEFEF"/>
<path fill-rule="evenodd" clip-rule="evenodd" d="M12 21C16.9706 21 21 16.9706 21 12C21 7.02944 16.9706 3 12 3C7.02944 3 3 7.02944 3 12C3 16.9706 7.02944 21 12 21ZM12 22C17.5228 22 22 17.5228 22 12C22 6.47715 17.5228 2 12 2C6.47715 2 2 6.47715 2 12C2 17.5228 6.47715 22 12 22Z" fill="#EFEFEF"/>
</svg>
