<svg width="24" height="24" viewBox="0 0 24 24" fill="none" xmlns="http://www.w3.org/2000/svg">
<path d="M12.0133 15.3476C14.5785 15.3476 16.6678 13.7 16.6678 11.6771V11.3017V5.17044C16.6678 3.10582 14.6314 1.5 12.0133 1.5C9.448 1.5 7.35876 3.14753 7.35876 5.17044V11.3017V11.6771C7.35876 13.7 9.448 15.3476 12.0133 15.3476ZM8.68106 11.3017V5.17044C8.68106 3.73146 10.162 2.54274 12.0133 2.54274C13.8909 2.54274 15.3455 3.68975 15.3455 5.17044V11.3017V11.6771C15.3455 13.1161 13.8645 14.3048 12.0133 14.3048C10.162 14.3048 8.68106 13.137 8.68106 11.6771V11.3017Z" fill="#EFEFEF"/>
<path d="M18.8098 12.6604C18.4661 12.6604 18.2016 12.8689 18.1487 13.1192C17.7785 15.5175 15.3983 17.3736 12.4364 17.4987C10.7174 17.5821 9.07773 17.1233 7.80832 16.2057C6.69759 15.4132 6.00999 14.3079 5.85131 13.1401C5.82487 12.8689 5.53396 12.6604 5.19016 12.6604C4.79347 12.6604 4.50257 12.9315 4.52901 13.2443C4.71413 14.6833 5.56041 16.018 6.90915 16.9773C8.15211 17.8949 9.68598 18.4372 11.3521 18.5414V22.0868H9.07772C8.70748 22.0868 8.41657 22.3162 8.41657 22.6081C8.41657 22.9001 8.70748 23.1295 9.07772 23.1295H14.9487C15.319 23.1295 15.6099 22.9001 15.6099 22.6081C15.6099 22.3162 15.319 22.0868 14.9487 22.0868H12.6744V18.5414C16.2181 18.3329 19.0214 16.0806 19.471 13.2443C19.4974 12.9315 19.2065 12.6604 18.8098 12.6604Z" fill="#EFEFEF"/>
</svg>
