<svg width="18" height="18" viewBox="0 0 18 18" fill="none" xmlns="http://www.w3.org/2000/svg">
<path fill-rule="evenodd" clip-rule="evenodd" d="M1.40625 1.21875C1.40625 1.01164 1.57414 0.84375 1.78125 0.84375H1.96875H7.59375H7.78125C7.98836 0.84375 8.15625 1.01164 8.15625 1.21875V1.40625V3.11483C8.15625 3.32194 8.32414 3.48983 8.53125 3.48983H15.4688H15.6562C15.8634 3.48983 16.0312 3.65772 16.0312 3.86483V4.05233V5.44304V5.63054C16.0312 5.83765 15.8634 6.00554 15.6562 6.00554H15.2812C15.0741 6.00554 14.9062 5.83765 14.9062 5.63054V5.44304V4.98983C14.9062 4.78272 14.7384 4.61483 14.5312 4.61483H7.59375H7.40625C7.19914 4.61483 7.03125 4.44694 7.03125 4.23983V4.05233V2.34375C7.03125 2.13664 6.86336 1.96875 6.65625 1.96875H2.90625C2.69914 1.96875 2.53125 2.13664 2.53125 2.34375V15.375C2.53125 15.5821 2.69914 15.75 2.90625 15.75H3.42071C3.61637 15.75 3.77915 15.5996 3.79455 15.4045L4.47272 6.81424C4.48812 6.61918 4.6509 6.46875 4.84656 6.46875H16.7812C16.9884 6.46875 17.1562 6.63664 17.1562 6.84375V7.83198C17.1562 8.13612 16.8079 8.32008 16.5368 8.18231C15.8733 7.84516 15.1294 7.65625 14.3438 7.65625C11.5478 7.65625 9.28125 10.0487 9.28125 13C9.28125 14.3033 9.72328 15.4977 10.4577 16.4251C10.6741 16.6983 10.4936 17.1562 10.1451 17.1562H3.79731C3.72127 17.1562 3.66137 17.0914 3.66735 17.0156C3.67334 16.9398 3.61343 16.875 3.53739 16.875H1.96875H1.78125C1.57414 16.875 1.40625 16.7071 1.40625 16.5V16.3125V1.40625V1.21875ZM14.0625 9.75C14.2696 9.75 14.4375 9.91789 14.4375 10.125V11.625C14.4375 11.8321 14.6054 12 14.8125 12H16.3125C16.5196 12 16.6875 12.1679 16.6875 12.375C16.6875 12.5821 16.5196 12.75 16.3125 12.75H14.8125C14.6054 12.75 14.4375 12.9179 14.4375 13.125V14.625C14.4375 14.8321 14.2696 15 14.0625 15C13.8554 15 13.6875 14.8321 13.6875 14.625V13.125C13.6875 12.9179 13.5196 12.75 13.3125 12.75H11.8125C11.6054 12.75 11.4375 12.5821 11.4375 12.375C11.4375 12.1679 11.6054 12 11.8125 12H13.3125C13.5196 12 13.6875 11.8321 13.6875 11.625V10.125C13.6875 9.91789 13.8554 9.75 14.0625 9.75Z" fill="#EFEFEF"/>
</svg>
