<svg width="20" height="20" viewBox="0 0 20 20" fill="none" xmlns="http://www.w3.org/2000/svg">
<path d="M20 10C20 15.5228 15.5228 20 10 20C4.47715 20 0 15.5228 0 10C0 4.47715 4.47715 0 10 0C15.5228 0 20 4.47715 20 10Z" fill="#EF4F4F"/>
<path fill-rule="evenodd" clip-rule="evenodd" d="M5.13313 5.13313C5.31064 4.95562 5.59845 4.95562 5.77596 5.13313L10 9.35718L14.224 5.13313C14.4016 4.95562 14.6894 4.95562 14.8669 5.13313C15.0444 5.31064 15.0444 5.59845 14.8669 5.77596L10.6428 10L14.8669 14.224C15.0444 14.4016 15.0444 14.6894 14.8669 14.8669C14.6894 15.0444 14.4016 15.0444 14.224 14.8669L10 10.6428L5.77596 14.8669C5.59845 15.0444 5.31064 15.0444 5.13313 14.8669C4.95562 14.6894 4.95562 14.4016 5.13313 14.224L9.35718 10L5.13313 5.77596C4.95562 5.59845 4.95562 5.31064 5.13313 5.13313Z" fill="#EFEFEF" stroke="#EFEFEF" stroke-width="2" stroke-linecap="round"/>
</svg>
