<svg width="21" height="20" viewBox="0 0 21 20" fill="none" xmlns="http://www.w3.org/2000/svg">
<path d="M20 10C20 15.2467 15.7467 19.5 10.5 19.5C5.25329 19.5 1 15.2467 1 10C1 4.75329 5.25329 0.5 10.5 0.5C15.7467 0.5 20 4.75329 20 10Z" stroke="#EF4F4F"/>
<path fill-rule="evenodd" clip-rule="evenodd" d="M5.63313 5.13313C5.81064 4.95562 6.09845 4.95562 6.27596 5.13313L10.5 9.35718L14.724 5.13313C14.9016 4.95562 15.1894 4.95562 15.3669 5.13313C15.5444 5.31064 15.5444 5.59845 15.3669 5.77596L11.1428 10L15.3669 14.224C15.5444 14.4016 15.5444 14.6894 15.3669 14.8669C15.1894 15.0444 14.9016 15.0444 14.724 14.8669L10.5 10.6428L6.27596 14.8669C6.09845 15.0444 5.81064 15.0444 5.63313 14.8669C5.45562 14.6894 5.45562 14.4016 5.63313 14.224L9.85718 10L5.63313 5.77596C5.45562 5.59845 5.45562 5.31064 5.63313 5.13313Z" fill="#EF4F4F" stroke="#EF4F4F" stroke-linecap="round"/>
</svg>
