<svg width="24" height="24" viewBox="0 0 24 24" fill="none" xmlns="http://www.w3.org/2000/svg">
<path d="M21 19.2602L20.7946 19.0751C20.212 18.5448 19.702 17.9368 19.2785 17.2674C18.816 16.3435 18.5387 15.3345 18.4631 14.2997V11.2519C18.4671 9.6266 17.8899 8.05572 16.8399 6.83443C15.7899 5.61314 14.3395 4.82552 12.7611 4.61954V3.82365C12.7611 3.6052 12.6761 3.39571 12.5249 3.24124C12.3737 3.08678 12.1686 3 11.9547 3C11.7408 3 11.5357 3.08678 11.3845 3.24124C11.2333 3.39571 11.1483 3.6052 11.1483 3.82365V4.63188C9.58405 4.85271 8.15112 5.64509 7.11495 6.86228C6.07878 8.07946 5.50957 9.63896 5.51275 11.2519V14.2997C5.4371 15.3345 5.15987 16.3435 4.69732 17.2674C4.28107 17.9351 3.77931 18.5431 3.20537 19.0751L3 19.2602V21H21V19.2602Z" fill="#EFEFEF"/>
<path d="M10 22C10.0585 22.4226 10.2679 22.8097 10.5895 23.09C10.9112 23.3702 11.3234 23.5246 11.75 23.5246C12.1766 23.5246 12.5888 23.3702 12.9105 23.09C13.2321 22.8097 13.4415 22.4226 13.5 22H10Z" fill="#EFEFEF"/>
</svg>
