<svg width="24" height="24" viewBox="0 0 24 24" fill="none" xmlns="http://www.w3.org/2000/svg">
<path fill-rule="evenodd" clip-rule="evenodd" d="M16.9326 11.5897C17.1909 10.831 17.3333 9.99975 17.3333 9.12816C17.3333 5.55956 14.9455 2.66663 12 2.66663C9.05444 2.66663 6.66663 5.55956 6.66663 9.12816C6.66663 9.99975 6.80906 10.831 7.06727 11.5897H3.66663C3.11434 11.5897 2.66663 12.0374 2.66663 12.5897V20.641C2.66663 21.1933 3.11434 21.641 3.66662 21.641H20.3333C20.8856 21.641 21.3333 21.1933 21.3333 20.641V12.5897C21.3333 12.0374 20.8856 11.5897 20.3333 11.5897H16.9326ZM14.1296 11.5897C14.6337 10.9497 14.9433 10.0827 14.9433 9.12816C14.9433 7.15873 13.6255 5.56219 12 5.56219C10.3744 5.56219 9.05661 7.15873 9.05661 9.12816C9.05661 10.0827 9.36619 10.9497 9.87033 11.5897H14.1296Z" fill="#EFEFEF"/>
</svg>
