<svg width="24" height="24" viewBox="0 0 24 24" fill="none" xmlns="http://www.w3.org/2000/svg">
<path d="M23 12C23 18.0751 18.0751 23 12 23C5.92487 23 1 18.0751 1 12C1 5.92487 5.92487 1 12 1C18.0751 1 23 5.92487 23 12ZM2.04377 12C2.04377 17.4987 6.50133 21.9562 12 21.9562C17.4987 21.9562 21.9562 17.4987 21.9562 12C21.9562 6.50133 17.4987 2.04377 12 2.04377C6.50133 2.04377 2.04377 6.50133 2.04377 12Z" fill="#EFEFEF"/>
<path fill-rule="evenodd" clip-rule="evenodd" d="M10.75 7.75C10.75 7.19772 10.3023 6.75 9.75 6.75C9.19772 6.75 8.75 7.19772 8.75 7.75V15.6956C8.75 16.2479 9.19772 16.6956 9.75 16.6956C10.3023 16.6956 10.75 16.2479 10.75 15.6956V7.75ZM15.25 7.75C15.25 7.19772 14.8023 6.75 14.25 6.75C13.6977 6.75 13.25 7.19772 13.25 7.75V15.6956C13.25 16.2479 13.6977 16.6956 14.25 16.6956C14.8023 16.6956 15.25 16.2479 15.25 15.6956V7.75Z" fill="#EEEEEE"/>
</svg>
