<svg width="24" height="24" viewBox="0 0 24 24" fill="none" xmlns="http://www.w3.org/2000/svg">
<path d="M16.75 11.567C17.0833 11.7595 17.0833 12.2406 16.75 12.433L10 16.3302C9.66667 16.5226 9.25 16.282 9.25 15.8971L9.25 8.10292C9.25 7.71802 9.66667 7.47746 10 7.66991L16.75 11.567Z" fill="#EFEFEF"/>
<path d="M23 12C23 18.0751 18.0751 23 12 23C5.92487 23 1 18.0751 1 12C1 5.92487 5.92487 1 12 1C18.0751 1 23 5.92487 23 12ZM2.04377 12C2.04377 17.4987 6.50133 21.9562 12 21.9562C17.4987 21.9562 21.9562 17.4987 21.9562 12C21.9562 6.50133 17.4987 2.04377 12 2.04377C6.50133 2.04377 2.04377 6.50133 2.04377 12Z" fill="#EFEFEF"/>
</svg>
