<svg width="24" height="24" viewBox="0 0 24 24" fill="none" xmlns="http://www.w3.org/2000/svg">
<path fill-rule="evenodd" clip-rule="evenodd" d="M1 2C1 1.44772 1.44772 1 2 1H22C22.5523 1 23 1.44772 23 2V15C23 15.5523 22.5523 16 22 16H2C1.44772 16 1 15.5523 1 15V2ZM3 3V14H21V3H3Z" fill="#EFEFEF"/>
<path fill-rule="evenodd" clip-rule="evenodd" d="M10.5281 5.61833C10.8533 5.44431 11.2478 5.46338 11.5547 5.66795L14.5547 7.66795C14.8329 7.85342 15 8.16565 15 8.5C15 8.83435 14.8329 9.14659 14.5547 9.33205L11.5547 11.3321C11.2478 11.5366 10.8533 11.5557 10.5281 11.3817C10.203 11.2077 10 10.8688 10 10.5V6.5C10 6.13121 10.203 5.79235 10.5281 5.61833ZM12 8.36852V8.63148L12.1972 8.5L12 8.36852ZM7 19C6.86739 19 6.74022 19.0527 6.64645 19.1464C6.55268 19.2402 6.5 19.3674 6.5 19.5C6.5 19.5657 6.51293 19.6307 6.53806 19.6913C6.56319 19.752 6.60002 19.8071 6.64645 19.8536C6.69287 19.9 6.74799 19.9368 6.80866 19.9619C6.86932 19.9871 6.93434 20 7 20C7.06566 20 7.13068 19.9871 7.19134 19.9619C7.25201 19.9368 7.30713 19.9 7.35355 19.8536C7.39998 19.8071 7.43681 19.752 7.46194 19.6913C7.48707 19.6307 7.5 19.5657 7.5 19.5C7.5 19.3674 7.44732 19.2402 7.35355 19.1464C7.25978 19.0527 7.13261 19 7 19ZM5.23223 17.7322C5.70107 17.2634 6.33696 17 7 17C7.66304 17 8.29893 17.2634 8.76777 17.7322C8.99088 17.9554 9.16747 18.2163 9.29129 18.5H21C21.5523 18.5 22 18.9477 22 19.5C22 20.0523 21.5523 20.5 21 20.5H9.29129C9.16635 20.7863 8.98882 21.0467 8.76777 21.2678C8.53562 21.4999 8.26002 21.6841 7.95671 21.8097C7.6534 21.9353 7.32831 22 7 22C6.67169 22 6.3466 21.9353 6.04329 21.8097C5.73998 21.6841 5.46438 21.4999 5.23223 21.2678C5.01118 21.0467 4.83365 20.7863 4.70871 20.5H3C2.44772 20.5 2 20.0523 2 19.5C2 18.9477 2.44772 18.5 3 18.5H4.70871C4.83253 18.2163 5.00912 17.9554 5.23223 17.7322Z" fill="#EFEFEF"/>
</svg>
