<svg width="24" height="24" viewBox="0 0 24 24" fill="none" xmlns="http://www.w3.org/2000/svg">
<path fill-rule="evenodd" clip-rule="evenodd" d="M13.8709 11.8749C16.1582 11.8749 18.0125 10.0206 18.0125 7.73329C18.0125 5.44594 16.1582 3.59167 13.8709 3.59167C11.5835 3.59167 9.72928 5.44594 9.72928 7.73329C9.72928 10.0206 11.5835 11.8749 13.8709 11.8749ZM19.7875 14.8332C17.4206 12.4665 10.3208 12.4665 7.95435 14.8332C6.73295 16.0547 6.70177 18.6578 6.74342 19.7065C6.75364 19.9637 6.96747 20.1581 7.22489 20.1581H20.5114C20.7712 20.1581 20.9862 19.9601 20.994 19.7005C21.0256 18.641 20.9741 16.0196 19.7875 14.8332Z" fill="#EEEEEE"/>
<path fill-rule="evenodd" clip-rule="evenodd" d="M10.9126 10.8847C10.3746 11.1402 9.77282 11.2832 9.13762 11.2832C6.85027 11.2832 4.996 9.42896 4.996 7.14161C4.996 4.85426 6.85027 3 9.13762 3C9.77282 3 10.3746 3.143 10.9126 3.39856C9.51334 4.06326 8.54594 5.48946 8.54594 7.14161C8.54594 8.79376 9.51334 10.22 10.9126 10.8847ZM10.9124 12.5798C8.04242 12.2053 4.70327 12.7591 3.22107 14.2415C1.99968 15.463 1.96849 18.0662 2.01015 19.1148C2.02036 19.372 2.23419 19.5664 2.49161 19.5664H6.04155C5.78413 19.5664 5.5703 19.372 5.56008 19.1148C5.51843 18.0662 5.54961 15.463 6.77101 14.2415C7.65524 13.3572 9.20033 12.8033 10.9124 12.5798Z" fill="#EEEEEE"/>
</svg>
