<svg width="24" height="24" viewBox="0 0 24 24" fill="none" xmlns="http://www.w3.org/2000/svg">
<path fill-rule="evenodd" clip-rule="evenodd" d="M15.5 3C15.5 2.72386 15.7239 2.5 16 2.5H21C21.2761 2.5 21.5 2.72386 21.5 3V8C21.5 8.27614 21.2761 8.5 21 8.5C20.7239 8.5 20.5 8.27614 20.5 8V3.5H16C15.7239 3.5 15.5 3.27614 15.5 3Z" fill="#EFEFEF"/>
<path fill-rule="evenodd" clip-rule="evenodd" d="M9 9.5C9.27614 9.5 9.5 9.72386 9.5 10V14.5H14C14.2761 14.5 14.5 14.7239 14.5 15C14.5 15.2761 14.2761 15.5 14 15.5H9C8.72386 15.5 8.5 15.2761 8.5 15V10C8.5 9.72386 8.72386 9.5 9 9.5Z" fill="#EFEFEF"/>
<path fill-rule="evenodd" clip-rule="evenodd" d="M21.3535 2.64645C21.5488 2.84171 21.5488 3.15829 21.3535 3.35355L9.85368 14.8534C9.65841 15.0487 9.34183 15.0487 9.14657 14.8534C8.95131 14.6581 8.95131 14.3415 9.14657 14.1463L20.6464 2.64645C20.8417 2.45118 21.1583 2.45118 21.3535 2.64645Z" fill="#EFEFEF"/>
<path fill-rule="evenodd" clip-rule="evenodd" d="M2.5 3.99999C2.5 3.17157 3.17157 2.5 3.99999 2.5H10.9999C11.276 2.5 11.4999 2.72386 11.4999 3C11.4999 3.27614 11.276 3.5 10.9999 3.5H3.99999C3.72385 3.5 3.5 3.72385 3.5 3.99999V19.9998C3.5 20.2759 3.72385 20.4998 3.99999 20.4998H19.9998C20.2759 20.4998 20.4998 20.2759 20.4998 19.9998V12.9999C20.4998 12.7237 20.7236 12.4999 20.9998 12.4999C21.2759 12.4999 21.4998 12.7237 21.4998 12.9999V19.9998C21.4998 20.8282 20.8282 21.4998 19.9998 21.4998H3.99999C3.17157 21.4998 2.5 20.8282 2.5 19.9998V3.99999Z" fill="#EFEFEF"/>
</svg>
