<svg width="24" height="24" viewBox="0 0 24 24" fill="none" xmlns="http://www.w3.org/2000/svg">
<path fill-rule="evenodd" clip-rule="evenodd" d="M17.7966 15.4776C18.7347 13.9852 19.2794 12.2059 19.2794 10.2954C19.2794 5.02364 15.1315 0.75 10.0147 0.75C4.89795 0.75 0.75 5.02364 0.75 10.2954C0.75 15.5672 4.89795 19.8409 10.0147 19.8409C12.2092 19.8409 14.2255 19.0548 15.8127 17.741L20.1883 22.2492C20.7653 22.8437 21.715 22.8579 22.3094 22.2809C22.9039 21.7039 22.9181 20.7543 22.3411 20.1598L17.7966 15.4776ZM10.0147 16.4306C6.72601 16.4306 4.05999 13.6838 4.05999 10.2954C4.05999 6.90709 6.72601 4.16029 10.0147 4.16029C13.3034 4.16029 15.9694 6.90709 15.9694 10.2954C15.9694 13.6838 13.3034 16.4306 10.0147 16.4306Z" fill="#EFEFEF"/>
</svg>
