<svg width="24" height="24" viewBox="0 0 24 24" fill="none" xmlns="http://www.w3.org/2000/svg">
<path d="M22.7574 10.311L20.3346 9.58449C20.1667 8.98649 19.9309 8.40964 19.6319 7.86517L20.8434 5.61311C20.8902 5.52952 20.9073 5.43255 20.8919 5.338C20.8765 5.24344 20.8295 5.1569 20.7586 5.09247L19.002 3.32472C18.9343 3.25892 18.8481 3.21549 18.7549 3.20033C18.6617 3.18516 18.5661 3.19901 18.4811 3.23997L16.2399 4.45076C15.6882 4.15125 15.1079 3.90787 14.5076 3.72428L13.7686 1.30271C13.7361 1.21342 13.6767 1.13639 13.5986 1.08219C13.5205 1.02799 13.4275 0.999282 13.3325 1.00001H10.8127C10.7182 1.00265 10.6269 1.03427 10.551 1.09059C10.4751 1.14691 10.4185 1.2252 10.3887 1.31482L9.6618 3.73639C9.04984 3.91435 8.46043 4.16217 7.90522 4.47497L5.71252 3.26418C5.62727 3.2189 5.52994 3.20155 5.43428 3.21459C5.33863 3.22763 5.24949 3.27039 5.17949 3.33683L3.39867 5.08036C3.32855 5.1479 3.28235 5.23643 3.26705 5.33255C3.25175 5.42867 3.26819 5.52716 3.31387 5.61311L4.52531 7.81674C4.20078 8.36363 3.93675 8.94419 3.73788 9.54816L1.315 10.2867C1.22335 10.3132 1.14292 10.369 1.08603 10.4456C1.02914 10.5221 0.998927 10.6152 1.00003 10.7105V13.1926C0.998927 13.288 1.02914 13.3811 1.08603 13.4576C1.14292 13.5341 1.22335 13.5899 1.315 13.6164L3.73788 14.355C3.91948 14.948 4.16312 15.5202 4.46474 16.0622L3.2533 18.3627C3.20762 18.4486 3.19118 18.5471 3.20648 18.6432C3.22178 18.7394 3.26798 18.8279 3.3381 18.8954L5.14314 20.6511C5.21315 20.7175 5.30228 20.7603 5.39794 20.7733C5.49359 20.7864 5.59093 20.769 5.67618 20.7237L7.94156 19.5129C8.48068 19.8027 9.04925 20.0341 9.63758 20.2031L10.3644 22.6852C10.3949 22.7767 10.4534 22.8564 10.5317 22.9129C10.61 22.9694 10.704 22.9999 10.8006 23H13.284C13.3785 22.9974 13.4698 22.9657 13.5457 22.9094C13.6215 22.8531 13.6782 22.7748 13.708 22.6852L14.4349 20.2031C15.0162 20.0362 15.5769 19.8047 16.1066 19.5129L18.3963 20.7237C18.4815 20.769 18.5788 20.7864 18.6745 20.7733C18.7702 20.7603 18.8593 20.7175 18.9293 20.6511L20.698 18.8954C20.7645 18.8255 20.8073 18.7364 20.8203 18.6408C20.8333 18.5452 20.816 18.4479 20.7707 18.3627L19.5592 16.0864C19.849 15.556 20.0806 14.9957 20.2498 14.4155L22.6726 13.6769C22.7637 13.6477 22.8437 13.5915 22.9021 13.5158C22.9605 13.4402 22.9945 13.3486 22.9997 13.2532V10.7468C23.0027 10.6591 22.9817 10.5721 22.939 10.4953C22.8963 10.4186 22.8336 10.3548 22.7574 10.311V10.311ZM12.0604 16.0259C11.2597 16.0283 10.4762 15.7931 9.80921 15.3502C9.14222 14.9073 8.62173 14.2766 8.31362 13.5378C8.00552 12.7991 7.92366 11.9856 8.07841 11.2003C8.23316 10.4151 8.61757 9.69337 9.18295 9.12659C9.74834 8.55982 10.4693 8.17346 11.2545 8.01643C12.0397 7.85941 12.8539 7.93878 13.5939 8.24451C14.334 8.55023 14.9666 9.06855 15.4118 9.73385C15.8569 10.3991 16.0945 11.1815 16.0945 11.9818C16.0945 13.0523 15.6699 14.0791 14.9137 14.8371C14.1575 15.5952 13.1315 16.0227 12.0604 16.0259Z" fill="#EFEFEF"/>
</svg>
