<svg width="24" height="24" viewBox="0 0 24 24" fill="none" xmlns="http://www.w3.org/2000/svg">
<path fill-rule="evenodd" clip-rule="evenodd" d="M8.56243 5.49987C8.56243 4.67136 9.23408 4 10.0624 4L14.4132 4C15.2416 4 15.9132 4.67157 15.9132 5.5V7.17541H20.5522C21.3806 7.17541 22.0522 7.84698 22.0522 8.67541L22.0522 19.3769C22.0522 20.2053 21.3806 20.8769 20.5522 20.8769L3.5 20.8769C2.67158 20.8769 2 20.2053 2 19.3769L2 8.67541C2 7.84698 2.67157 7.17541 3.5 7.17541L8.56243 7.17541V5.49987ZM15.4132 8.17537C15.4257 8.17537 15.4381 8.17491 15.4504 8.174C15.4628 8.17494 15.4754 8.17541 15.4881 8.17541L20.5522 8.17541C20.8284 8.17541 21.0522 8.39927 21.0522 8.67541L21.0522 19.3769C21.0522 19.653 20.8284 19.8769 20.5522 19.8769H3.5C3.22386 19.8769 3 19.653 3 19.3769L3 8.67541C3 8.39927 3.22386 8.17541 3.5 8.17541H8.98141C8.99513 8.17541 9.00873 8.17486 9.02217 8.17377C9.03545 8.17483 9.04887 8.17537 9.06243 8.17537C9.33857 8.17537 9.56243 7.95151 9.56243 7.67537V5.49987C9.56243 5.22381 9.7862 5 10.0624 5L14.4132 5C14.6893 5 14.9132 5.22386 14.9132 5.5V7.67537C14.9132 7.95151 15.137 8.17537 15.4132 8.17537ZM12 18C14.2091 18 16 16.2091 16 14C16 11.7909 14.2091 10 12 10C9.79086 10 8 11.7909 8 14C8 16.2091 9.79086 18 12 18ZM12 16.9889C10.3493 16.9889 9.0111 15.6507 9.0111 14C9.0111 12.3493 10.3493 11.0111 12 11.0111C13.6507 11.0111 14.9889 12.3493 14.9889 14C14.9889 15.6507 13.6507 16.9889 12 16.9889Z" fill="#EFEFEF"/>
</svg>
