<svg width="24" height="24" viewBox="0 0 24 24" fill="none" xmlns="http://www.w3.org/2000/svg">
<path fill-rule="evenodd" clip-rule="evenodd" d="M22 12C22 17.5228 17.5228 22 12 22C6.47715 22 2 17.5228 2 12C2 6.47715 6.47715 2 12 2C17.5228 2 22 6.47715 22 12ZM23 12C23 18.0751 18.0751 23 12 23C5.92487 23 1 18.0751 1 12C1 5.92487 5.92487 1 12 1C18.0751 1 23 5.92487 23 12ZM9.1208 6.00569L9.20079 6C9.34577 6.00001 9.48664 6.05332 9.59591 6.15008C9.70517 6.24684 9.77623 6.3805 9.79595 6.52634L9.80075 6.60919V16.9216L12.3757 14.3054C12.4774 14.202 12.6122 14.1391 12.7557 14.1282C12.8991 14.1173 13.0416 14.1592 13.1573 14.2461L13.2245 14.3045C13.3263 14.4077 13.3882 14.5446 13.3989 14.6903C13.4096 14.836 13.3684 14.9807 13.2829 15.0981L13.2253 15.1664L9.62796 18.8215C9.52638 18.9247 9.3917 18.9874 9.24843 18.9983C9.10515 19.0092 8.96279 18.9675 8.84722 18.8808L8.78003 18.8223L5.17712 15.1672C5.0695 15.0586 5.00637 14.9127 5.00046 14.7587C4.99454 14.6048 5.04627 14.4543 5.14523 14.3376C5.24419 14.2208 5.38303 14.1465 5.53381 14.1295C5.68459 14.1125 5.8361 14.1542 5.95786 14.2461L6.02505 14.3045L8.60084 16.9184V6.60919C8.6009 6.46174 8.65363 6.31931 8.74925 6.20833C8.84486 6.09735 8.97688 6.02535 9.1208 6.00569ZM11.5763 6.58456C11.6889 6.47031 11.8414 6.40613 12.0006 6.40613H18.4C18.5592 6.40613 18.7118 6.47031 18.8243 6.58456C18.9368 6.6988 19 6.85376 19 7.01532C19 7.17689 18.9368 7.33184 18.8243 7.44609C18.7118 7.56034 18.5592 7.62452 18.4 7.62452H12.0006C11.8414 7.62452 11.6889 7.56034 11.5763 7.44609C11.4638 7.33184 11.4006 7.17689 11.4006 7.01532C11.4006 6.85376 11.4638 6.6988 11.5763 6.58456ZM11.5763 9.02134C11.4638 9.13558 11.4006 9.29054 11.4006 9.4521C11.4006 9.61367 11.4638 9.76862 11.5763 9.88287C11.6889 9.99712 11.8414 10.0613 12.0006 10.0613H16.0002C16.1594 10.0613 16.312 9.99712 16.4245 9.88287C16.537 9.76862 16.6002 9.61367 16.6002 9.4521C16.6002 9.29054 16.537 9.13558 16.4245 9.02134C16.312 8.90709 16.1594 8.84291 16.0002 8.84291H12.0006C11.8414 8.84291 11.6889 8.90709 11.5763 9.02134ZM11.5763 11.4581C11.6889 11.3439 11.8414 11.2797 12.0006 11.2797H13.6004C13.7596 11.2797 13.9122 11.3439 14.0247 11.4581C14.1372 11.5724 14.2004 11.7273 14.2004 11.8889C14.2004 12.0505 14.1372 12.2054 14.0247 12.3196C13.9122 12.4339 13.7596 12.4981 13.6004 12.4981H12.0006C11.8414 12.4981 11.6889 12.4339 11.5763 12.3196C11.4638 12.2054 11.4006 12.0505 11.4006 11.8889C11.4006 11.7273 11.4638 11.5724 11.5763 11.4581Z" fill="#EFEFEF"/>
</svg>
