<svg width="24" height="24" viewBox="0 0 24 24" fill="none" xmlns="http://www.w3.org/2000/svg">
<path d="M9 8C8.44772 8 8 8.44772 8 9V15C8 15.5523 8.44772 16 9 16H15C15.5523 16 16 15.5523 16 15V9C16 8.44772 15.5523 8 15 8H9Z" fill="#EFEFEF"/>
<path fill-rule="evenodd" clip-rule="evenodd" d="M12 23C18.0751 23 23 18.0751 23 12C23 5.92487 18.0751 1 12 1C5.92487 1 1 5.92487 1 12C1 18.0751 5.92487 23 12 23ZM12 21.9562C6.50133 21.9562 2.04377 17.4987 2.04377 12C2.04377 6.50133 6.50133 2.04377 12 2.04377C17.4987 2.04377 21.9562 6.50133 21.9562 12C21.9562 17.4987 17.4987 21.9562 12 21.9562Z" fill="#EFEFEF"/>
</svg>
