<svg width="24" height="24" viewBox="0 0 24 24" fill="none" xmlns="http://www.w3.org/2000/svg">
<path d="M9.90123 10.7497C9.90123 8.76063 10.6148 6.85305 11.8848 5.44658C13.1549 4.0401 14.8775 3.24996 16.6737 3.24996H17.2381C17.3878 3.24996 17.5313 3.18411 17.6372 3.0669C17.743 2.9497 17.8025 2.79073 17.8025 2.62498C17.8025 2.45922 17.743 2.30026 17.6372 2.18305C17.5313 2.06585 17.3878 2 17.2381 2H16.6737C14.5782 2 12.5685 2.92184 11.0867 4.56272C9.60493 6.20361 8.77248 8.42913 8.77248 10.7497V11.9996C8.77248 12.3312 8.65356 12.6491 8.44188 12.8835C8.2302 13.1179 7.9431 13.2496 7.64373 13.2496H6.62786L7.75322 14.4971C8.33238 14.4659 8.87851 14.1892 9.27841 13.7242C9.67832 13.2593 9.90133 12.6417 9.90123 11.9996V10.7497ZM2.56437 16.9995C2.41469 16.9995 2.27114 17.0653 2.1653 17.1825C2.05946 17.2997 2 17.4587 2 17.6244C2 17.7902 2.05946 17.9492 2.1653 18.0664C2.27114 18.1836 2.41469 18.2494 2.56437 18.2494H6.72268L4.29926 20.9318C4.24678 20.9898 4.20515 21.0588 4.17672 21.1346C4.14829 21.2104 4.13363 21.2917 4.13358 21.3739C4.13348 21.5397 4.19287 21.6988 4.29869 21.8162C4.40452 21.9335 4.54811 21.9995 4.69787 21.9996C4.84764 21.9998 4.99131 21.934 5.09728 21.8168L8.47111 18.0794C8.52746 18.0211 8.57239 17.9505 8.60311 17.8722C8.63383 17.7938 8.64968 17.7093 8.64968 17.6238C8.64968 17.5384 8.63383 17.4539 8.60311 17.3755C8.57239 17.2971 8.52746 17.2266 8.47111 17.1682L5.09728 13.4321C4.99131 13.3149 4.84764 13.2491 4.69787 13.2493C4.54811 13.2494 4.40452 13.3154 4.29869 13.4327C4.19287 13.5501 4.13348 13.7092 4.13358 13.875C4.13369 14.0409 4.19328 14.1999 4.29926 14.3171L6.72268 16.9995H2.56437ZM13.2875 12.6246C13.2873 13.8212 12.9428 14.9866 12.3038 15.9516C11.6648 16.9165 10.7647 17.6308 9.73417 17.9907C9.79558 17.5618 9.74789 17.1225 9.59647 16.722C10.3493 16.4088 10.998 15.8488 11.4558 15.1167C11.9136 14.3846 12.1589 13.5152 12.1587 12.6246V11.3747C12.1587 9.88288 12.6939 8.45219 13.6464 7.39733C14.599 6.34248 15.891 5.74987 17.2381 5.74987H21.7531C21.9028 5.74987 22.0463 5.81571 22.1521 5.93292C22.258 6.05012 22.3174 6.20909 22.3174 6.37484C22.3174 6.5406 22.258 6.69956 22.1521 6.81677C22.0463 6.93398 21.9028 6.99982 21.7531 6.99982H17.2381C16.1903 6.99982 15.1855 7.46074 14.4446 8.28118C13.7037 9.10163 13.2875 10.2144 13.2875 11.3747V12.6246ZM17.8025 10.7497C17.5031 10.7497 17.216 10.8814 17.0043 11.1158C16.7926 11.3502 16.6737 11.6681 16.6737 11.9996V13.2496C16.6737 15.5702 15.8413 17.7957 14.3595 19.4366C12.8777 21.0774 10.868 21.9993 8.77248 21.9993H8.20811C8.05843 21.9993 7.91488 21.9334 7.80904 21.8162C7.7032 21.699 7.64373 21.5401 7.64373 21.3743C7.64373 21.2086 7.7032 21.0496 7.80904 20.9324C7.91488 20.8152 8.05843 20.7493 8.20811 20.7493H8.77248C10.5687 20.7493 12.2913 19.9592 13.5613 18.5527C14.8314 17.1462 15.545 15.2387 15.545 13.2496V11.9996C15.545 11.3366 15.7828 10.7008 16.2062 10.2319C16.6295 9.76312 17.2037 9.49973 17.8025 9.49973H21.7531C21.9028 9.49973 22.0463 9.56558 22.1521 9.68278C22.258 9.79999 22.3174 9.95896 22.3174 10.1247C22.3174 10.2905 22.258 10.4494 22.1521 10.5666C22.0463 10.6838 21.9028 10.7497 21.7531 10.7497H17.8025Z" fill="#EFEFEF"/>
</svg>
