<svg width="24" height="24" viewBox="0 0 24 24" fill="none" xmlns="http://www.w3.org/2000/svg">
<path d="M24 12C24 18.6274 18.6274 24 12 24C5.37258 24 0 18.6274 0 12C0 5.37258 5.37258 0 12 0C18.6274 0 24 5.37258 24 12Z" fill="#41C967"/>
<path fill-rule="evenodd" clip-rule="evenodd" d="M16.6456 5.646C17.3934 6.00252 17.7105 6.89773 17.354 7.64552L12.9658 16.8496C12.2973 18.2518 10.3552 18.3898 9.49507 17.0963L6.75097 12.9694C6.29226 12.2796 6.47964 11.3485 7.16949 10.8898C7.85933 10.4311 8.79041 10.6185 9.24911 11.3083L11.0168 13.9667L14.6461 6.35445C15.0026 5.60666 15.8978 5.28948 16.6456 5.646Z" fill="#F0F2F5"/>
</svg>
