<svg width="24" height="24" viewBox="0 0 24 24" fill="none" xmlns="http://www.w3.org/2000/svg">
<path fill-rule="evenodd" clip-rule="evenodd" d="M11.9953 10.0939C10.8814 10.0939 9.99683 10.9844 9.99683 12.0603C9.99683 13.1363 10.8814 14.0268 11.9953 14.0268C13.1092 14.0268 13.9938 13.1363 13.9938 12.0603C13.9938 10.9844 13.1092 10.0939 11.9953 10.0939ZM7.99683 12.0603C7.99683 9.85961 9.79718 8.09387 11.9953 8.09387C14.1935 8.09387 15.9938 9.85961 15.9938 12.0603C15.9938 14.261 14.1935 16.0268 11.9953 16.0268C9.79718 16.0268 7.99683 14.261 7.99683 12.0603Z" fill="#EFEFEF"/>
<path fill-rule="evenodd" clip-rule="evenodd" d="M9.38647 3.9976C9.18945 3.67484 8.77495 3.57778 8.47425 3.75477L8.45968 3.76318L6.73054 4.74211C6.30443 4.983 6.16454 5.52244 6.40175 5.92861L5.53823 6.43292L6.40105 5.92741C6.96413 6.8885 7.14467 7.99624 6.60222 8.92748C6.06219 9.85458 5.01199 10.251 3.89905 10.251C3.39514 10.251 3 10.6604 3 11.1298V12.8701C3 13.3395 3.39514 13.7489 3.89905 13.7489C5.01199 13.7489 6.06219 14.1453 6.60222 15.0724C7.14449 16.0034 6.96425 17.1107 6.40161 18.0715C6.1646 18.4777 6.30398 19.0166 6.73 19.2575L8.45968 20.2367L8.47425 20.2451C8.77496 20.4221 9.18947 20.3251 9.38648 20.0023L9.49274 19.8207C10.0565 18.8585 10.9326 18.1614 12.0037 18.1614C13.0757 18.1614 13.9493 18.8589 14.5083 19.8225L14.5094 19.8244L14.6135 20.0023C14.8105 20.3251 15.225 20.4221 15.5257 20.2451L15.5403 20.2367L17.2695 19.2578C17.6937 19.018 17.8375 18.488 17.597 18.0691C17.0354 17.1088 16.856 16.0026 17.3978 15.0724C17.9378 14.1453 18.988 13.7489 20.1009 13.7489C20.6049 13.7489 21 13.3395 21 12.8701V11.1298C21 10.6573 20.6017 10.251 20.1009 10.251C18.988 10.251 17.9378 9.85458 17.3978 8.92748C16.8555 7.99653 17.0357 6.88918 17.5984 5.9283C17.8354 5.52216 17.696 4.98324 17.27 4.74241L15.5403 3.76318L15.5257 3.75477C15.225 3.57778 14.8105 3.67484 14.6135 3.9976L14.5072 4.1792C13.9435 5.14145 13.0674 5.83846 11.9962 5.83846C10.9243 5.83846 10.0507 5.14106 9.49174 4.17749L9.38647 3.9976ZM7.46786 2.02642C8.74388 1.28131 10.3609 1.73713 11.1028 2.9709L11.109 2.98114L11.2211 3.17277C11.5617 3.7606 11.877 3.83846 11.9962 3.83846C12.117 3.83846 12.4356 3.75881 12.7814 3.16862L12.8971 2.97086C13.639 1.7371 15.2561 1.28131 16.5321 2.02641L18.2542 3.00137C19.6472 3.78885 20.1276 5.56354 19.3253 6.93724L19.3246 6.93843C18.9781 7.52979 19.0737 7.8311 19.126 7.92082C19.1806 8.01467 19.4048 8.25105 20.1009 8.25105C21.6791 8.25105 23 9.52575 23 11.1298V12.8701C23 14.4575 21.696 15.7489 20.1009 15.7489C19.4048 15.7489 19.1806 15.9852 19.126 16.0791C19.0737 16.1688 18.9781 16.4701 19.3246 17.0615L19.3277 17.0668C20.1251 18.4473 19.6484 20.2104 18.2542 20.9985L16.5321 21.9735C15.2561 22.7186 13.6391 22.2628 12.8971 21.029L12.891 21.0188L12.7811 20.8309L12.7789 20.8271C12.4383 20.2393 12.123 20.1614 12.0037 20.1614C11.883 20.1614 11.5644 20.2411 11.2186 20.8313L11.1029 21.029C10.361 22.2628 8.74392 22.7186 7.46791 21.9735L5.74575 20.9985C4.35277 20.2111 3.87244 18.4364 4.67471 17.0627L4.67541 17.0615C5.02187 16.4701 4.9263 16.1688 4.87404 16.0791C4.81937 15.9852 4.59521 15.7489 3.89905 15.7489C2.30401 15.7489 1 14.4575 1 12.8701V11.1298C1 9.54244 2.30401 8.25105 3.89905 8.25105C4.59521 8.25105 4.81937 8.01467 4.87404 7.92082C4.9263 7.8311 5.02187 7.52979 4.67541 6.93843L4.67471 6.93724C3.87254 5.56371 4.35265 3.7893 5.74522 3.00167L7.46786 2.02642Z" fill="#EFEFEF"/>
</svg>
