<svg width="24" height="24" viewBox="0 0 24 24" fill="none" xmlns="http://www.w3.org/2000/svg">
<path fill-rule="evenodd" clip-rule="evenodd" d="M2.7282 4.31464C2.34969 3.91246 1.71681 3.89329 1.31464 4.2718C0.912464 4.65032 0.893286 5.28319 1.2718 5.68537L8.95624 13.8501C8.68131 13.7826 8.39393 13.7468 8.09819 13.7468C6.11696 13.7468 4.51085 15.3529 4.51085 17.3342C4.51085 19.3154 6.11696 20.9215 8.09819 20.9215C10.0794 20.9215 11.6855 19.3154 11.6855 17.3342C11.6855 16.7397 11.5409 16.179 11.285 15.6853C11.5621 15.7244 11.8458 15.7054 12.1165 15.6283C11.8417 16.1357 11.6857 16.7167 11.6857 17.3342C11.6857 19.3154 13.2918 20.9215 15.273 20.9215C17.2543 20.9215 18.8604 19.3154 18.8604 17.3342C18.8604 15.3529 17.2543 13.7468 15.273 13.7468C14.856 13.7468 14.4556 13.818 14.0833 13.9488L21.8607 5.68537C22.2392 5.28319 22.22 4.65032 21.8178 4.2718C21.4157 3.89329 20.7828 3.91246 20.4043 4.31464L11.5662 13.7051L2.7282 4.31464ZM8.09819 19.4215C9.25099 19.4215 10.1855 18.487 10.1855 17.3342C10.1855 16.1814 9.25099 15.2468 8.09819 15.2468C6.94538 15.2468 6.01085 16.1814 6.01085 17.3342C6.01085 18.487 6.94538 19.4215 8.09819 19.4215ZM15.273 19.4215C16.4259 19.4215 17.3604 18.487 17.3604 17.3342C17.3604 16.1814 16.4259 15.2468 15.273 15.2468C14.1202 15.2468 13.1857 16.1814 13.1857 17.3342C13.1857 18.487 14.1202 19.4215 15.273 19.4215Z" fill="#EFEFEF"/>
</svg>
