<svg width="26" height="26" viewBox="0 0 26 26" fill="none" xmlns="http://www.w3.org/2000/svg">
<path fill-rule="evenodd" clip-rule="evenodd" d="M13 1.5C6.64873 1.5 1.5 6.64872 1.5 13C1.5 19.3513 6.64873 24.5 13 24.5C19.3513 24.5 24.5 19.3513 24.5 13C24.5 6.64873 19.3513 1.5 13 1.5ZM13 0.499999C6.09644 0.499998 0.500002 6.09644 0.500001 13C0.5 19.9036 6.09644 25.5 13 25.5C19.9036 25.5 25.5 19.9036 25.5 13C25.5 6.09644 19.9036 0.5 13 0.499999ZM19.75 12.067C20.0833 12.2594 20.0833 12.7406 19.75 12.933L13.75 16.3971C13.4167 16.5896 13 16.349 13 15.9641L13 13.366L7.75 16.3971C7.41667 16.5896 7 16.349 7 15.9641L7 9.0359C7 8.651 7.41667 8.41044 7.75 8.60288L13 11.634L13 9.0359C13 8.651 13.4167 8.41044 13.75 8.60289L19.75 12.067Z" fill="#EFEFEF"/>
</svg>
