<svg width="17" height="14" viewBox="0 0 17 14" fill="none" xmlns="http://www.w3.org/2000/svg">
<path fill-rule="evenodd" clip-rule="evenodd" d="M7.84492 7.5C9.77792 7.5 11.3449 5.433 11.3449 3.5C11.3449 1.567 9.77792 0 7.84492 0C5.91193 0 4.34492 1.567 4.34492 3.5C4.34492 5.433 5.91193 7.5 7.84492 7.5ZM5.24152 8.25652C3.92873 7.97336 3.11882 7.79868 1.41317 9.0955C0.0761938 10.112 0.0124233 12.2393 0.0530103 13.1578C0.0641221 13.4092 0.274788 13.5955 0.526493 13.5955H15.5637C15.8184 13.5955 16.0306 13.4049 16.0387 13.1503C16.0683 12.2212 15.9838 10.0802 14.684 9.0955C12.8504 7.70654 11.9799 7.91759 10.6839 8.2318C9.99412 8.39904 9.18384 8.59549 8.0437 8.59549C6.81311 8.59549 5.95338 8.41006 5.24152 8.25652Z" fill="#3D495D"/>
</svg>
