<svg width="24" height="24" viewBox="0 0 24 24" fill="none" xmlns="http://www.w3.org/2000/svg">
<path d="M9.73751 9.18176C12.0228 9.18176 13.8754 7.35021 13.8754 5.09088C13.8754 2.83155 12.0228 1 9.73751 1C7.45221 1 5.59961 2.83155 5.59961 5.09088C5.59961 7.35021 7.45221 9.18176 9.73751 9.18176Z" fill="#EFEFEF"/>
<path d="M10.9586 21.1272C10.7306 20.9044 10.5819 20.6145 10.5347 20.3011C10.4874 19.9876 10.5442 19.6675 10.6965 19.3886L11.062 18.7068L10.3103 18.4818C10.0037 18.3869 9.73687 18.1958 9.55017 17.9374C9.36348 17.679 9.26715 17.3674 9.27581 17.05V15.6523C9.27523 15.3362 9.3775 15.0284 9.56751 14.7742C9.75753 14.5201 10.0252 14.3331 10.331 14.2409L11.0827 14.0159L10.7241 13.3341C10.5763 13.0591 10.52 12.7449 10.5633 12.4364C10.6067 12.1279 10.7474 11.8408 10.9655 11.6159C10.4349 11.5472 9.90055 11.5107 9.36546 11.5068C7.78501 11.4701 6.21581 11.7785 4.7698 12.4102C3.32378 13.0419 2.03658 13.9813 1 15.1614V20.4454C1 20.6263 1.07266 20.7997 1.20199 20.9275C1.33133 21.0554 1.50674 21.1272 1.68965 21.1272H10.9586Z" fill="#EFEFEF"/>
<path d="M22.8627 15.4267L21.4834 15.0177C21.3878 14.6809 21.2536 14.3561 21.0834 14.0495L21.7731 12.7813C21.7997 12.7342 21.8095 12.6796 21.8007 12.6264C21.7919 12.5731 21.7652 12.5244 21.7248 12.4881L20.7248 11.4927C20.6863 11.4556 20.6372 11.4312 20.5841 11.4226C20.5311 11.4141 20.4767 11.4219 20.4282 11.445L19.1524 12.1268C18.8383 11.9581 18.5079 11.8211 18.1662 11.7177L17.7455 10.3541C17.727 10.3038 17.6932 10.2604 17.6487 10.2299C17.6043 10.1994 17.5513 10.1832 17.4972 10.1836H16.0627C16.009 10.1851 15.957 10.2029 15.9138 10.2346C15.8706 10.2663 15.8383 10.3104 15.8214 10.3609L15.4076 11.7245C15.0592 11.8247 14.7237 11.9643 14.4076 12.1404L13.1593 11.4586C13.1108 11.4331 13.0554 11.4233 13.0009 11.4307C12.9465 11.438 12.8957 11.4621 12.8559 11.4995L11.8421 12.4813C11.8022 12.5193 11.7759 12.5692 11.7672 12.6233C11.7584 12.6775 11.7678 12.7329 11.7938 12.7813L12.4835 14.0222C12.2987 14.3302 12.1484 14.6571 12.0352 14.9972L10.6559 15.4131C10.6037 15.428 10.5579 15.4594 10.5255 15.5025C10.4931 15.5456 10.476 15.5981 10.4766 15.6517V17.0495C10.476 17.1032 10.4931 17.1556 10.5255 17.1987C10.5579 17.2418 10.6037 17.2732 10.6559 17.2881L12.0352 17.704C12.1386 18.0379 12.2773 18.3602 12.449 18.6654L11.7593 19.9608C11.7333 20.0092 11.724 20.0647 11.7327 20.1188C11.7414 20.1729 11.7677 20.2228 11.8076 20.2608L12.8352 21.2494C12.875 21.2869 12.9258 21.3109 12.9802 21.3183C13.0347 21.3256 13.0901 21.3158 13.1386 21.2903L14.4283 20.6085C14.7352 20.7717 15.0589 20.902 15.3938 20.9972L15.8076 22.3949C15.8249 22.4464 15.8582 22.4913 15.9028 22.5231C15.9474 22.5549 16.0009 22.5721 16.0559 22.5722H17.4696C17.5234 22.5707 17.5754 22.5529 17.6186 22.5212C17.6618 22.4894 17.694 22.4454 17.711 22.3949L18.1248 20.9972C18.4557 20.9032 18.775 20.7728 19.0765 20.6085L20.38 21.2903C20.4285 21.3158 20.4839 21.3256 20.5384 21.3183C20.5928 21.3109 20.6436 21.2869 20.6834 21.2494L21.6903 20.2608C21.7281 20.2214 21.7525 20.1712 21.7599 20.1174C21.7674 20.0636 21.7575 20.0088 21.7317 19.9608L21.042 18.679C21.207 18.3803 21.3388 18.0648 21.4351 17.7381L22.8144 17.3222C22.8662 17.3057 22.9118 17.2741 22.945 17.2315C22.9783 17.1889 22.9977 17.1373 23.0006 17.0836V15.6722C23.0023 15.6228 22.9904 15.5738 22.9661 15.5306C22.9418 15.4873 22.906 15.4515 22.8627 15.4267ZM16.7731 18.6449C16.3172 18.6463 15.8712 18.5138 15.4915 18.2644C15.1118 18.015 14.8155 17.6598 14.6401 17.2439C14.4647 16.8279 14.4181 16.3698 14.5062 15.9276C14.5943 15.4854 14.8131 15.079 15.135 14.7598C15.4568 14.4406 15.8673 14.2231 16.3143 14.1347C16.7613 14.0462 17.2248 14.0909 17.6461 14.2631C18.0674 14.4353 18.4275 14.7271 18.6809 15.1018C18.9344 15.4764 19.0696 15.917 19.0696 16.3677C19.0696 16.9704 18.8279 17.5486 18.3974 17.9755C17.9669 18.4024 17.3828 18.6431 16.7731 18.6449Z" fill="#EFEFEF"/>
</svg>
