<svg width="24" height="24" viewBox="0 0 24 24" fill="none" xmlns="http://www.w3.org/2000/svg">
<path fill-rule="evenodd" clip-rule="evenodd" d="M12.1376 12.2832C14.425 12.2832 16.2792 10.429 16.2792 8.14161C16.2792 5.85426 14.425 4 12.1376 4C9.85027 4 7.996 5.85426 7.996 8.14161C7.996 10.429 9.85027 12.2832 12.1376 12.2832ZM18.0542 15.2415C15.6873 12.8748 8.58751 12.8748 6.22107 15.2415C4.99968 16.463 4.96849 19.0662 5.01015 20.1148C5.02036 20.372 5.23419 20.5664 5.49161 20.5664H18.7781C19.0379 20.5664 19.253 20.3685 19.2607 20.1088C19.2923 19.0493 19.2408 16.428 18.0542 15.2415Z" fill="#EEEEEE"/>
</svg>
