<svg width="24" height="24" viewBox="0 0 24 24" fill="none" xmlns="http://www.w3.org/2000/svg">
<path fill-rule="evenodd" clip-rule="evenodd" d="M15.4239 6.04972C15.0281 5.69421 14.522 5.49994 14.0001 5.5H4.00004C3.42945 5.5 2.87965 5.73222 2.47231 6.14974C2.06457 6.56768 1.83337 7.13709 1.83337 7.73334V15.9334C1.83337 16.5296 2.06457 17.099 2.47231 17.517C2.87965 17.9345 3.42945 18.1667 4.00004 18.1667H14C14.522 18.1668 15.0281 17.9725 15.4239 17.617C15.8199 17.2612 16.0785 16.7678 16.1481 16.2275L16.2348 15.5557L20.9992 17.7251C21.125 17.7824 21.262 17.8063 21.3981 17.7953C21.5342 17.7842 21.6664 17.7385 21.7825 17.6612C21.8987 17.5838 21.9955 17.4771 22.0631 17.3496C22.1307 17.2221 22.1666 17.0785 22.1667 16.932V6.73451C22.1667 6.73444 22.1667 6.73458 22.1667 6.73451C22.1666 6.58794 22.1308 6.44408 22.0631 6.31652C21.9955 6.18896 21.8986 6.08212 21.7823 6.00476C21.666 5.92745 21.5338 5.88174 21.3975 5.87079C21.2613 5.85985 21.1242 5.8839 20.9984 5.94135L16.2348 8.11112L16.1481 7.4392C16.0785 6.89892 15.8199 6.40551 15.4239 6.04972ZM14 4.5C14.7717 4.49992 15.5151 4.7874 16.0922 5.30582C16.5048 5.67648 16.8122 6.14694 16.9903 6.66815L20.583 5.03172C20.863 4.90392 21.1709 4.84937 21.4776 4.874C21.7844 4.89865 22.0795 5.00147 22.3361 5.17212C22.5925 5.34271 22.8021 5.5754 22.9466 5.84808C23.0912 6.1207 23.1666 6.42522 23.1667 6.7341V16.9324C23.1664 17.241 23.091 17.5457 22.9466 17.8181C22.8021 18.0906 22.5928 18.3231 22.3366 18.4937C22.0803 18.6642 21.7855 18.7671 21.4789 18.792C21.1723 18.8168 20.8649 18.7628 20.5848 18.6352L16.9903 16.9985C16.8122 17.5197 16.5048 17.9902 16.0922 18.3609C15.5151 18.8793 14.7717 19.1668 14 19.1667C14 19.1667 14.0001 19.1667 14 19.1667H4.00004C3.15615 19.1667 2.34939 18.823 1.75653 18.2153C1.16408 17.608 0.833374 16.787 0.833374 15.9334V7.73334C0.833374 6.87974 1.16408 6.05868 1.75653 5.45142C2.34939 4.84373 3.15615 4.5 4.00004 4.5H14C14.0001 4.5 14 4.5 14 4.5Z" fill="#EFEFEF"/>
</svg>
