<svg width="24" height="24" viewBox="0 0 24 24" fill="none" xmlns="http://www.w3.org/2000/svg">
<path fill-rule="evenodd" clip-rule="evenodd" d="M3 3.5C3 3.22386 3.22386 3 3.5 3H9.83333C10.1095 3 10.3333 3.22386 10.3333 3.5V9.83333C10.3333 10.1095 10.1095 10.3333 9.83333 10.3333H3.5C3.22386 10.3333 3 10.1095 3 9.83333V3.5ZM2 2.5C2 2.22386 2.22386 2 2.5 2H3H10.3333H10.8333C11.1095 2 11.3333 2.22386 11.3333 2.5V3V10.3333V10.8333C11.3333 11.1095 11.1095 11.3333 10.8333 11.3333H10.3333H3H2.5C2.22386 11.3333 2 11.1095 2 10.8333V10.3333V3V2.5ZM13.6668 3.5C13.6668 3.22386 13.8906 3 14.1668 3H20.5001C20.7762 3 21.0001 3.22386 21.0001 3.5V9.83333C21.0001 10.1095 20.7762 10.3333 20.5001 10.3333H14.1668C13.8906 10.3333 13.6668 10.1095 13.6668 9.83333V3.5ZM12.6668 2.5C12.6668 2.22386 12.8906 2 13.1668 2H13.6668H21.0001H21.5001C21.7762 2 22.0001 2.22386 22.0001 2.5V3V10.3333V10.8333C22.0001 11.1095 21.7762 11.3333 21.5001 11.3333H21.0001H13.6668H13.1668C12.8906 11.3333 12.6668 11.1095 12.6668 10.8333V10.3333V3V2.5ZM21.0001 14.1668C21.0001 13.8906 20.7762 13.6668 20.5001 13.6668H14.1668C13.8906 13.6668 13.6668 13.8906 13.6668 14.1668V20.5001C13.6668 20.7762 13.8906 21.0001 14.1668 21.0001H20.5001C20.7762 21.0001 21.0001 20.7762 21.0001 20.5001V14.1668ZM13.6668 12.6668H13.1668C12.8906 12.6668 12.6668 12.8906 12.6668 13.1668V13.6668V21.0001V21.5001C12.6668 21.7762 12.8906 22.0001 13.1668 22.0001H13.6668H21.0001H21.5001C21.7762 22.0001 22.0001 21.7762 22.0001 21.5001V21.0001V13.6668V13.1668C22.0001 12.8906 21.7762 12.6668 21.5001 12.6668H21.0001H13.6668ZM3 14.1668C3 13.8906 3.22386 13.6668 3.5 13.6668H9.83333C10.1095 13.6668 10.3333 13.8906 10.3333 14.1668V20.5001C10.3333 20.7762 10.1095 21.0001 9.83333 21.0001H3.5C3.22386 21.0001 3 20.7762 3 20.5001V14.1668ZM2 13.1668C2 12.8906 2.22386 12.6668 2.5 12.6668H3H10.3333H10.8333C11.1095 12.6668 11.3333 12.8906 11.3333 13.1668V13.6668V21.0001V21.5001C11.3333 21.7762 11.1095 22.0001 10.8333 22.0001H10.3333H3H2.5C2.22386 22.0001 2 21.7762 2 21.5001V21.0001V13.6668V13.1668Z" fill="#EFEFEF"/>
</svg>
