<svg width="24" height="24" viewBox="0 0 24 24" fill="none" xmlns="http://www.w3.org/2000/svg">
<path fill-rule="evenodd" clip-rule="evenodd" d="M11.8725 2.03262C11.7925 2.04881 11.6656 2.08811 11.5903 2.11817C11.2447 2.25689 11.2376 2.26151 8.3361 5.1099C6.79129 6.62657 5.54509 7.83112 5.50747 7.84499C5.46279 7.86117 4.90788 7.87042 3.83333 7.87042C2.76349 7.87042 2.18271 7.87967 2.10042 7.89585C2.03223 7.90973 1.88645 7.9629 1.77593 8.01377C1.43499 8.17329 1.14343 8.50853 1.03762 8.86227C1.0047 8.97556 1 9.30849 1 11.965V14.9405L1.05643 15.107C1.08935 15.1971 1.15048 15.3312 1.19281 15.4006C1.30567 15.5832 1.55021 15.8029 1.75712 15.9023C2.0675 16.0526 2.07925 16.0549 3.8639 16.0549C4.99488 16.0549 5.48631 16.0618 5.52158 16.0803C5.54979 16.0942 6.80069 17.3103 8.30083 18.7831C9.80097 20.2535 11.1036 21.5135 11.1929 21.5783C11.595 21.8742 12.0394 21.9875 12.4156 21.8927C12.9752 21.7493 13.3303 21.2638 13.4149 20.5217C13.4337 20.3622 13.4385 17.8259 13.4337 11.7315C13.4267 3.47531 13.4243 3.16088 13.382 3.01523C13.2621 2.59444 13.027 2.29388 12.7025 2.13666C12.4133 1.99795 12.1758 1.96789 11.8725 2.03262ZM12.2863 2.9343C12.3804 2.98286 12.4438 3.07996 12.4862 3.23949C12.5167 3.35971 12.5214 4.35387 12.5167 11.965L12.5097 20.5517L12.458 20.702C12.4015 20.8639 12.2957 20.9933 12.1993 21.0164C12.1076 21.0396 11.983 21.0095 11.8419 20.9286C11.7455 20.8731 10.9296 20.087 8.70526 17.9045C6.17289 15.4191 5.69557 14.9405 5.6603 14.8527C5.62268 14.7556 5.62033 14.559 5.62033 11.9511V9.15358L5.67441 9.03798C5.71909 8.94319 6.24108 8.42068 8.6935 6.02082C10.3253 4.42554 11.7008 3.08921 11.7502 3.05222C11.9383 2.91581 12.1546 2.86726 12.2863 2.9343ZM4.76445 8.84146C4.69156 9.14202 4.68921 9.24606 4.69627 12.0574C4.70332 14.5405 4.70802 14.8781 4.74094 14.9844L4.77856 15.107H3.53237C2.30968 15.107 2.28147 15.107 2.18036 15.0584C2.11923 15.0284 2.05339 14.9706 2.01577 14.9151L1.95228 14.8203V9.10503L2.01577 9.00793C2.09101 8.89926 2.18271 8.84377 2.3379 8.81834C2.39668 8.80909 2.9704 8.80216 3.60996 8.80447C4.63043 8.80678 4.77386 8.81141 4.76445 8.84146Z" fill="#EFEFEF"/>
<path d="M15.3881 8.01372C15.1615 8.07577 15.0026 8.31158 15 8.58771C14.9974 8.91039 15.1563 9.09965 15.5756 9.2796C16.3203 9.59608 16.888 10.3407 17.099 11.2715C17.1823 11.6407 17.1849 12.345 17.099 12.7142C16.9792 13.2479 16.7422 13.7133 16.3985 14.098C16.1563 14.368 15.9271 14.5386 15.586 14.6968C15.2318 14.8644 15.1485 14.9264 15.0703 15.0847C14.9766 15.277 14.9766 15.488 15.0729 15.6866C15.2214 15.9875 15.4714 16.0403 15.8854 15.8634C17.1276 15.336 17.9922 14.0639 18.1667 12.5188C18.1849 12.3574 18.1901 12.0689 18.1823 11.799C18.1537 10.8713 17.8802 10.0398 17.3698 9.31994C16.9844 8.77697 16.4662 8.35191 15.8985 8.11611C15.6433 8.00752 15.5026 7.97959 15.3881 8.01372Z" fill="#EFEFEF"/>
<path d="M17.0517 6.73764C17.1081 6.61723 17.1893 6.54937 17.3133 6.51434C17.4892 6.46399 17.6877 6.54061 18.1365 6.82959C19.3319 7.59802 20.2295 8.73642 20.6806 10.0565C21.0459 11.1227 21.1001 12.3246 20.8317 13.4411C20.561 14.5642 19.9453 15.6107 19.059 16.4513C18.7252 16.7666 18.5199 16.9286 18.1613 17.1606C17.8027 17.3927 17.5817 17.5 17.4644 17.5C17.2705 17.4978 17.0607 17.3445 17.0291 17.1825C16.9885 16.9658 17.072 16.8125 17.3133 16.6681C17.8681 16.3353 18.229 16.0616 18.556 15.7332C19.4153 14.8663 19.9295 13.8198 20.0784 12.6398C20.1303 12.2305 20.1122 11.4927 20.0423 11.1096C19.9047 10.3499 19.6273 9.67561 19.1965 9.04948C18.7387 8.38176 18.1726 7.85635 17.4464 7.4185C17.1554 7.24555 17.0607 7.15798 17.0246 7.03757C16.9863 6.91716 16.9908 6.86462 17.0517 6.73764Z" fill="#EFEFEF"/>
</svg>
