<svg width="16" height="16" viewBox="0 0 16 16" fill="none" xmlns="http://www.w3.org/2000/svg">
<path d="M7.20888 1.02198C7.15587 1.03288 7.07169 1.05935 7.0218 1.0796C6.79262 1.17303 6.78795 1.17615 4.86412 3.09472C3.83985 4.11629 3.01357 4.92763 2.98863 4.93697C2.95901 4.94788 2.59108 4.9541 1.87861 4.9541C1.16926 4.9541 0.784184 4.96033 0.729619 4.97123C0.684407 4.98058 0.587748 5.0164 0.514475 5.05066C0.288418 5.15811 0.0950999 5.38391 0.0249442 5.62218C0.00311803 5.69848 0 5.92273 0 7.71205V9.71626L0.0374163 9.82839C0.0592425 9.88912 0.0997769 9.97944 0.127839 10.0262C0.202672 10.1492 0.364809 10.2971 0.502002 10.3641C0.707792 10.4653 0.715587 10.4669 1.89888 10.4669C2.64876 10.4669 2.9746 10.4715 2.99798 10.484C3.01669 10.4933 3.84609 11.3125 4.84074 12.3045C5.83539 13.2949 6.69908 14.1436 6.75833 14.1872C7.02492 14.3865 7.31957 14.4628 7.56901 14.399C7.94006 14.3024 8.17547 13.9754 8.23159 13.4755C8.24407 13.3681 8.24718 11.6597 8.24407 7.55476C8.23939 1.99372 8.23783 1.78193 8.20977 1.68382C8.13026 1.4004 7.97436 1.19795 7.75921 1.09205C7.56745 0.998617 7.40999 0.978373 7.20888 1.02198ZM7.48327 1.62931C7.54563 1.66202 7.58772 1.72742 7.61578 1.83488C7.63605 1.91585 7.63917 2.58548 7.63605 7.71205L7.63137 13.4958L7.59707 13.597C7.55966 13.706 7.4895 13.7932 7.42558 13.8088C7.36478 13.8244 7.28215 13.8041 7.18861 13.7496C7.12469 13.7122 6.58372 13.1828 5.10889 11.7127C3.42983 10.0386 3.11335 9.71626 3.08997 9.65709C3.06502 9.59168 3.06346 9.45931 3.06346 7.7027V5.81839L3.09932 5.74053C3.12894 5.67668 3.47504 5.32474 5.10109 3.70828C6.18305 2.63376 7.09507 1.73365 7.12781 1.70874C7.25253 1.61686 7.39596 1.58415 7.48327 1.62931ZM2.49598 5.60816C2.44765 5.81061 2.44609 5.88068 2.45077 7.77434C2.45545 9.44685 2.45856 9.67422 2.48039 9.74585L2.50534 9.82839H1.67906C0.868371 9.82839 0.849663 9.82839 0.782625 9.79568C0.742091 9.77544 0.698438 9.73651 0.673494 9.69913L0.631401 9.63528V7.71049V5.78569L0.673494 5.72029C0.723382 5.64709 0.784184 5.60972 0.887079 5.59259C0.926054 5.58636 1.30645 5.58169 1.73051 5.58325C2.40712 5.5848 2.50222 5.58792 2.49598 5.60816Z" fill="#EFEFEF"/>
<path d="M15 5L10 10M10 5L15 10" stroke="#EFEFEF" stroke-width="0.5" stroke-linecap="round"/>
</svg>
