<svg width="16" height="16" viewBox="0 0 16 16" fill="none" xmlns="http://www.w3.org/2000/svg">
<path d="M7.70888 1.02198C7.65587 1.03288 7.57169 1.05935 7.5218 1.0796C7.29262 1.17303 7.28795 1.17615 5.36412 3.09472C4.33985 4.11629 3.51357 4.92763 3.48863 4.93697C3.45901 4.94788 3.09108 4.9541 2.37861 4.9541C1.66926 4.9541 1.28418 4.96033 1.22962 4.97123C1.18441 4.98058 1.08775 5.0164 1.01447 5.05066C0.788418 5.15811 0.5951 5.38391 0.524944 5.62218C0.503118 5.69848 0.5 5.92273 0.5 7.71205V9.71626L0.537416 9.82839C0.559243 9.88912 0.599777 9.97944 0.627839 10.0262C0.702672 10.1492 0.864809 10.2971 1.002 10.3641C1.20779 10.4653 1.21559 10.4669 2.39888 10.4669C3.14876 10.4669 3.4746 10.4715 3.49798 10.484C3.51669 10.4933 4.34609 11.3125 5.34074 12.3045C6.33539 13.2949 7.19908 14.1436 7.25833 14.1872C7.52492 14.3865 7.81957 14.4628 8.06901 14.399C8.44006 14.3024 8.67547 13.9754 8.73159 13.4755C8.74407 13.3681 8.74718 11.6597 8.74407 7.55476C8.73939 1.99372 8.73783 1.78193 8.70977 1.68382C8.63026 1.4004 8.47436 1.19795 8.25921 1.09205C8.06745 0.998617 7.90999 0.978373 7.70888 1.02198ZM7.98327 1.62931C8.04563 1.66202 8.08772 1.72742 8.11578 1.83488C8.13605 1.91585 8.13917 2.58548 8.13605 7.71205L8.13137 13.4958L8.09707 13.597C8.05966 13.706 7.9895 13.7932 7.92558 13.8088C7.86478 13.8244 7.78215 13.8041 7.68861 13.7496C7.62469 13.7122 7.08372 13.1828 5.60889 11.7127C3.92983 10.0386 3.61335 9.71626 3.58997 9.65709C3.56502 9.59168 3.56346 9.45931 3.56346 7.7027V5.81839L3.59932 5.74053C3.62894 5.67668 3.97504 5.32474 5.60109 3.70828C6.68305 2.63376 7.59507 1.73365 7.62781 1.70874C7.75253 1.61686 7.89596 1.58415 7.98327 1.62931ZM2.99598 5.60816C2.94765 5.81061 2.94609 5.88068 2.95077 7.77434C2.95545 9.44685 2.95856 9.67422 2.98039 9.74585L3.00534 9.82839H2.17906C1.36837 9.82839 1.34966 9.82839 1.28262 9.79568C1.24209 9.77544 1.19844 9.73651 1.17349 9.69913L1.1314 9.63528V7.71049V5.78569L1.17349 5.72029C1.22338 5.64709 1.28418 5.60972 1.38708 5.59259C1.42605 5.58636 1.80645 5.58169 2.23051 5.58325C2.90712 5.5848 3.00222 5.58792 2.99598 5.60816Z" fill="#ECEDEF"/>
<path d="M12.1458 2.19148C12.0757 2.22107 12.0398 2.25533 12.0055 2.3223C11.9026 2.52786 11.9837 2.66645 12.3111 2.84243C13.0126 3.21929 13.6674 3.80327 14.1601 4.49158C14.6932 5.23596 15.0144 6.06288 15.1485 7.03306C15.189 7.32116 15.189 8.0998 15.1485 8.38789C14.9817 9.60413 14.5124 10.6086 13.7002 11.4931C13.3166 11.9089 12.7741 12.334 12.3033 12.5848C12.0414 12.7249 11.9728 12.7997 11.9712 12.9492C11.9697 13.0955 12.0492 13.1999 12.1895 13.2373C12.2846 13.2637 12.3501 13.2466 12.5465 13.1438C13.0641 12.876 13.6456 12.4353 14.0759 11.9852C14.9474 11.0742 15.4883 9.99656 15.7191 8.71492C15.7659 8.4533 15.7674 8.44084 15.7736 7.80703C15.7799 7.26821 15.7768 7.12961 15.7549 6.95831C15.6162 5.86199 15.1734 4.78747 14.5077 3.93408C13.9948 3.27691 13.3494 2.72096 12.6416 2.32385C12.3594 2.16657 12.2627 2.14009 12.1458 2.19148Z" fill="#ECEDEF"/>
<path d="M11.0857 3.80487C11 3.82978 10.9438 3.87806 10.9049 3.96371C10.8628 4.05403 10.8597 4.09141 10.8862 4.17706C10.9111 4.26271 10.9766 4.325 11.1777 4.44802C11.6797 4.75948 12.071 5.13323 12.3875 5.6082C12.6853 6.05358 12.877 6.53322 12.9721 7.0736C13.0205 7.34612 13.0329 7.87092 12.9971 8.16213C12.8942 9.00151 12.5387 9.74589 11.9447 10.3626C11.7187 10.5962 11.4692 10.7908 11.0857 11.0275C10.9189 11.1303 10.8612 11.2393 10.8893 11.3935C10.9111 11.5087 11.0561 11.6177 11.1902 11.6193C11.2712 11.6193 11.424 11.543 11.6719 11.3779C11.9198 11.2128 12.0617 11.0976 12.2924 10.8734C12.9051 10.2754 13.3307 9.53098 13.5178 8.7321C13.7033 7.93789 13.6659 7.08294 13.4133 6.32454C13.1015 5.38551 12.481 4.57572 11.6548 4.02912C11.3445 3.82355 11.2073 3.76905 11.0857 3.80487Z" fill="#ECEDEF"/>
<path d="M9.81349 5.7172C9.67785 5.74834 9.58275 5.8667 9.5812 6.00529C9.57964 6.16725 9.67474 6.26224 9.92574 6.35257C10.3716 6.51141 10.7115 6.88516 10.8378 7.35234C10.8876 7.53766 10.8892 7.89116 10.8378 8.07647C10.766 8.34433 10.6242 8.57792 10.4184 8.77102C10.2734 8.9065 10.1362 8.99215 9.93197 9.07158C9.71995 9.15567 9.67006 9.18681 9.62329 9.26624C9.56716 9.36279 9.56716 9.46868 9.62485 9.56835C9.71371 9.7194 9.86338 9.74588 10.1113 9.65711C10.8549 9.39238 11.3725 8.75389 11.477 7.97837C11.4879 7.89739 11.491 7.75256 11.4863 7.61708C11.4692 7.15145 11.3055 6.7341 10.9999 6.37281C10.7692 6.10029 10.4589 5.88694 10.1191 5.76859C9.96627 5.71408 9.88208 5.70007 9.81349 5.7172Z" fill="#ECEDEF"/>
</svg>
