<svg width="24" height="24" viewBox="0 0 24 24" fill="none" xmlns="http://www.w3.org/2000/svg">
<path fill-rule="evenodd" clip-rule="evenodd" d="M11.5903 2.11817C11.6656 2.08811 11.7925 2.04881 11.8725 2.03262C12.1758 1.96789 12.4133 1.99795 12.7025 2.13666C13.027 2.29388 13.2621 2.59444 13.382 3.01523C13.4243 3.16088 13.4267 3.47531 13.4337 11.7315C13.4385 17.8259 13.4337 20.3622 13.4149 20.5217C13.3303 21.2638 12.9752 21.7493 12.4156 21.8927C12.0394 21.9875 11.595 21.8742 11.1929 21.5783C11.1036 21.5135 9.80097 20.2535 8.30083 18.7831C6.80069 17.3103 5.54979 16.0942 5.52158 16.0803C5.48631 16.0618 4.99488 16.0549 3.8639 16.0549C2.07925 16.0549 2.0675 16.0526 1.75712 15.9023C1.55021 15.8029 1.30567 15.5832 1.19281 15.4006C1.15048 15.3312 1.08935 15.1971 1.05643 15.107L1 14.9405V11.965C1 9.30849 1.0047 8.97556 1.03762 8.86227C1.14343 8.50853 1.43499 8.17329 1.77593 8.01377C1.88645 7.9629 2.03223 7.90973 2.10042 7.89585C2.18271 7.87967 2.76349 7.87042 3.83333 7.87042C4.90788 7.87042 5.46279 7.86117 5.50747 7.84499C5.54509 7.83112 6.79129 6.62657 8.3361 5.1099C11.2376 2.26151 11.2447 2.25689 11.5903 2.11817ZM12.4862 3.23949C12.4438 3.07996 12.3804 2.98286 12.2863 2.9343C12.1546 2.86726 11.9383 2.91581 11.7502 3.05222C11.7008 3.08921 10.3253 4.42554 8.6935 6.02082C6.24108 8.42068 5.71909 8.94319 5.67441 9.03798L5.62033 9.15358V11.9511C5.62033 14.559 5.62268 14.7556 5.6603 14.8527C5.69557 14.9405 6.17289 15.4191 8.70526 17.9045C10.9296 20.087 11.7455 20.8731 11.8419 20.9286C11.983 21.0095 12.1076 21.0396 12.1993 21.0164C12.2957 20.9933 12.4015 20.8639 12.458 20.702L12.5097 20.5517L12.5167 11.965C12.5214 4.35387 12.5167 3.35971 12.4862 3.23949ZM4.69627 12.0574C4.68921 9.24606 4.69156 9.14202 4.76445 8.84146C4.77386 8.81141 4.63043 8.80678 3.60996 8.80447C2.9704 8.80216 2.39668 8.80909 2.3379 8.81834C2.18271 8.84377 2.09101 8.89926 2.01577 9.00793L1.95228 9.10503V14.8203L2.01577 14.9151C2.05339 14.9706 2.11923 15.0284 2.18036 15.0584C2.28147 15.107 2.30968 15.107 3.53237 15.107H4.77856L4.74094 14.9844C4.70802 14.8781 4.70332 14.5405 4.69627 12.0574Z" fill="#EFEFEF"/>
<path d="M15 8.58771C15.0026 8.31158 15.1615 8.07577 15.3881 8.01372C15.5026 7.97959 15.6433 8.00752 15.8985 8.11611C16.4662 8.35191 16.9844 8.77697 17.3698 9.31994C17.8802 10.0398 18.1537 10.8713 18.1823 11.799C18.1901 12.0689 18.1849 12.3574 18.1667 12.5188C17.9922 14.0639 17.1276 15.336 15.8854 15.8634C15.4714 16.0403 15.2214 15.9875 15.0729 15.6866C14.9766 15.488 14.9766 15.277 15.0703 15.0847C15.1485 14.9264 15.2318 14.8644 15.586 14.6968C15.9271 14.5386 16.1563 14.368 16.3985 14.098C16.7422 13.7133 16.9792 13.2479 17.099 12.7142C17.1849 12.345 17.1823 11.6407 17.099 11.2715C16.888 10.3407 16.3203 9.59608 15.5756 9.2796C15.1563 9.09965 14.9974 8.91039 15 8.58771Z" fill="#EFEFEF"/>
</svg>
