<svg width="24" height="24" viewBox="0 0 24 24" fill="none" xmlns="http://www.w3.org/2000/svg">
<path fill-rule="evenodd" clip-rule="evenodd" d="M11.5903 2.11817C11.6656 2.08811 11.7925 2.04881 11.8725 2.03262C12.1758 1.96789 12.4133 1.99795 12.7025 2.13666C13.027 2.29388 13.2621 2.59444 13.382 3.01523C13.4243 3.16088 13.4267 3.47531 13.4337 11.7315C13.4385 17.8259 13.4337 20.3622 13.4149 20.5217C13.3303 21.2638 12.9752 21.7493 12.4156 21.8927C12.0394 21.9875 11.595 21.8742 11.1929 21.5783C11.1036 21.5135 9.80097 20.2535 8.30083 18.7831C6.80069 17.3103 5.54979 16.0942 5.52158 16.0803C5.48631 16.0618 4.99488 16.0549 3.8639 16.0549C2.07925 16.0549 2.0675 16.0526 1.75712 15.9023C1.55021 15.8029 1.30567 15.5832 1.19281 15.4006C1.15048 15.3312 1.08935 15.1971 1.05643 15.107L1 14.9405V11.965C1 9.30848 1.0047 8.97556 1.03762 8.86227C1.14343 8.50853 1.43499 8.17329 1.77593 8.01377C1.88645 7.9629 2.03223 7.90973 2.10042 7.89585C2.18271 7.87967 2.76349 7.87042 3.83333 7.87042C4.90788 7.87042 5.46279 7.86117 5.50747 7.84499C5.54509 7.83112 6.79129 6.62657 8.3361 5.1099C11.2376 2.26151 11.2447 2.25689 11.5903 2.11817ZM12.4862 3.23949C12.4438 3.07996 12.3804 2.98286 12.2863 2.9343C12.1546 2.86726 11.9383 2.91581 11.7502 3.05222C11.7008 3.08921 10.3253 4.42554 8.6935 6.02082C6.24108 8.42068 5.71909 8.94319 5.67441 9.03798L5.62033 9.15358V11.9511C5.62033 14.559 5.62268 14.7556 5.6603 14.8527C5.69557 14.9405 6.17289 15.4191 8.70526 17.9045C10.9296 20.087 11.7455 20.8731 11.8419 20.9286C11.983 21.0095 12.1076 21.0396 12.1993 21.0164C12.2957 20.9933 12.4015 20.8639 12.458 20.702L12.5097 20.5517L12.5167 11.965C12.5214 4.35387 12.5167 3.35971 12.4862 3.23949ZM4.69627 12.0574C4.68921 9.24606 4.69156 9.14202 4.76445 8.84146C4.77386 8.81141 4.63043 8.80678 3.60996 8.80447C2.9704 8.80216 2.39668 8.80909 2.3379 8.81834C2.18271 8.84377 2.09101 8.89926 2.01577 9.00793L1.95228 9.10503V14.8203L2.01577 14.9151C2.05339 14.9706 2.11923 15.0284 2.18036 15.0584C2.28147 15.107 2.30968 15.107 3.53237 15.107H4.77856L4.74094 14.9844C4.70802 14.8781 4.70332 14.5405 4.69627 12.0574Z" fill="#EFEFEF"/>
<path d="M15 8.08771C15.0026 7.81158 15.1615 7.57577 15.3881 7.51372C15.5026 7.47959 15.6433 7.50752 15.8985 7.61611C16.4662 7.85191 16.9844 8.27697 17.3698 8.81994C17.8802 9.53975 18.1537 10.3713 18.1823 11.299C18.1901 11.5689 18.1849 11.8574 18.1667 12.0188C17.9922 13.5639 17.1276 14.836 15.8854 15.3634C15.4714 15.5403 15.2214 15.4875 15.0729 15.1866C14.9766 14.988 14.9766 14.777 15.0703 14.5847C15.1485 14.4264 15.2318 14.3644 15.586 14.1968C15.9271 14.0386 16.1563 13.868 16.3985 13.598C16.7422 13.2133 16.9792 12.7479 17.099 12.2142C17.1849 11.845 17.1823 11.1407 17.099 10.7715C16.888 9.84071 16.3203 9.09608 15.5756 8.7796C15.1563 8.59965 14.9974 8.41039 15 8.08771Z" fill="#EFEFEF"/>
<path d="M17.3133 6.01434C17.1893 6.04937 17.1081 6.11723 17.0517 6.23764C16.9908 6.36462 16.9863 6.41716 17.0246 6.53757C17.0607 6.65798 17.1554 6.74555 17.4464 6.9185C18.1726 7.35635 18.7387 7.88176 19.1965 8.54948C19.6273 9.17561 19.9047 9.8499 20.0423 10.6096C20.1122 10.9927 20.1303 11.7305 20.0784 12.1398C19.9295 13.3198 19.4153 14.3663 18.556 15.2332C18.229 15.5616 17.8681 15.8353 17.3133 16.1681C17.072 16.3125 16.9885 16.4658 17.0291 16.6825C17.0607 16.8445 17.2705 16.9978 17.4644 17C17.5817 17 17.8027 16.8927 18.1613 16.6606C18.5199 16.4286 18.7252 16.2666 19.059 15.9513C19.9453 15.1107 20.561 14.0642 20.8317 12.9411C21.1001 11.8246 21.0459 10.6227 20.6806 9.55654C20.2295 8.23642 19.3319 7.09802 18.1365 6.32959C17.6877 6.04061 17.4892 5.96399 17.3133 6.01434Z" fill="#EFEFEF"/>
<path d="M20.0517 5.28085C20.1081 5.13855 20.1893 5.05835 20.3133 5.01695C20.4892 4.95744 20.6877 5.048 21.1365 5.38952C22.3319 6.29766 23.2295 7.64305 23.6806 9.20319C24.0459 10.4632 24.1001 11.8836 23.8317 13.2031C23.561 14.5304 22.9453 15.7671 22.059 16.7607C21.7252 17.1332 21.5199 17.3247 21.1613 17.5989C20.8027 17.8732 20.5817 18 20.4644 18C20.2705 17.9974 20.0607 17.8163 20.0291 17.6248C19.9885 17.3687 20.072 17.1876 20.3133 17.0168C20.8681 16.6235 21.229 16.3001 21.556 15.912C22.4153 14.8875 22.9295 13.6507 23.0784 12.2562C23.1303 11.7724 23.1122 10.9004 23.0423 10.4477C22.9047 9.54988 22.6273 8.753 22.1965 8.01303C21.7387 7.22391 21.1726 6.60296 20.4464 6.0855C20.1554 5.88111 20.0607 5.77761 20.0246 5.63531C19.9863 5.49301 19.9908 5.43092 20.0517 5.28085Z" fill="#EFEFEF"/>
</svg>
