<svg width="24" height="24" viewBox="0 0 24 24" fill="none" xmlns="http://www.w3.org/2000/svg">
<path fill-rule="evenodd" clip-rule="evenodd" d="M4.5 5H19.5C20.0523 5 20.5 5.44772 20.5 6V18C20.5 18.5523 20.0523 19 19.5 19H4.5C3.94772 19 3.5 18.5523 3.5 18V6C3.5 5.44772 3.94772 5 4.5 5ZM1.5 6C1.5 4.34315 2.84315 3 4.5 3H19.5C21.1569 3 22.5 4.34315 22.5 6V18C22.5 19.6569 21.1569 21 19.5 21H4.5C2.84315 21 1.5 19.6569 1.5 18V6ZM6.5 7C5.94772 7 5.5 7.44772 5.5 8V16.1429C5.5 16.6951 5.94772 17.1429 6.5 17.1429H17.5C18.0523 17.1429 18.5 16.6951 18.5 16.1429V8C18.5 7.44772 18.0523 7 17.5 7H6.5Z" fill="#EFEFEF"/>
</svg>
