<svg width="24" height="24" viewBox="0 0 24 24" fill="none" xmlns="http://www.w3.org/2000/svg">
<path fill-rule="evenodd" clip-rule="evenodd" d="M4 3H20C20.5523 3 21 3.44772 21 4V20C21 20.5523 20.5523 21 20 21H4C3.44772 21 3 20.5523 3 20V4C3 3.44772 3.44772 3 4 3ZM1 4C1 2.34315 2.34315 1 4 1H20C21.6569 1 23 2.34315 23 4V20C23 21.6569 21.6569 23 20 23H4C2.34315 23 1 21.6569 1 20V4ZM7.5 6.5C6.94772 6.5 6.5 6.94771 6.5 7.5V16.5C6.5 17.0523 6.94771 17.5 7.5 17.5H16.5C17.0523 17.5 17.5 17.0523 17.5 16.5V7.5C17.5 6.94772 17.0523 6.5 16.5 6.5H7.5Z" fill="#EFEFEF"/>
</svg>
