<svg width="22" height="18" viewBox="0 0 22 18" fill="none" xmlns="http://www.w3.org/2000/svg">
<path fill-rule="evenodd" clip-rule="evenodd" d="M3.36364 1.63636H18.6364C19.1635 1.63636 19.5909 2.00268 19.5909 2.45455V15.5455C19.5909 15.9973 19.1635 16.3636 18.6364 16.3636H3.36364C2.83646 16.3636 2.40909 15.9973 2.40909 15.5455V2.45455C2.40909 2.00268 2.83646 1.63636 3.36364 1.63636ZM0.5 2.45455C0.5 1.09894 1.78209 0 3.36364 0H18.6364C20.2179 0 21.5 1.09894 21.5 2.45455V15.5455C21.5 16.9011 20.2179 18 18.6364 18H3.36364C1.78209 18 0.5 16.9011 0.5 15.5455V2.45455ZM8.11823 11.8137V6.38673V5.93673C8.11823 5.54073 8.13573 5.26473 8.17073 5.10873C8.16373 5.04873 8.12873 4.98873 8.06573 4.92873L5.66123 5.54073C5.63323 5.71473 5.63323 5.85873 5.66123 5.97273L7.04723 5.76573V10.7067C7.04723 11.1387 7.03323 11.5197 7.00523 11.8497L5.75573 11.9487C5.71373 12.0687 5.71373 12.1857 5.75573 12.2997C6.34373 12.2877 6.94923 12.2817 7.57223 12.2817C8.32823 12.2817 8.92673 12.2907 9.36773 12.3087C9.39573 12.1647 9.39573 12.0447 9.36773 11.9487L8.11823 11.8137ZM11.1567 5.99973C10.6317 6.72573 10.3692 7.77573 10.3692 9.14973C10.3692 9.49173 10.3972 9.81573 10.4532 10.1217C10.5092 10.4277 10.6072 10.7247 10.7472 11.0127C10.8872 11.3007 11.0657 11.5497 11.2827 11.7597C11.4997 11.9697 11.7762 12.1377 12.1122 12.2637C12.4552 12.3897 12.8402 12.4527 13.2672 12.4527C14.0162 12.4527 14.6252 12.2127 15.0942 11.7327C15.5632 11.2467 15.7977 10.6527 15.7977 9.95073C15.7977 9.33873 15.5947 8.81073 15.1887 8.36673C14.7897 7.92273 14.1982 7.70073 13.4142 7.70073C12.5532 7.70073 11.9057 8.00973 11.4717 8.62773H11.4507C11.4507 7.57173 11.6082 6.75573 11.9232 6.17973C12.2382 5.60373 12.6722 5.31573 13.2252 5.31573C13.5962 5.31573 13.8692 5.41473 14.0442 5.61273C14.2192 5.80473 14.3522 6.11973 14.4432 6.55773C14.8982 6.53973 15.2762 6.44673 15.5772 6.27873C15.5072 5.84073 15.2657 5.50173 14.8527 5.26173C14.4467 5.02173 13.9392 4.90173 13.3302 4.90173C12.4062 4.90173 11.6817 5.26773 11.1567 5.99973ZM14.2437 8.64573C14.4747 8.99373 14.5902 9.41673 14.5902 9.91473C14.5902 11.3367 14.1457 12.0477 13.2567 12.0477C12.7107 12.0477 12.3012 11.8707 12.0282 11.5167C11.7552 11.1567 11.6187 10.5897 11.6187 9.81573C11.6187 9.29373 11.7587 8.88273 12.0387 8.58273C12.3187 8.27673 12.7247 8.12373 13.2567 8.12373C13.6907 8.12373 14.0197 8.29773 14.2437 8.64573Z" fill="#EFEFEF"/>
</svg>
