<svg width="24" height="24" viewBox="0 0 24 24" fill="none" xmlns="http://www.w3.org/2000/svg">
<path fill-rule="evenodd" clip-rule="evenodd" d="M4 3H20C20.5523 3 21 3.44772 21 4V20C21 20.5523 20.5523 21 20 21H4C3.44772 21 3 20.5523 3 20V4C3 3.44772 3.44772 3 4 3ZM1 4C1 2.34315 2.34315 1 4 1H20C21.6569 1 23 2.34315 23 4V20C23 21.6569 21.6569 23 20 23H4C2.34315 23 1 21.6569 1 20V4ZM8.981 15.439V8.806V8.256C8.981 7.772 8.99933 7.43467 9.036 7.244C9.02867 7.17067 8.992 7.09733 8.926 7.024L6.407 7.772C6.37767 7.98467 6.37767 8.16067 6.407 8.3L7.859 8.047V14.086C7.859 14.614 7.84433 15.0797 7.815 15.483L6.506 15.604C6.462 15.7507 6.462 15.8937 6.506 16.033C7.122 16.0183 7.75633 16.011 8.409 16.011C9.201 16.011 9.828 16.022 10.29 16.044C10.3193 15.868 10.3193 15.7213 10.29 15.604L8.981 15.439ZM12.1642 8.333C11.6142 9.22033 11.3392 10.5037 11.3392 12.183C11.3392 12.601 11.3685 12.997 11.4272 13.371C11.4859 13.745 11.5885 14.108 11.7352 14.46C11.8819 14.812 12.0689 15.1163 12.2962 15.373C12.5235 15.6297 12.8132 15.835 13.1652 15.989C13.5245 16.143 13.9279 16.22 14.3752 16.22C15.1599 16.22 15.7979 15.9267 16.2892 15.34C16.7805 14.746 17.0262 14.02 17.0262 13.162C17.0262 12.414 16.8135 11.7687 16.3882 11.226C15.9702 10.6833 15.3505 10.412 14.5292 10.412C13.6272 10.412 12.9489 10.7897 12.4942 11.545H12.4722C12.4722 10.2543 12.6372 9.257 12.9672 8.553C13.2972 7.849 13.7519 7.497 14.3312 7.497C14.7199 7.497 15.0059 7.618 15.1892 7.86C15.3725 8.09467 15.5119 8.47967 15.6072 9.015C16.0839 8.993 16.4799 8.87933 16.7952 8.674C16.7219 8.13867 16.4689 7.72433 16.0362 7.431C15.6109 7.13767 15.0792 6.991 14.4412 6.991C13.4732 6.991 12.7142 7.43833 12.1642 8.333ZM15.3982 11.567C15.6402 11.9923 15.7612 12.5093 15.7612 13.118C15.7612 14.856 15.2955 15.725 14.3642 15.725C13.7922 15.725 13.3632 15.5087 13.0772 15.076C12.7912 14.636 12.6482 13.943 12.6482 12.997C12.6482 12.359 12.7949 11.8567 13.0882 11.49C13.3815 11.116 13.8069 10.929 14.3642 10.929C14.8189 10.929 15.1635 11.1417 15.3982 11.567Z" fill="url(#paint0_linear_371_661)"/>
<defs>
<linearGradient id="paint0_linear_371_661" x1="12" y1="1" x2="12" y2="23" gradientUnits="userSpaceOnUse">
<stop stop-color="white"/>
<stop offset="1" stop-color="#ADACAC"/>
</linearGradient>
</defs>
</svg>
