<svg width="24" height="24" viewBox="0 0 24 24" fill="none" xmlns="http://www.w3.org/2000/svg">
<path fill-rule="evenodd" clip-rule="evenodd" d="M20 3H4C3.44772 3 3 3.44772 3 4V20C3 20.5523 3.44772 21 4 21H20C20.5523 21 21 20.5523 21 20V4C21 3.44772 20.5523 3 20 3ZM4 1C2.34315 1 1 2.34315 1 4V20C1 21.6569 2.34315 23 4 23H20C21.6569 23 23 21.6569 23 20V4C23 2.34315 21.6569 1 20 1H4ZM4.5 5.5C4.5 4.94772 4.94772 4.5 5.5 4.5H10.5C11.0523 4.5 11.5 4.94772 11.5 5.5V10.5C11.5 11.0523 11.0523 11.5 10.5 11.5H5.5C4.94772 11.5 4.5 11.0523 4.5 10.5V5.5ZM5.5 12.5C4.94772 12.5 4.5 12.9477 4.5 13.5V18.5C4.5 19.0523 4.94772 19.5 5.5 19.5H10.5C11.0523 19.5 11.5 19.0523 11.5 18.5V13.5C11.5 12.9477 11.0523 12.5 10.5 12.5H5.5ZM12.5 13.5C12.5 12.9477 12.9477 12.5 13.5 12.5H18.5C19.0523 12.5 19.5 12.9477 19.5 13.5V18.5C19.5 19.0523 19.0523 19.5 18.5 19.5H13.5C12.9477 19.5 12.5 19.0523 12.5 18.5V13.5ZM13.5 4.5C12.9477 4.5 12.5 4.94772 12.5 5.5V10.5C12.5 11.0523 12.9477 11.5 13.5 11.5H18.5C19.0523 11.5 19.5 11.0523 19.5 10.5V5.5C19.5 4.94772 19.0523 4.5 18.5 4.5H13.5Z" fill="url(#paint0_linear_371_677)"/>
<defs>
<linearGradient id="paint0_linear_371_677" x1="12" y1="1" x2="12" y2="23" gradientUnits="userSpaceOnUse">
<stop stop-color="white"/>
<stop offset="1" stop-color="#ADACAC"/>
</linearGradient>
</defs>
</svg>
