<svg width="22" height="18" viewBox="0 0 22 18" fill="none" xmlns="http://www.w3.org/2000/svg">
<path fill-rule="evenodd" clip-rule="evenodd" d="M18.6364 1.63636H3.36364C2.83646 1.63636 2.40909 2.00268 2.40909 2.45455V15.5455C2.40909 15.9973 2.83646 16.3636 3.36364 16.3636H18.6364C19.1635 16.3636 19.5909 15.9973 19.5909 15.5455V2.45455C19.5909 2.00268 19.1635 1.63636 18.6364 1.63636ZM3.36364 0C1.78209 0 0.5 1.09894 0.5 2.45455V15.5455C0.5 16.9011 1.78209 18 3.36364 18H18.6364C20.2179 18 21.5 16.9011 21.5 15.5455V2.45455C21.5 1.09894 20.2179 0 18.6364 0H3.36364ZM3.84091 3.68182C3.84091 3.22995 4.26827 2.86364 4.79545 2.86364H9.56818C10.0954 2.86364 10.5227 3.22995 10.5227 3.68182V7.77273C10.5227 8.2246 10.0954 8.59091 9.56818 8.59091H4.79545C4.26827 8.59091 3.84091 8.2246 3.84091 7.77273V3.68182ZM4.79545 9.40909C4.26827 9.40909 3.84091 9.7754 3.84091 10.2273V14.3182C3.84091 14.7701 4.26827 15.1364 4.79545 15.1364H9.56818C10.0954 15.1364 10.5227 14.7701 10.5227 14.3182V10.2273C10.5227 9.7754 10.0954 9.40909 9.56818 9.40909H4.79545ZM11.4773 10.2273C11.4773 9.7754 11.9046 9.40909 12.4318 9.40909H17.2045C17.7317 9.40909 18.1591 9.7754 18.1591 10.2273V14.3182C18.1591 14.7701 17.7317 15.1364 17.2045 15.1364H12.4318C11.9046 15.1364 11.4773 14.7701 11.4773 14.3182V10.2273ZM12.4318 2.86364C11.9046 2.86364 11.4773 3.22995 11.4773 3.68182V7.77273C11.4773 8.2246 11.9046 8.59091 12.4318 8.59091H17.2045C17.7317 8.59091 18.1591 8.2246 18.1591 7.77273V3.68182C18.1591 3.22995 17.7317 2.86364 17.2045 2.86364H12.4318Z" fill="#EFEFEF"/>
</svg>
