<svg width="24" height="24" viewBox="0 0 24 24" fill="none" xmlns="http://www.w3.org/2000/svg">
<path fill-rule="evenodd" clip-rule="evenodd" d="M4 3H20C20.5523 3 21 3.44772 21 4V20C21 20.5523 20.5523 21 20 21H4C3.44772 21 3 20.5523 3 20V4C3 3.44772 3.44772 3 4 3ZM1 4C1 2.34315 2.34315 1 4 1H20C21.6569 1 23 2.34315 23 4V20C23 21.6569 21.6569 23 20 23H4C2.34315 23 1 21.6569 1 20V4ZM5.5 5C4.94772 5 4.5 5.44772 4.5 6V7C4.5 7.55228 4.94772 8 5.5 8H7.91176C8.46405 8 8.91176 7.55228 8.91176 7V6C8.91176 5.44772 8.46405 5 7.91176 5H5.5ZM9.79415 6C9.79415 5.44772 10.2419 5 10.7942 5H13.2059C13.7582 5 14.2059 5.44772 14.2059 6V7C14.2059 7.55228 13.7582 8 13.2059 8H10.7942C10.2419 8 9.79415 7.55228 9.79415 7V6ZM16.0882 5C15.536 5 15.0882 5.44772 15.0882 6V7C15.0882 7.55228 15.536 8 16.0882 8H18.5C19.0523 8 19.5 7.55228 19.5 7V6C19.5 5.44772 19.0523 5 18.5 5H16.0882ZM4.5 11.5C4.5 10.9477 4.94772 10.5 5.5 10.5H7.91176C8.46405 10.5 8.91176 10.9477 8.91176 11.5V12.5C8.91176 13.0523 8.46405 13.5 7.91176 13.5H5.5C4.94772 13.5 4.5 13.0523 4.5 12.5V11.5ZM10.7942 10.5C10.2419 10.5 9.79415 10.9477 9.79415 11.5V12.5C9.79415 13.0523 10.2419 13.5 10.7942 13.5H13.2059C13.7582 13.5 14.2059 13.0523 14.2059 12.5V11.5C14.2059 10.9477 13.7582 10.5 13.2059 10.5H10.7942ZM15.0882 11.5C15.0882 10.9477 15.536 10.5 16.0882 10.5H18.5C19.0523 10.5 19.5 10.9477 19.5 11.5V12.5C19.5 13.0523 19.0523 13.5 18.5 13.5H16.0882C15.536 13.5 15.0882 13.0523 15.0882 12.5V11.5ZM5.5 16C4.94772 16 4.5 16.4477 4.5 17V18C4.5 18.5523 4.94772 19 5.5 19H7.91176C8.46405 19 8.91176 18.5523 8.91176 18V17C8.91176 16.4477 8.46405 16 7.91176 16H5.5ZM9.79415 17C9.79415 16.4477 10.2419 16 10.7942 16H13.2059C13.7582 16 14.2059 16.4477 14.2059 17V18C14.2059 18.5523 13.7582 19 13.2059 19H10.7942C10.2419 19 9.79415 18.5523 9.79415 18V17ZM16.0882 16C15.536 16 15.0882 16.4477 15.0882 17V18C15.0882 18.5523 15.536 19 16.0882 19H18.5C19.0523 19 19.5 18.5523 19.5 18V17C19.5 16.4477 19.0523 16 18.5 16H16.0882Z" fill="url(#paint0_linear_371_665)"/>
<defs>
<linearGradient id="paint0_linear_371_665" x1="12" y1="1" x2="12" y2="23" gradientUnits="userSpaceOnUse">
<stop stop-color="white"/>
<stop offset="1" stop-color="#ADACAC"/>
</linearGradient>
</defs>
</svg>
