<svg width="22" height="18" viewBox="0 0 22 18" fill="none" xmlns="http://www.w3.org/2000/svg">
<path fill-rule="evenodd" clip-rule="evenodd" d="M3.36364 1.63636H18.6364C19.1635 1.63636 19.5909 2.00268 19.5909 2.45455V15.5455C19.5909 15.9973 19.1635 16.3636 18.6364 16.3636H3.36364C2.83646 16.3636 2.40909 15.9973 2.40909 15.5455V2.45455C2.40909 2.00268 2.83646 1.63636 3.36364 1.63636ZM0.5 2.45455C0.5 1.09894 1.78209 0 3.36364 0H18.6364C20.2179 0 21.5 1.09894 21.5 2.45455V15.5455C21.5 16.9011 20.2179 18 18.6364 18H3.36364C1.78209 18 0.5 16.9011 0.5 15.5455V2.45455ZM4.79545 3.27273C4.26827 3.27273 3.84091 3.63904 3.84091 4.09091V4.90909C3.84091 5.36096 4.26827 5.72727 4.79545 5.72727H7.09759C7.62477 5.72727 8.05214 5.36096 8.05214 4.90909V4.09091C8.05214 3.63904 7.62477 3.27273 7.09759 3.27273H4.79545ZM8.89442 4.09091C8.89442 3.63904 9.32178 3.27273 9.84896 3.27273H12.1511C12.6783 3.27273 13.1056 3.63904 13.1056 4.09091V4.90909C13.1056 5.36096 12.6783 5.72727 12.1511 5.72727H9.84896C9.32178 5.72727 8.89442 5.36096 8.89442 4.90909V4.09091ZM14.9024 3.27273C14.3752 3.27273 13.9479 3.63904 13.9479 4.09091V4.90909C13.9479 5.36096 14.3752 5.72727 14.9024 5.72727H17.2046C17.7317 5.72727 18.1591 5.36096 18.1591 4.90909V4.09091C18.1591 3.63904 17.7317 3.27273 17.2046 3.27273H14.9024ZM3.84091 8.59091C3.84091 8.13904 4.26827 7.77273 4.79545 7.77273H7.09759C7.62477 7.77273 8.05214 8.13904 8.05214 8.59091V9.40909C8.05214 9.86096 7.62477 10.2273 7.09759 10.2273H4.79545C4.26827 10.2273 3.84091 9.86096 3.84091 9.40909V8.59091ZM9.84896 7.77273C9.32178 7.77273 8.89442 8.13904 8.89442 8.59091V9.40909C8.89442 9.86096 9.32178 10.2273 9.84896 10.2273H12.1511C12.6783 10.2273 13.1056 9.86096 13.1056 9.40909V8.59091C13.1056 8.13904 12.6783 7.77273 12.1511 7.77273H9.84896ZM13.9479 8.59091C13.9479 8.13904 14.3752 7.77273 14.9024 7.77273H17.2046C17.7317 7.77273 18.1591 8.13904 18.1591 8.59091V9.40909C18.1591 9.86096 17.7317 10.2273 17.2046 10.2273H14.9024C14.3752 10.2273 13.9479 9.86096 13.9479 9.40909V8.59091ZM4.79545 12.2727C4.26827 12.2727 3.84091 12.639 3.84091 13.0909V13.9091C3.84091 14.361 4.26827 14.7273 4.79545 14.7273H7.09759C7.62477 14.7273 8.05214 14.361 8.05214 13.9091V13.0909C8.05214 12.639 7.62477 12.2727 7.09759 12.2727H4.79545ZM8.89442 13.0909C8.89442 12.639 9.32178 12.2727 9.84896 12.2727H12.1511C12.6783 12.2727 13.1056 12.639 13.1056 13.0909V13.9091C13.1056 14.361 12.6783 14.7273 12.1511 14.7273H9.84896C9.32178 14.7273 8.89442 14.361 8.89442 13.9091V13.0909ZM14.9024 12.2727C14.3752 12.2727 13.9479 12.639 13.9479 13.0909V13.9091C13.9479 14.361 14.3752 14.7273 14.9024 14.7273H17.2046C17.7317 14.7273 18.1591 14.361 18.1591 13.9091V13.0909C18.1591 12.639 17.7317 12.2727 17.2046 12.2727H14.9024Z" fill="#EFEFEF"/>
</svg>
