<svg width="34" height="27" viewBox="0 0 34 27" fill="none" xmlns="http://www.w3.org/2000/svg">
<g filter="url(#filter0_i_531_2563)">
<rect width="34" height="27" rx="2" fill="#9199AC"/>
<path d="M3 0V27" stroke="#5F687D" stroke-width="0.5"/>
<path d="M7.5 0V27" stroke="#5F687D" stroke-width="0.5"/>
<path d="M12 0V27" stroke="#5F687D" stroke-width="0.5"/>
<path d="M16.5 0V27" stroke="#5F687D" stroke-width="0.5"/>
<path d="M34 10L0 10" stroke="#5F687D" stroke-width="0.5"/>
<path d="M34 13.5L0 13.5" stroke="#5F687D" stroke-width="0.5"/>
<path d="M34 17L0 17" stroke="#5F687D" stroke-width="0.5"/>
<path d="M34 20.5L0 20.5" stroke="#5F687D" stroke-width="0.5"/>
<path d="M33.5386 3L0.397175 3" stroke="#5F687D" stroke-width="0.5"/>
<path d="M34 6.5L1.07288e-06 6.5" stroke="#5F687D" stroke-width="0.5"/>
<path d="M34 24L1.07288e-06 24" stroke="#5F687D" stroke-width="0.5"/>
<path d="M25.5 0V27" stroke="#5F687D" stroke-width="0.5"/>
<path d="M21 0V27" stroke="#5F687D" stroke-width="0.5"/>
<path d="M30 0V27" stroke="#5F687D" stroke-width="0.5"/>
</g>
<defs>
<filter id="filter0_i_531_2563" x="0" y="0" width="34" height="27" filterUnits="userSpaceOnUse" color-interpolation-filters="sRGB">
<feFlood flood-opacity="0" result="BackgroundImageFix"/>
<feBlend mode="normal" in="SourceGraphic" in2="BackgroundImageFix" result="shape"/>
<feColorMatrix in="SourceAlpha" type="matrix" values="0 0 0 0 0 0 0 0 0 0 0 0 0 0 0 0 0 0 127 0" result="hardAlpha"/>
<feOffset/>
<feGaussianBlur stdDeviation="1"/>
<feComposite in2="hardAlpha" operator="arithmetic" k2="-1" k3="1"/>
<feColorMatrix type="matrix" values="0 0 0 0 0 0 0 0 0 0 0 0 0 0 0 0 0 0 0.8 0"/>
<feBlend mode="normal" in2="shape" result="effect1_innerShadow_531_2563"/>
</filter>
</defs>
</svg>
