<svg width="24" height="24" viewBox="0 0 24 24" fill="none" xmlns="http://www.w3.org/2000/svg">
<g clip-path="url(#clip0_295_465)">
<path d="M24 12C24 18.6274 18.6274 24 12 24C5.37258 24 0 18.6274 0 12C0 5.37258 5.37258 0 12 0C18.6274 0 24 5.37258 24 12Z" fill="#EF4F4F"/>
<path fill-rule="evenodd" clip-rule="evenodd" d="M11.8828 3.44146C12.6776 3.44146 13.3219 4.13922 13.3219 4.99997L13.3219 13.4099C13.3219 14.2706 12.6776 14.9684 11.8828 14.9684C11.088 14.9684 10.4437 14.2706 10.4437 13.4099L10.4437 4.99997C10.4437 4.13922 11.088 3.44146 11.8828 3.44146Z" fill="#F0F2F5"/>
<path d="M13.5123 18.0399C13.5123 18.9401 12.7828 19.6699 11.8828 19.6699C10.9829 19.6699 10.2533 18.9401 10.2533 18.0399C10.2533 17.1397 10.9829 16.4099 11.8828 16.4099C12.7828 16.4099 13.5123 17.1397 13.5123 18.0399Z" fill="#F0F2F5"/>
</g>
<defs>
<clipPath id="clip0_295_465">
<rect width="24" height="24" fill="white"/>
</clipPath>
</defs>
</svg>
