<svg width="25" height="25" viewBox="0 0 25 25" fill="none" xmlns="http://www.w3.org/2000/svg">
<path fill-rule="evenodd" clip-rule="evenodd" d="M18.1481 18.1483C18.441 17.8554 18.9159 17.8554 19.2088 18.1483L24.0302 22.9697C24.3231 23.2626 24.3231 23.7375 24.0302 24.0303C23.7373 24.3232 23.2625 24.3232 22.9696 24.0303L18.1481 19.2089C17.8552 18.916 17.8552 18.4412 18.1481 18.1483Z" fill="#EFEFEF"/>
<path fill-rule="evenodd" clip-rule="evenodd" d="M11.4464 20.3929C16.3874 20.3929 20.3929 16.3874 20.3929 11.4464C20.3929 6.50545 16.3874 2.5 11.4464 2.5C6.50545 2.5 2.5 6.50545 2.5 11.4464C2.5 16.3874 6.50545 20.3929 11.4464 20.3929ZM11.4464 21.8929C17.2158 21.8929 21.8929 17.2158 21.8929 11.4464C21.8929 5.67703 17.2158 1 11.4464 1C5.67703 1 1 5.67703 1 11.4464C1 17.2158 5.67703 21.8929 11.4464 21.8929Z" fill="#EFEFEF"/>
<path fill-rule="evenodd" clip-rule="evenodd" d="M5.75 11.5C5.75 11.0858 6.08579 10.75 6.5 10.75H16.5C16.9142 10.75 17.25 11.0858 17.25 11.5C17.25 11.9142 16.9142 12.25 16.5 12.25H6.5C6.08579 12.25 5.75 11.9142 5.75 11.5Z" fill="#EFEFEF"/>
</svg>
