<svg width="303" height="61" viewBox="0 0 303 61" fill="none" xmlns="http://www.w3.org/2000/svg">
<g filter="url(#filter0_i_211_228)">
<path d="M0 0H273C289.569 0 303 13.4315 303 30V31C303 47.5685 289.569 61 273 61H0V0Z" fill="url(#paint0_linear_211_228)"/>
<circle cx="72" cy="30.5" r="12" fill="#113B61"/>
<path d="M67.96 27.844C68.0347 26.8627 68.4133 26.0947 69.096 25.54C69.7787 24.9853 70.664 24.708 71.752 24.708C72.4773 24.708 73.1013 24.8413 73.624 25.108C74.1573 25.364 74.5573 25.716 74.824 26.164C75.1013 26.612 75.24 27.1187 75.24 27.684C75.24 28.3453 75.048 28.916 74.664 29.396C74.2907 29.876 73.8 30.1853 73.192 30.324V30.404C73.8853 30.5747 74.4347 30.9107 74.84 31.412C75.2453 31.9133 75.448 32.5693 75.448 33.38C75.448 33.988 75.3093 34.5373 75.032 35.028C74.7547 35.508 74.3387 35.8867 73.784 36.164C73.2293 36.4413 72.5627 36.58 71.784 36.58C70.6533 36.58 69.7253 36.2867 69 35.7C68.2747 35.1027 67.8693 34.26 67.784 33.172H69.192C69.2667 33.812 69.528 34.3347 69.976 34.74C70.424 35.1453 71.0213 35.348 71.768 35.348C72.5147 35.348 73.08 35.156 73.464 34.772C73.8587 34.3773 74.056 33.8707 74.056 33.252C74.056 32.452 73.7893 31.876 73.256 31.524C72.7227 31.172 71.9173 30.996 70.84 30.996H70.472V29.78H70.856C71.8373 29.7693 72.5787 29.6093 73.08 29.3C73.5813 28.98 73.832 28.4893 73.832 27.828C73.832 27.2627 73.6453 26.8093 73.272 26.468C72.9093 26.1267 72.3867 25.956 71.704 25.956C71.0427 25.956 70.5093 26.1267 70.104 26.468C69.6987 26.8093 69.4587 27.268 69.384 27.844H67.96Z" fill="#F0F2F5"/>
<path d="M102.659 27.728C102.659 28.3993 102.501 29.0327 102.184 29.628C101.867 30.2233 101.361 30.711 100.664 31.091C99.9673 31.4583 99.0743 31.642 97.985 31.642H95.591V37H93.425V23.795H97.985C98.9983 23.795 99.8533 23.9723 100.55 24.327C101.259 24.669 101.785 25.1377 102.127 25.733C102.482 26.3283 102.659 26.9933 102.659 27.728ZM97.985 29.875C98.8083 29.875 99.4227 29.6913 99.828 29.324C100.233 28.944 100.436 28.412 100.436 27.728C100.436 26.284 99.619 25.562 97.985 25.562H95.591V29.875H97.985ZM104.031 31.718C104.031 30.6667 104.247 29.7357 104.677 28.925C105.121 28.1143 105.716 27.4873 106.463 27.044C107.223 26.588 108.059 26.36 108.971 26.36C109.795 26.36 110.51 26.5247 111.118 26.854C111.739 27.1707 112.233 27.5697 112.6 28.051V26.531H114.785V37H112.6V35.442C112.233 35.936 111.733 36.3477 111.099 36.677C110.466 37.0063 109.744 37.171 108.933 37.171C108.034 37.171 107.211 36.943 106.463 36.487C105.716 36.0183 105.121 35.3723 104.677 34.549C104.247 33.713 104.031 32.7693 104.031 31.718ZM112.6 31.756C112.6 31.034 112.448 30.407 112.144 29.875C111.853 29.343 111.467 28.9377 110.985 28.659C110.504 28.3803 109.985 28.241 109.427 28.241C108.87 28.241 108.351 28.3803 107.869 28.659C107.388 28.925 106.995 29.324 106.691 29.856C106.4 30.3753 106.254 30.996 106.254 31.718C106.254 32.44 106.4 33.0733 106.691 33.618C106.995 34.1627 107.388 34.5807 107.869 34.872C108.363 35.1507 108.883 35.29 109.427 35.29C109.985 35.29 110.504 35.1507 110.985 34.872C111.467 34.5933 111.853 34.188 112.144 33.656C112.448 33.1113 112.6 32.478 112.6 31.756ZM121.459 37.171C120.635 37.171 119.894 37.0253 119.236 36.734C118.59 36.43 118.077 36.0247 117.697 35.518C117.317 34.9987 117.114 34.4223 117.089 33.789H119.331C119.369 34.2323 119.578 34.606 119.958 34.91C120.35 35.2013 120.838 35.347 121.421 35.347C122.029 35.347 122.497 35.233 122.827 35.005C123.169 34.7643 123.34 34.4603 123.34 34.093C123.34 33.7003 123.15 33.409 122.77 33.219C122.402 33.029 121.813 32.82 121.003 32.592C120.217 32.3767 119.578 32.1677 119.084 31.965C118.59 31.7623 118.159 31.452 117.792 31.034C117.437 30.616 117.26 30.065 117.26 29.381C117.26 28.8237 117.424 28.317 117.754 27.861C118.083 27.3923 118.552 27.025 119.16 26.759C119.78 26.493 120.49 26.36 121.288 26.36C122.478 26.36 123.435 26.664 124.157 27.272C124.891 27.8673 125.284 28.6843 125.335 29.723H123.169C123.131 29.2543 122.941 28.8807 122.599 28.602C122.257 28.3233 121.794 28.184 121.212 28.184C120.642 28.184 120.205 28.2917 119.901 28.507C119.597 28.7223 119.445 29.0073 119.445 29.362C119.445 29.6407 119.546 29.875 119.749 30.065C119.951 30.255 120.198 30.407 120.49 30.521C120.781 30.6223 121.212 30.7553 121.782 30.92C122.542 31.1227 123.162 31.3317 123.644 31.547C124.138 31.7497 124.562 32.0537 124.917 32.459C125.271 32.8643 125.455 33.4027 125.468 34.074C125.468 34.6693 125.303 35.2013 124.974 35.67C124.644 36.1387 124.176 36.506 123.568 36.772C122.972 37.038 122.269 37.171 121.459 37.171ZM131.637 37.171C130.813 37.171 130.072 37.0253 129.414 36.734C128.768 36.43 128.255 36.0247 127.875 35.518C127.495 34.9987 127.292 34.4223 127.267 33.789H129.509C129.547 34.2323 129.756 34.606 130.136 34.91C130.528 35.2013 131.016 35.347 131.599 35.347C132.207 35.347 132.675 35.233 133.005 35.005C133.347 34.7643 133.518 34.4603 133.518 34.093C133.518 33.7003 133.328 33.409 132.948 33.219C132.58 33.029 131.991 32.82 131.181 32.592C130.395 32.3767 129.756 32.1677 129.262 31.965C128.768 31.7623 128.337 31.452 127.97 31.034C127.615 30.616 127.438 30.065 127.438 29.381C127.438 28.8237 127.602 28.317 127.932 27.861C128.261 27.3923 128.73 27.025 129.338 26.759C129.958 26.493 130.668 26.36 131.466 26.36C132.656 26.36 133.613 26.664 134.335 27.272C135.069 27.8673 135.462 28.6843 135.513 29.723H133.347C133.309 29.2543 133.119 28.8807 132.777 28.602C132.435 28.3233 131.972 28.184 131.39 28.184C130.82 28.184 130.383 28.2917 130.079 28.507C129.775 28.7223 129.623 29.0073 129.623 29.362C129.623 29.6407 129.724 29.875 129.927 30.065C130.129 30.255 130.376 30.407 130.668 30.521C130.959 30.6223 131.39 30.7553 131.96 30.92C132.72 31.1227 133.34 31.3317 133.822 31.547C134.316 31.7497 134.74 32.0537 135.095 32.459C135.449 32.8643 135.633 33.4027 135.646 34.074C135.646 34.6693 135.481 35.2013 135.152 35.67C134.822 36.1387 134.354 36.506 133.746 36.772C133.15 37.038 132.447 37.171 131.637 37.171ZM152.075 26.531L148.826 37H146.546L144.437 29.267L142.328 37H140.048L136.78 26.531H138.984L141.169 34.948L143.392 26.531H145.653L147.781 34.91L149.947 26.531H152.075ZM158.263 37.171C157.275 37.171 156.382 36.9493 155.584 36.506C154.786 36.05 154.159 35.4167 153.703 34.606C153.247 33.7827 153.019 32.8327 153.019 31.756C153.019 30.692 153.253 29.7483 153.722 28.925C154.19 28.1017 154.83 27.4683 155.641 27.025C156.451 26.5817 157.357 26.36 158.358 26.36C159.358 26.36 160.264 26.5817 161.075 27.025C161.885 27.4683 162.525 28.1017 162.994 28.925C163.462 29.7483 163.697 30.692 163.697 31.756C163.697 32.82 163.456 33.7637 162.975 34.587C162.493 35.4103 161.835 36.05 160.999 36.506C160.175 36.9493 159.263 37.171 158.263 37.171ZM158.263 35.29C158.82 35.29 159.339 35.157 159.821 34.891C160.315 34.625 160.714 34.226 161.018 33.694C161.322 33.162 161.474 32.516 161.474 31.756C161.474 30.996 161.328 30.3563 161.037 29.837C160.745 29.305 160.359 28.906 159.878 28.64C159.396 28.374 158.877 28.241 158.32 28.241C157.762 28.241 157.243 28.374 156.762 28.64C156.293 28.906 155.919 29.305 155.641 29.837C155.362 30.3563 155.223 30.996 155.223 31.756C155.223 32.8833 155.508 33.7573 156.078 34.378C156.66 34.986 157.389 35.29 158.263 35.29ZM168.033 28.051C168.349 27.519 168.767 27.1073 169.287 26.816C169.819 26.512 170.446 26.36 171.168 26.36V28.602H170.617C169.768 28.602 169.122 28.8173 168.679 29.248C168.248 29.6787 168.033 30.426 168.033 31.49V37H165.867V26.531H168.033V28.051ZM172.465 31.718C172.465 30.6667 172.68 29.7357 173.111 28.925C173.554 28.1143 174.15 27.4873 174.897 27.044C175.657 26.588 176.499 26.36 177.424 26.36C178.108 26.36 178.779 26.512 179.438 26.816C180.109 27.1073 180.641 27.5 181.034 27.994V22.94H183.219V37H181.034V35.423C180.679 35.9297 180.185 36.3477 179.552 36.677C178.931 37.0063 178.216 37.171 177.405 37.171C176.493 37.171 175.657 36.943 174.897 36.487C174.15 36.0183 173.554 35.3723 173.111 34.549C172.68 33.713 172.465 32.7693 172.465 31.718ZM181.034 31.756C181.034 31.034 180.882 30.407 180.578 29.875C180.287 29.343 179.9 28.9377 179.419 28.659C178.938 28.3803 178.418 28.241 177.861 28.241C177.304 28.241 176.784 28.3803 176.303 28.659C175.822 28.925 175.429 29.324 175.125 29.856C174.834 30.3753 174.688 30.996 174.688 31.718C174.688 32.44 174.834 33.0733 175.125 33.618C175.429 34.1627 175.822 34.5807 176.303 34.872C176.797 35.1507 177.316 35.29 177.861 35.29C178.418 35.29 178.938 35.1507 179.419 34.872C179.9 34.5933 180.287 34.188 180.578 33.656C180.882 33.1113 181.034 32.478 181.034 31.756ZM197.916 37L194.876 31.718H193.223V37H191.057V23.795H195.617C196.63 23.795 197.485 23.9723 198.182 24.327C198.891 24.6817 199.417 25.1567 199.759 25.752C200.113 26.3473 200.291 27.0123 200.291 27.747C200.291 28.6083 200.037 29.3937 199.531 30.103C199.037 30.7997 198.27 31.2747 197.232 31.528L200.5 37H197.916ZM193.223 29.989H195.617C196.427 29.989 197.035 29.7863 197.441 29.381C197.859 28.9757 198.068 28.431 198.068 27.747C198.068 27.063 197.865 26.531 197.46 26.151C197.054 25.7583 196.44 25.562 195.617 25.562H193.223V29.989ZM212.685 31.509C212.685 31.9017 212.66 32.2563 212.609 32.573H204.61C204.673 33.409 204.984 34.0803 205.541 34.587C206.098 35.0937 206.782 35.347 207.593 35.347C208.758 35.347 209.582 34.8593 210.063 33.884H212.4C212.083 34.8467 211.507 35.6383 210.671 36.259C209.848 36.867 208.822 37.171 207.593 37.171C206.592 37.171 205.693 36.9493 204.895 36.506C204.11 36.05 203.489 35.4167 203.033 34.606C202.59 33.7827 202.368 32.8327 202.368 31.756C202.368 30.6793 202.583 29.7357 203.014 28.925C203.457 28.1017 204.072 27.4683 204.857 27.025C205.655 26.5817 206.567 26.36 207.593 26.36C208.581 26.36 209.461 26.5753 210.234 27.006C211.007 27.4367 211.608 28.0447 212.039 28.83C212.47 29.6027 212.685 30.4957 212.685 31.509ZM210.424 30.825C210.411 30.027 210.126 29.3873 209.569 28.906C209.012 28.4247 208.321 28.184 207.498 28.184C206.751 28.184 206.111 28.4247 205.579 28.906C205.047 29.3747 204.73 30.0143 204.629 30.825H210.424ZM218.645 37.171C217.822 37.171 217.081 37.0253 216.422 36.734C215.776 36.43 215.263 36.0247 214.883 35.518C214.503 34.9987 214.3 34.4223 214.275 33.789H216.517C216.555 34.2323 216.764 34.606 217.144 34.91C217.537 35.2013 218.024 35.347 218.607 35.347C219.215 35.347 219.684 35.233 220.013 35.005C220.355 34.7643 220.526 34.4603 220.526 34.093C220.526 33.7003 220.336 33.409 219.956 33.219C219.589 33.029 219 32.82 218.189 32.592C217.404 32.3767 216.764 32.1677 216.27 31.965C215.776 31.7623 215.345 31.452 214.978 31.034C214.623 30.616 214.446 30.065 214.446 29.381C214.446 28.8237 214.611 28.317 214.94 27.861C215.269 27.3923 215.738 27.025 216.346 26.759C216.967 26.493 217.676 26.36 218.474 26.36C219.665 26.36 220.621 26.664 221.343 27.272C222.078 27.8673 222.47 28.6843 222.521 29.723H220.355C220.317 29.2543 220.127 28.8807 219.785 28.602C219.443 28.3233 218.981 28.184 218.398 28.184C217.828 28.184 217.391 28.2917 217.087 28.507C216.783 28.7223 216.631 29.0073 216.631 29.362C216.631 29.6407 216.732 29.875 216.935 30.065C217.138 30.255 217.385 30.407 217.676 30.521C217.967 30.6223 218.398 30.7553 218.968 30.92C219.728 31.1227 220.349 31.3317 220.83 31.547C221.324 31.7497 221.748 32.0537 222.103 32.459C222.458 32.8643 222.641 33.4027 222.654 34.074C222.654 34.6693 222.489 35.2013 222.16 35.67C221.831 36.1387 221.362 36.506 220.754 36.772C220.159 37.038 219.456 37.171 218.645 37.171ZM234.618 31.509C234.618 31.9017 234.593 32.2563 234.542 32.573H226.543C226.606 33.409 226.917 34.0803 227.474 34.587C228.031 35.0937 228.715 35.347 229.526 35.347C230.691 35.347 231.515 34.8593 231.996 33.884H234.333C234.016 34.8467 233.44 35.6383 232.604 36.259C231.781 36.867 230.755 37.171 229.526 37.171C228.525 37.171 227.626 36.9493 226.828 36.506C226.043 36.05 225.422 35.4167 224.966 34.606C224.523 33.7827 224.301 32.8327 224.301 31.756C224.301 30.6793 224.516 29.7357 224.947 28.925C225.39 28.1017 226.005 27.4683 226.79 27.025C227.588 26.5817 228.5 26.36 229.526 26.36C230.514 26.36 231.394 26.5753 232.167 27.006C232.94 27.4367 233.541 28.0447 233.972 28.83C234.403 29.6027 234.618 30.4957 234.618 31.509ZM232.357 30.825C232.344 30.027 232.059 29.3873 231.502 28.906C230.945 28.4247 230.254 28.184 229.431 28.184C228.684 28.184 228.044 28.4247 227.512 28.906C226.98 29.3747 226.663 30.0143 226.562 30.825H232.357ZM239.305 28.298V34.093C239.305 34.4857 239.394 34.7707 239.571 34.948C239.761 35.1127 240.078 35.195 240.521 35.195H241.851V37H240.141C239.166 37 238.418 36.772 237.899 36.316C237.38 35.86 237.12 35.119 237.12 34.093V28.298H235.885V26.531H237.12V23.928H239.305V26.531H241.851V28.298H239.305Z" fill="#14181F"/>
</g>
<defs>
<filter id="filter0_i_211_228" x="0" y="0" width="303" height="61" filterUnits="userSpaceOnUse" color-interpolation-filters="sRGB">
<feFlood flood-opacity="0" result="BackgroundImageFix"/>
<feBlend mode="normal" in="SourceGraphic" in2="BackgroundImageFix" result="shape"/>
<feColorMatrix in="SourceAlpha" type="matrix" values="0 0 0 0 0 0 0 0 0 0 0 0 0 0 0 0 0 0 127 0" result="hardAlpha"/>
<feOffset/>
<feGaussianBlur stdDeviation="4"/>
<feComposite in2="hardAlpha" operator="arithmetic" k2="-1" k3="1"/>
<feColorMatrix type="matrix" values="0 0 0 0 0 0 0 0 0 0 0 0 0 0 0 0 0 0 0.97 0"/>
<feBlend mode="normal" in2="shape" result="effect1_innerShadow_211_228"/>
</filter>
<linearGradient id="paint0_linear_211_228" x1="0" y1="30.1648" x2="303" y2="30.1648" gradientUnits="userSpaceOnUse">
<stop stop-color="#A4CCF0"/>
<stop offset="1" stop-color="#2175C2"/>
</linearGradient>
</defs>
</svg>
