<svg width="448" height="61" viewBox="0 0 448 61" fill="none" xmlns="http://www.w3.org/2000/svg">
<g filter="url(#filter0_i_211_254)">
<path d="M0 0H418C434.569 0 448 13.4315 448 30V31C448 47.5685 434.569 61 418 61H0V0Z" fill="url(#paint0_linear_211_254)"/>
<circle cx="162" cy="30.5" r="12" fill="#113B61"/>
<path d="M159.608 26.26V24.932H162.616V36.5H161.144V26.26H159.608Z" fill="#F0F2F5"/>
<path d="M190.284 37L187.244 31.718H185.591V37H183.425V23.795H187.985C188.998 23.795 189.853 23.9723 190.55 24.327C191.259 24.6817 191.785 25.1567 192.127 25.752C192.482 26.3473 192.659 27.0123 192.659 27.747C192.659 28.6083 192.406 29.3937 191.899 30.103C191.405 30.7997 190.639 31.2747 189.6 31.528L192.868 37H190.284ZM185.591 29.989H187.985C188.796 29.989 189.404 29.7863 189.809 29.381C190.227 28.9757 190.436 28.431 190.436 27.747C190.436 27.063 190.233 26.531 189.828 26.151C189.423 25.7583 188.808 25.562 187.985 25.562H185.591V29.989ZM205.053 31.509C205.053 31.9017 205.028 32.2563 204.977 32.573H196.978C197.042 33.409 197.352 34.0803 197.909 34.587C198.467 35.0937 199.151 35.347 199.961 35.347C201.127 35.347 201.95 34.8593 202.431 33.884H204.768C204.452 34.8467 203.875 35.6383 203.039 36.259C202.216 36.867 201.19 37.171 199.961 37.171C198.961 37.171 198.061 36.9493 197.263 36.506C196.478 36.05 195.857 35.4167 195.401 34.606C194.958 33.7827 194.736 32.8327 194.736 31.756C194.736 30.6793 194.952 29.7357 195.382 28.925C195.826 28.1017 196.44 27.4683 197.225 27.025C198.023 26.5817 198.935 26.36 199.961 26.36C200.949 26.36 201.83 26.5753 202.602 27.006C203.375 27.4367 203.977 28.0447 204.407 28.83C204.838 29.6027 205.053 30.4957 205.053 31.509ZM202.792 30.825C202.78 30.027 202.495 29.3873 201.937 28.906C201.38 28.4247 200.69 28.184 199.866 28.184C199.119 28.184 198.479 28.4247 197.947 28.906C197.415 29.3747 197.099 30.0143 196.997 30.825H202.792ZM211.431 26.36C212.242 26.36 212.958 26.5247 213.578 26.854C214.212 27.1707 214.706 27.5697 215.06 28.051V26.531H217.245V37.171C217.245 38.1337 217.043 38.9887 216.637 39.736C216.232 40.496 215.643 41.0913 214.87 41.522C214.11 41.9527 213.198 42.168 212.134 42.168C210.716 42.168 209.538 41.8323 208.6 41.161C207.663 40.5023 207.131 39.603 207.004 38.463H209.151C209.316 39.0077 209.664 39.4447 210.196 39.774C210.741 40.116 211.387 40.287 212.134 40.287C213.008 40.287 213.711 40.021 214.243 39.489C214.788 38.957 215.06 38.1843 215.06 37.171V35.423C214.693 35.917 214.193 36.335 213.559 36.677C212.939 37.0063 212.229 37.171 211.431 37.171C210.519 37.171 209.683 36.943 208.923 36.487C208.176 36.0183 207.581 35.3723 207.137 34.549C206.707 33.713 206.491 32.7693 206.491 31.718C206.491 30.6667 206.707 29.7357 207.137 28.925C207.581 28.1143 208.176 27.4873 208.923 27.044C209.683 26.588 210.519 26.36 211.431 26.36ZM215.06 31.756C215.06 31.034 214.908 30.407 214.604 29.875C214.313 29.343 213.927 28.9377 213.445 28.659C212.964 28.3803 212.445 28.241 211.887 28.241C211.33 28.241 210.811 28.3803 210.329 28.659C209.848 28.925 209.455 29.324 209.151 29.856C208.86 30.3753 208.714 30.996 208.714 31.718C208.714 32.44 208.86 33.0733 209.151 33.618C209.455 34.1627 209.848 34.5807 210.329 34.872C210.823 35.1507 211.343 35.29 211.887 35.29C212.445 35.29 212.964 35.1507 213.445 34.872C213.927 34.5933 214.313 34.188 214.604 33.656C214.908 33.1113 215.06 32.478 215.06 31.756ZM221.221 25.144C220.828 25.144 220.499 25.011 220.233 24.745C219.967 24.479 219.834 24.1497 219.834 23.757C219.834 23.3643 219.967 23.035 220.233 22.769C220.499 22.503 220.828 22.37 221.221 22.37C221.601 22.37 221.924 22.503 222.19 22.769C222.456 23.035 222.589 23.3643 222.589 23.757C222.589 24.1497 222.456 24.479 222.19 24.745C221.924 25.011 221.601 25.144 221.221 25.144ZM222.285 26.531V37H220.119V26.531H222.285ZM228.957 37.171C228.134 37.171 227.393 37.0253 226.734 36.734C226.088 36.43 225.575 36.0247 225.195 35.518C224.815 34.9987 224.612 34.4223 224.587 33.789H226.829C226.867 34.2323 227.076 34.606 227.456 34.91C227.849 35.2013 228.336 35.347 228.919 35.347C229.527 35.347 229.996 35.233 230.325 35.005C230.667 34.7643 230.838 34.4603 230.838 34.093C230.838 33.7003 230.648 33.409 230.268 33.219C229.901 33.029 229.312 32.82 228.501 32.592C227.716 32.3767 227.076 32.1677 226.582 31.965C226.088 31.7623 225.657 31.452 225.29 31.034C224.935 30.616 224.758 30.065 224.758 29.381C224.758 28.8237 224.923 28.317 225.252 27.861C225.581 27.3923 226.05 27.025 226.658 26.759C227.279 26.493 227.988 26.36 228.786 26.36C229.977 26.36 230.933 26.664 231.655 27.272C232.39 27.8673 232.782 28.6843 232.833 29.723H230.667C230.629 29.2543 230.439 28.8807 230.097 28.602C229.755 28.3233 229.293 28.184 228.71 28.184C228.14 28.184 227.703 28.2917 227.399 28.507C227.095 28.7223 226.943 29.0073 226.943 29.362C226.943 29.6407 227.044 29.875 227.247 30.065C227.45 30.255 227.697 30.407 227.988 30.521C228.279 30.6223 228.71 30.7553 229.28 30.92C230.04 31.1227 230.661 31.3317 231.142 31.547C231.636 31.7497 232.06 32.0537 232.415 32.459C232.77 32.8643 232.953 33.4027 232.966 34.074C232.966 34.6693 232.801 35.2013 232.472 35.67C232.143 36.1387 231.674 36.506 231.066 36.772C230.471 37.038 229.768 37.171 228.957 37.171ZM237.862 28.298V34.093C237.862 34.4857 237.951 34.7707 238.128 34.948C238.318 35.1127 238.635 35.195 239.078 35.195H240.408V37H238.698C237.723 37 236.975 36.772 236.456 36.316C235.937 35.86 235.677 35.119 235.677 34.093V28.298H234.442V26.531H235.677V23.928H237.862V26.531H240.408V28.298H237.862ZM244.599 28.051C244.916 27.519 245.334 27.1073 245.853 26.816C246.385 26.512 247.012 26.36 247.734 26.36V28.602H247.183C246.334 28.602 245.688 28.8173 245.245 29.248C244.814 29.6787 244.599 30.426 244.599 31.49V37H242.433V26.531H244.599V28.051ZM249.031 31.718C249.031 30.6667 249.247 29.7357 249.677 28.925C250.121 28.1143 250.716 27.4873 251.463 27.044C252.223 26.588 253.059 26.36 253.971 26.36C254.795 26.36 255.51 26.5247 256.118 26.854C256.739 27.1707 257.233 27.5697 257.6 28.051V26.531H259.785V37H257.6V35.442C257.233 35.936 256.733 36.3477 256.099 36.677C255.466 37.0063 254.744 37.171 253.933 37.171C253.034 37.171 252.211 36.943 251.463 36.487C250.716 36.0183 250.121 35.3723 249.677 34.549C249.247 33.713 249.031 32.7693 249.031 31.718ZM257.6 31.756C257.6 31.034 257.448 30.407 257.144 29.875C256.853 29.343 256.467 28.9377 255.985 28.659C255.504 28.3803 254.985 28.241 254.427 28.241C253.87 28.241 253.351 28.3803 252.869 28.659C252.388 28.925 251.995 29.324 251.691 29.856C251.4 30.3753 251.254 30.996 251.254 31.718C251.254 32.44 251.4 33.0733 251.691 33.618C251.995 34.1627 252.388 34.5807 252.869 34.872C253.363 35.1507 253.883 35.29 254.427 35.29C254.985 35.29 255.504 35.1507 255.985 34.872C256.467 34.5933 256.853 34.188 257.144 33.656C257.448 33.1113 257.6 32.478 257.6 31.756ZM265.186 28.298V34.093C265.186 34.4857 265.275 34.7707 265.452 34.948C265.642 35.1127 265.959 35.195 266.402 35.195H267.732V37H266.022C265.047 37 264.299 36.772 263.78 36.316C263.261 35.86 263.001 35.119 263.001 34.093V28.298H261.766V26.531H263.001V23.928H265.186V26.531H267.732V28.298H265.186ZM270.859 25.144C270.466 25.144 270.137 25.011 269.871 24.745C269.605 24.479 269.472 24.1497 269.472 23.757C269.472 23.3643 269.605 23.035 269.871 22.769C270.137 22.503 270.466 22.37 270.859 22.37C271.239 22.37 271.562 22.503 271.828 22.769C272.094 23.035 272.227 23.3643 272.227 23.757C272.227 24.1497 272.094 24.479 271.828 24.745C271.562 25.011 271.239 25.144 270.859 25.144ZM271.923 26.531V37H269.757V26.531H271.923ZM279.336 37.171C278.348 37.171 277.455 36.9493 276.657 36.506C275.859 36.05 275.232 35.4167 274.776 34.606C274.32 33.7827 274.092 32.8327 274.092 31.756C274.092 30.692 274.326 29.7483 274.795 28.925C275.264 28.1017 275.903 27.4683 276.714 27.025C277.525 26.5817 278.43 26.36 279.431 26.36C280.432 26.36 281.337 26.5817 282.148 27.025C282.959 27.4683 283.598 28.1017 284.067 28.925C284.536 29.7483 284.77 30.692 284.77 31.756C284.77 32.82 284.529 33.7637 284.048 34.587C283.567 35.4103 282.908 36.05 282.072 36.506C281.249 36.9493 280.337 37.171 279.336 37.171ZM279.336 35.29C279.893 35.29 280.413 35.157 280.894 34.891C281.388 34.625 281.787 34.226 282.091 33.694C282.395 33.162 282.547 32.516 282.547 31.756C282.547 30.996 282.401 30.3563 282.11 29.837C281.819 29.305 281.432 28.906 280.951 28.64C280.47 28.374 279.95 28.241 279.393 28.241C278.836 28.241 278.316 28.374 277.835 28.64C277.366 28.906 276.993 29.305 276.714 29.837C276.435 30.3563 276.296 30.996 276.296 31.756C276.296 32.8833 276.581 33.7573 277.151 34.378C277.734 34.986 278.462 35.29 279.336 35.29ZM292.222 26.36C293.045 26.36 293.78 26.531 294.426 26.873C295.084 27.215 295.597 27.7217 295.965 28.393C296.332 29.0643 296.516 29.875 296.516 30.825V37H294.369V31.148C294.369 30.2107 294.134 29.495 293.666 29.001C293.197 28.4943 292.557 28.241 291.747 28.241C290.936 28.241 290.29 28.4943 289.809 29.001C289.34 29.495 289.106 30.2107 289.106 31.148V37H286.94V26.531H289.106V27.728C289.46 27.2973 289.91 26.9617 290.455 26.721C291.012 26.4803 291.601 26.36 292.222 26.36Z" fill="#14181F"/>
</g>
<defs>
<filter id="filter0_i_211_254" x="0" y="0" width="448" height="61" filterUnits="userSpaceOnUse" color-interpolation-filters="sRGB">
<feFlood flood-opacity="0" result="BackgroundImageFix"/>
<feBlend mode="normal" in="SourceGraphic" in2="BackgroundImageFix" result="shape"/>
<feColorMatrix in="SourceAlpha" type="matrix" values="0 0 0 0 0 0 0 0 0 0 0 0 0 0 0 0 0 0 127 0" result="hardAlpha"/>
<feOffset/>
<feGaussianBlur stdDeviation="4"/>
<feComposite in2="hardAlpha" operator="arithmetic" k2="-1" k3="1"/>
<feColorMatrix type="matrix" values="0 0 0 0 0 0 0 0 0 0 0 0 0 0 0 0 0 0 0.97 0"/>
<feBlend mode="normal" in2="shape" result="effect1_innerShadow_211_254"/>
</filter>
<linearGradient id="paint0_linear_211_254" x1="0" y1="30.1648" x2="448" y2="30.1648" gradientUnits="userSpaceOnUse">
<stop stop-color="#A4CCF0"/>
<stop offset="1" stop-color="#2175C2"/>
</linearGradient>
</defs>
</svg>
