<svg width="303" height="61" viewBox="0 0 303 61" fill="none" xmlns="http://www.w3.org/2000/svg">
<g filter="url(#filter0_i_211_216)">
<path d="M0 0H273C289.569 0 303 13.4315 303 30V31C303 47.5685 289.569 61 273 61H0V0Z" fill="url(#paint0_linear_211_216)"/>
<circle cx="98" cy="30.5" r="12" fill="#113B61"/>
<path d="M93.816 35.332C95.1707 34.244 96.232 33.3533 97 32.66C97.768 31.956 98.4133 31.2253 98.936 30.468C99.4693 29.7 99.736 28.948 99.736 28.212C99.736 27.5187 99.5653 26.9747 99.224 26.58C98.8933 26.1747 98.3547 25.972 97.608 25.972C96.8827 25.972 96.3173 26.2013 95.912 26.66C95.5173 27.108 95.304 27.7107 95.272 28.468H93.864C93.9067 27.2733 94.2693 26.3507 94.952 25.7C95.6347 25.0493 96.5147 24.724 97.592 24.724C98.6907 24.724 99.56 25.028 100.2 25.636C100.851 26.244 101.176 27.0813 101.176 28.148C101.176 29.0333 100.909 29.8973 100.376 30.74C99.8533 31.572 99.256 32.308 98.584 32.948C97.912 33.5773 97.0533 34.3133 96.008 35.156H101.512V36.372H93.816V35.332Z" fill="#F0F2F5"/>
<path d="M130.806 23.795L125.847 37H123.339L118.361 23.795H120.679L124.593 34.777L128.526 23.795H130.806ZM131.924 31.718C131.924 30.6667 132.139 29.7357 132.57 28.925C133.013 28.1143 133.609 27.4873 134.356 27.044C135.116 26.588 135.952 26.36 136.864 26.36C137.687 26.36 138.403 26.5247 139.011 26.854C139.632 27.1707 140.126 27.5697 140.493 28.051V26.531H142.678V37H140.493V35.442C140.126 35.936 139.625 36.3477 138.992 36.677C138.359 37.0063 137.637 37.171 136.826 37.171C135.927 37.171 135.103 36.943 134.356 36.487C133.609 36.0183 133.013 35.3723 132.57 34.549C132.139 33.713 131.924 32.7693 131.924 31.718ZM140.493 31.756C140.493 31.034 140.341 30.407 140.037 29.875C139.746 29.343 139.359 28.9377 138.878 28.659C138.397 28.3803 137.877 28.241 137.32 28.241C136.763 28.241 136.243 28.3803 135.762 28.659C135.281 28.925 134.888 29.324 134.584 29.856C134.293 30.3753 134.147 30.996 134.147 31.718C134.147 32.44 134.293 33.0733 134.584 33.618C134.888 34.1627 135.281 34.5807 135.762 34.872C136.256 35.1507 136.775 35.29 137.32 35.29C137.877 35.29 138.397 35.1507 138.878 34.872C139.359 34.5933 139.746 34.188 140.037 33.656C140.341 33.1113 140.493 32.478 140.493 31.756ZM147.717 22.94V37H145.551V22.94H147.717ZM151.692 25.144C151.299 25.144 150.97 25.011 150.704 24.745C150.438 24.479 150.305 24.1497 150.305 23.757C150.305 23.3643 150.438 23.035 150.704 22.769C150.97 22.503 151.299 22.37 151.692 22.37C152.072 22.37 152.395 22.503 152.661 22.769C152.927 23.035 153.06 23.3643 153.06 23.757C153.06 24.1497 152.927 24.479 152.661 24.745C152.395 25.011 152.072 25.144 151.692 25.144ZM152.756 26.531V37H150.59V26.531H152.756ZM154.906 31.718C154.906 30.6667 155.121 29.7357 155.552 28.925C155.995 28.1143 156.591 27.4873 157.338 27.044C158.098 26.588 158.94 26.36 159.865 26.36C160.549 26.36 161.22 26.512 161.879 26.816C162.55 27.1073 163.082 27.5 163.475 27.994V22.94H165.66V37H163.475V35.423C163.12 35.9297 162.626 36.3477 161.993 36.677C161.372 37.0063 160.657 37.171 159.846 37.171C158.934 37.171 158.098 36.943 157.338 36.487C156.591 36.0183 155.995 35.3723 155.552 34.549C155.121 33.713 154.906 32.7693 154.906 31.718ZM163.475 31.756C163.475 31.034 163.323 30.407 163.019 29.875C162.728 29.343 162.341 28.9377 161.86 28.659C161.379 28.3803 160.859 28.241 160.302 28.241C159.745 28.241 159.225 28.3803 158.744 28.659C158.263 28.925 157.87 29.324 157.566 29.856C157.275 30.3753 157.129 30.996 157.129 31.718C157.129 32.44 157.275 33.0733 157.566 33.618C157.87 34.1627 158.263 34.5807 158.744 34.872C159.238 35.1507 159.757 35.29 160.302 35.29C160.859 35.29 161.379 35.1507 161.86 34.872C162.341 34.5933 162.728 34.188 163.019 33.656C163.323 33.1113 163.475 32.478 163.475 31.756ZM167.811 31.718C167.811 30.6667 168.027 29.7357 168.457 28.925C168.901 28.1143 169.496 27.4873 170.243 27.044C171.003 26.588 171.839 26.36 172.751 26.36C173.575 26.36 174.29 26.5247 174.898 26.854C175.519 27.1707 176.013 27.5697 176.38 28.051V26.531H178.565V37H176.38V35.442C176.013 35.936 175.513 36.3477 174.879 36.677C174.246 37.0063 173.524 37.171 172.713 37.171C171.814 37.171 170.991 36.943 170.243 36.487C169.496 36.0183 168.901 35.3723 168.457 34.549C168.027 33.713 167.811 32.7693 167.811 31.718ZM176.38 31.756C176.38 31.034 176.228 30.407 175.924 29.875C175.633 29.343 175.247 28.9377 174.765 28.659C174.284 28.3803 173.765 28.241 173.207 28.241C172.65 28.241 172.131 28.3803 171.649 28.659C171.168 28.925 170.775 29.324 170.471 29.856C170.18 30.3753 170.034 30.996 170.034 31.718C170.034 32.44 170.18 33.0733 170.471 33.618C170.775 34.1627 171.168 34.5807 171.649 34.872C172.143 35.1507 172.663 35.29 173.207 35.29C173.765 35.29 174.284 35.1507 174.765 34.872C175.247 34.5933 175.633 34.188 175.924 33.656C176.228 33.1113 176.38 32.478 176.38 31.756ZM183.966 28.298V34.093C183.966 34.4857 184.054 34.7707 184.232 34.948C184.422 35.1127 184.738 35.195 185.182 35.195H186.512V37H184.802C183.826 37 183.079 36.772 182.56 36.316C182.04 35.86 181.781 35.119 181.781 34.093V28.298H180.546V26.531H181.781V23.928H183.966V26.531H186.512V28.298H183.966ZM189.639 25.144C189.246 25.144 188.917 25.011 188.651 24.745C188.385 24.479 188.252 24.1497 188.252 23.757C188.252 23.3643 188.385 23.035 188.651 22.769C188.917 22.503 189.246 22.37 189.639 22.37C190.019 22.37 190.342 22.503 190.608 22.769C190.874 23.035 191.007 23.3643 191.007 23.757C191.007 24.1497 190.874 24.479 190.608 24.745C190.342 25.011 190.019 25.144 189.639 25.144ZM190.703 26.531V37H188.537V26.531H190.703ZM198.116 37.171C197.128 37.171 196.235 36.9493 195.437 36.506C194.639 36.05 194.012 35.4167 193.556 34.606C193.1 33.7827 192.872 32.8327 192.872 31.756C192.872 30.692 193.106 29.7483 193.575 28.925C194.044 28.1017 194.683 27.4683 195.494 27.025C196.305 26.5817 197.21 26.36 198.211 26.36C199.212 26.36 200.117 26.5817 200.928 27.025C201.739 27.4683 202.378 28.1017 202.847 28.925C203.316 29.7483 203.55 30.692 203.55 31.756C203.55 32.82 203.309 33.7637 202.828 34.587C202.347 35.4103 201.688 36.05 200.852 36.506C200.029 36.9493 199.117 37.171 198.116 37.171ZM198.116 35.29C198.673 35.29 199.193 35.157 199.674 34.891C200.168 34.625 200.567 34.226 200.871 33.694C201.175 33.162 201.327 32.516 201.327 31.756C201.327 30.996 201.181 30.3563 200.89 29.837C200.599 29.305 200.212 28.906 199.731 28.64C199.25 28.374 198.73 28.241 198.173 28.241C197.616 28.241 197.096 28.374 196.615 28.64C196.146 28.906 195.773 29.305 195.494 29.837C195.215 30.3563 195.076 30.996 195.076 31.756C195.076 32.8833 195.361 33.7573 195.931 34.378C196.514 34.986 197.242 35.29 198.116 35.29ZM211.002 26.36C211.825 26.36 212.56 26.531 213.206 26.873C213.864 27.215 214.377 27.7217 214.745 28.393C215.112 29.0643 215.296 29.875 215.296 30.825V37H213.149V31.148C213.149 30.2107 212.914 29.495 212.446 29.001C211.977 28.4943 211.337 28.241 210.527 28.241C209.716 28.241 209.07 28.4943 208.589 29.001C208.12 29.495 207.886 30.2107 207.886 31.148V37H205.72V26.531H207.886V27.728C208.24 27.2973 208.69 26.9617 209.235 26.721C209.792 26.4803 210.381 26.36 211.002 26.36Z" fill="#14181F"/>
</g>
<defs>
<filter id="filter0_i_211_216" x="0" y="0" width="303" height="61" filterUnits="userSpaceOnUse" color-interpolation-filters="sRGB">
<feFlood flood-opacity="0" result="BackgroundImageFix"/>
<feBlend mode="normal" in="SourceGraphic" in2="BackgroundImageFix" result="shape"/>
<feColorMatrix in="SourceAlpha" type="matrix" values="0 0 0 0 0 0 0 0 0 0 0 0 0 0 0 0 0 0 127 0" result="hardAlpha"/>
<feOffset/>
<feGaussianBlur stdDeviation="4"/>
<feComposite in2="hardAlpha" operator="arithmetic" k2="-1" k3="1"/>
<feColorMatrix type="matrix" values="0 0 0 0 0 0 0 0 0 0 0 0 0 0 0 0 0 0 0.97 0"/>
<feBlend mode="normal" in2="shape" result="effect1_innerShadow_211_216"/>
</filter>
<linearGradient id="paint0_linear_211_216" x1="0" y1="30.1648" x2="303" y2="30.1648" gradientUnits="userSpaceOnUse">
<stop stop-color="#A4CCF0"/>
<stop offset="1" stop-color="#2175C2"/>
</linearGradient>
</defs>
</svg>
