<svg width="448" height="61" viewBox="0 0 448 61" fill="none" xmlns="http://www.w3.org/2000/svg">
<g filter="url(#filter0_i_211_169)">
<path d="M0 0H418C434.569 0 448 13.4315 448 30V31C448 47.5685 434.569 61 418 61H0V0Z" fill="url(#paint0_linear_211_169)"/>
<circle cx="122" cy="30.5" r="12" fill="#113B61"/>
<path d="M117.816 35.332C119.171 34.244 120.232 33.3533 121 32.66C121.768 31.956 122.413 31.2253 122.936 30.468C123.469 29.7 123.736 28.948 123.736 28.212C123.736 27.5187 123.565 26.9747 123.224 26.58C122.893 26.1747 122.355 25.972 121.608 25.972C120.883 25.972 120.317 26.2013 119.912 26.66C119.517 27.108 119.304 27.7107 119.272 28.468H117.864C117.907 27.2733 118.269 26.3507 118.952 25.7C119.635 25.0493 120.515 24.724 121.592 24.724C122.691 24.724 123.56 25.028 124.2 25.636C124.851 26.244 125.176 27.0813 125.176 28.148C125.176 29.0333 124.909 29.8973 124.376 30.74C123.853 31.572 123.256 32.308 122.584 32.948C121.912 33.5773 121.053 34.3133 120.008 35.156H125.512V36.372H117.816V35.332Z" fill="#F0F2F5"/>
<path d="M152.659 27.728C152.659 28.3993 152.501 29.0327 152.184 29.628C151.867 30.2233 151.361 30.711 150.664 31.091C149.967 31.4583 149.074 31.642 147.985 31.642H145.591V37H143.425V23.795H147.985C148.998 23.795 149.853 23.9723 150.55 24.327C151.259 24.669 151.785 25.1377 152.127 25.733C152.482 26.3283 152.659 26.9933 152.659 27.728ZM147.985 29.875C148.808 29.875 149.423 29.6913 149.828 29.324C150.233 28.944 150.436 28.412 150.436 27.728C150.436 26.284 149.619 25.562 147.985 25.562H145.591V29.875H147.985ZM154.031 31.718C154.031 30.6667 154.247 29.7357 154.677 28.925C155.121 28.1143 155.716 27.4873 156.463 27.044C157.223 26.588 158.059 26.36 158.971 26.36C159.795 26.36 160.51 26.5247 161.118 26.854C161.739 27.1707 162.233 27.5697 162.6 28.051V26.531H164.785V37H162.6V35.442C162.233 35.936 161.733 36.3477 161.099 36.677C160.466 37.0063 159.744 37.171 158.933 37.171C158.034 37.171 157.211 36.943 156.463 36.487C155.716 36.0183 155.121 35.3723 154.677 34.549C154.247 33.713 154.031 32.7693 154.031 31.718ZM162.6 31.756C162.6 31.034 162.448 30.407 162.144 29.875C161.853 29.343 161.467 28.9377 160.985 28.659C160.504 28.3803 159.985 28.241 159.427 28.241C158.87 28.241 158.351 28.3803 157.869 28.659C157.388 28.925 156.995 29.324 156.691 29.856C156.4 30.3753 156.254 30.996 156.254 31.718C156.254 32.44 156.4 33.0733 156.691 33.618C156.995 34.1627 157.388 34.5807 157.869 34.872C158.363 35.1507 158.883 35.29 159.427 35.29C159.985 35.29 160.504 35.1507 160.985 34.872C161.467 34.5933 161.853 34.188 162.144 33.656C162.448 33.1113 162.6 32.478 162.6 31.756ZM171.459 37.171C170.635 37.171 169.894 37.0253 169.236 36.734C168.59 36.43 168.077 36.0247 167.697 35.518C167.317 34.9987 167.114 34.4223 167.089 33.789H169.331C169.369 34.2323 169.578 34.606 169.958 34.91C170.35 35.2013 170.838 35.347 171.421 35.347C172.029 35.347 172.497 35.233 172.827 35.005C173.169 34.7643 173.34 34.4603 173.34 34.093C173.34 33.7003 173.15 33.409 172.77 33.219C172.402 33.029 171.813 32.82 171.003 32.592C170.217 32.3767 169.578 32.1677 169.084 31.965C168.59 31.7623 168.159 31.452 167.792 31.034C167.437 30.616 167.26 30.065 167.26 29.381C167.26 28.8237 167.424 28.317 167.754 27.861C168.083 27.3923 168.552 27.025 169.16 26.759C169.78 26.493 170.49 26.36 171.288 26.36C172.478 26.36 173.435 26.664 174.157 27.272C174.891 27.8673 175.284 28.6843 175.335 29.723H173.169C173.131 29.2543 172.941 28.8807 172.599 28.602C172.257 28.3233 171.794 28.184 171.212 28.184C170.642 28.184 170.205 28.2917 169.901 28.507C169.597 28.7223 169.445 29.0073 169.445 29.362C169.445 29.6407 169.546 29.875 169.749 30.065C169.951 30.255 170.198 30.407 170.49 30.521C170.781 30.6223 171.212 30.7553 171.782 30.92C172.542 31.1227 173.162 31.3317 173.644 31.547C174.138 31.7497 174.562 32.0537 174.917 32.459C175.271 32.8643 175.455 33.4027 175.468 34.074C175.468 34.6693 175.303 35.2013 174.974 35.67C174.644 36.1387 174.176 36.506 173.568 36.772C172.972 37.038 172.269 37.171 171.459 37.171ZM181.637 37.171C180.813 37.171 180.072 37.0253 179.414 36.734C178.768 36.43 178.255 36.0247 177.875 35.518C177.495 34.9987 177.292 34.4223 177.267 33.789H179.509C179.547 34.2323 179.756 34.606 180.136 34.91C180.528 35.2013 181.016 35.347 181.599 35.347C182.207 35.347 182.675 35.233 183.005 35.005C183.347 34.7643 183.518 34.4603 183.518 34.093C183.518 33.7003 183.328 33.409 182.948 33.219C182.58 33.029 181.991 32.82 181.181 32.592C180.395 32.3767 179.756 32.1677 179.262 31.965C178.768 31.7623 178.337 31.452 177.97 31.034C177.615 30.616 177.438 30.065 177.438 29.381C177.438 28.8237 177.602 28.317 177.932 27.861C178.261 27.3923 178.73 27.025 179.338 26.759C179.958 26.493 180.668 26.36 181.466 26.36C182.656 26.36 183.613 26.664 184.335 27.272C185.069 27.8673 185.462 28.6843 185.513 29.723H183.347C183.309 29.2543 183.119 28.8807 182.777 28.602C182.435 28.3233 181.972 28.184 181.39 28.184C180.82 28.184 180.383 28.2917 180.079 28.507C179.775 28.7223 179.623 29.0073 179.623 29.362C179.623 29.6407 179.724 29.875 179.927 30.065C180.129 30.255 180.376 30.407 180.668 30.521C180.959 30.6223 181.39 30.7553 181.96 30.92C182.72 31.1227 183.34 31.3317 183.822 31.547C184.316 31.7497 184.74 32.0537 185.095 32.459C185.449 32.8643 185.633 33.4027 185.646 34.074C185.646 34.6693 185.481 35.2013 185.152 35.67C184.822 36.1387 184.354 36.506 183.746 36.772C183.15 37.038 182.447 37.171 181.637 37.171ZM202.075 26.531L198.826 37H196.546L194.437 29.267L192.328 37H190.048L186.78 26.531H188.984L191.169 34.948L193.392 26.531H195.653L197.781 34.91L199.947 26.531H202.075ZM208.263 37.171C207.275 37.171 206.382 36.9493 205.584 36.506C204.786 36.05 204.159 35.4167 203.703 34.606C203.247 33.7827 203.019 32.8327 203.019 31.756C203.019 30.692 203.253 29.7483 203.722 28.925C204.19 28.1017 204.83 27.4683 205.641 27.025C206.451 26.5817 207.357 26.36 208.358 26.36C209.358 26.36 210.264 26.5817 211.075 27.025C211.885 27.4683 212.525 28.1017 212.994 28.925C213.462 29.7483 213.697 30.692 213.697 31.756C213.697 32.82 213.456 33.7637 212.975 34.587C212.493 35.4103 211.835 36.05 210.999 36.506C210.175 36.9493 209.263 37.171 208.263 37.171ZM208.263 35.29C208.82 35.29 209.339 35.157 209.821 34.891C210.315 34.625 210.714 34.226 211.018 33.694C211.322 33.162 211.474 32.516 211.474 31.756C211.474 30.996 211.328 30.3563 211.037 29.837C210.745 29.305 210.359 28.906 209.878 28.64C209.396 28.374 208.877 28.241 208.32 28.241C207.762 28.241 207.243 28.374 206.762 28.64C206.293 28.906 205.919 29.305 205.641 29.837C205.362 30.3563 205.223 30.996 205.223 31.756C205.223 32.8833 205.508 33.7573 206.078 34.378C206.66 34.986 207.389 35.29 208.263 35.29ZM218.033 28.051C218.349 27.519 218.767 27.1073 219.287 26.816C219.819 26.512 220.446 26.36 221.168 26.36V28.602H220.617C219.768 28.602 219.122 28.8173 218.679 29.248C218.248 29.6787 218.033 30.426 218.033 31.49V37H215.867V26.531H218.033V28.051ZM222.465 31.718C222.465 30.6667 222.68 29.7357 223.111 28.925C223.554 28.1143 224.15 27.4873 224.897 27.044C225.657 26.588 226.499 26.36 227.424 26.36C228.108 26.36 228.779 26.512 229.438 26.816C230.109 27.1073 230.641 27.5 231.034 27.994V22.94H233.219V37H231.034V35.423C230.679 35.9297 230.185 36.3477 229.552 36.677C228.931 37.0063 228.216 37.171 227.405 37.171C226.493 37.171 225.657 36.943 224.897 36.487C224.15 36.0183 223.554 35.3723 223.111 34.549C222.68 33.713 222.465 32.7693 222.465 31.718ZM231.034 31.756C231.034 31.034 230.882 30.407 230.578 29.875C230.287 29.343 229.9 28.9377 229.419 28.659C228.938 28.3803 228.418 28.241 227.861 28.241C227.304 28.241 226.784 28.3803 226.303 28.659C225.822 28.925 225.429 29.324 225.125 29.856C224.834 30.3753 224.688 30.996 224.688 31.718C224.688 32.44 224.834 33.0733 225.125 33.618C225.429 34.1627 225.822 34.5807 226.303 34.872C226.797 35.1507 227.316 35.29 227.861 35.29C228.418 35.29 228.938 35.1507 229.419 34.872C229.9 34.5933 230.287 34.188 230.578 33.656C230.882 33.1113 231.034 32.478 231.034 31.756ZM250.291 27.728C250.291 28.3993 250.132 29.0327 249.816 29.628C249.499 30.2233 248.992 30.711 248.296 31.091C247.599 31.4583 246.706 31.642 245.617 31.642H243.223V37H241.057V23.795H245.617C246.63 23.795 247.485 23.9723 248.182 24.327C248.891 24.669 249.417 25.1377 249.759 25.733C250.113 26.3283 250.291 26.9933 250.291 27.728ZM245.617 29.875C246.44 29.875 247.054 29.6913 247.46 29.324C247.865 28.944 248.068 28.412 248.068 27.728C248.068 26.284 247.251 25.562 245.617 25.562H243.223V29.875H245.617ZM254.551 28.051C254.867 27.519 255.285 27.1073 255.805 26.816C256.337 26.512 256.964 26.36 257.686 26.36V28.602H257.135C256.286 28.602 255.64 28.8173 255.197 29.248C254.766 29.6787 254.551 30.426 254.551 31.49V37H252.385V26.531H254.551V28.051ZM264.246 37.171C263.258 37.171 262.365 36.9493 261.567 36.506C260.769 36.05 260.142 35.4167 259.686 34.606C259.23 33.7827 259.002 32.8327 259.002 31.756C259.002 30.692 259.237 29.7483 259.705 28.925C260.174 28.1017 260.814 27.4683 261.624 27.025C262.435 26.5817 263.341 26.36 264.341 26.36C265.342 26.36 266.248 26.5817 267.058 27.025C267.869 27.4683 268.509 28.1017 268.977 28.925C269.446 29.7483 269.68 30.692 269.68 31.756C269.68 32.82 269.44 33.7637 268.958 34.587C268.477 35.4103 267.818 36.05 266.982 36.506C266.159 36.9493 265.247 37.171 264.246 37.171ZM264.246 35.29C264.804 35.29 265.323 35.157 265.804 34.891C266.298 34.625 266.697 34.226 267.001 33.694C267.305 33.162 267.457 32.516 267.457 31.756C267.457 30.996 267.312 30.3563 267.02 29.837C266.729 29.305 266.343 28.906 265.861 28.64C265.38 28.374 264.861 28.241 264.303 28.241C263.746 28.241 263.227 28.374 262.745 28.64C262.277 28.906 261.903 29.305 261.624 29.837C261.346 30.3563 261.206 30.996 261.206 31.756C261.206 32.8833 261.491 33.7573 262.061 34.378C262.644 34.986 263.372 35.29 264.246 35.29ZM274.377 28.298V34.093C274.377 34.4857 274.466 34.7707 274.643 34.948C274.833 35.1127 275.15 35.195 275.593 35.195H276.923V37H275.213C274.238 37 273.49 36.772 272.971 36.316C272.452 35.86 272.192 35.119 272.192 34.093V28.298H270.957V26.531H272.192V23.928H274.377V26.531H276.923V28.298H274.377ZM288.543 31.509C288.543 31.9017 288.518 32.2563 288.467 32.573H280.468C280.531 33.409 280.842 34.0803 281.399 34.587C281.956 35.0937 282.64 35.347 283.451 35.347C284.616 35.347 285.44 34.8593 285.921 33.884H288.258C287.941 34.8467 287.365 35.6383 286.529 36.259C285.706 36.867 284.68 37.171 283.451 37.171C282.45 37.171 281.551 36.9493 280.753 36.506C279.968 36.05 279.347 35.4167 278.891 34.606C278.448 33.7827 278.226 32.8327 278.226 31.756C278.226 30.6793 278.441 29.7357 278.872 28.925C279.315 28.1017 279.93 27.4683 280.715 27.025C281.513 26.5817 282.425 26.36 283.451 26.36C284.439 26.36 285.319 26.5753 286.092 27.006C286.865 27.4367 287.466 28.0447 287.897 28.83C288.328 29.6027 288.543 30.4957 288.543 31.509ZM286.282 30.825C286.269 30.027 285.984 29.3873 285.427 28.906C284.87 28.4247 284.179 28.184 283.356 28.184C282.609 28.184 281.969 28.4247 281.437 28.906C280.905 29.3747 280.588 30.0143 280.487 30.825H286.282ZM289.981 31.756C289.981 30.6793 290.196 29.7357 290.627 28.925C291.07 28.1017 291.678 27.4683 292.451 27.025C293.224 26.5817 294.11 26.36 295.111 26.36C296.378 26.36 297.423 26.664 298.246 27.272C299.082 27.8673 299.646 28.7223 299.937 29.837H297.6C297.41 29.3177 297.106 28.9123 296.688 28.621C296.27 28.3297 295.744 28.184 295.111 28.184C294.224 28.184 293.515 28.5007 292.983 29.134C292.464 29.7547 292.204 30.6287 292.204 31.756C292.204 32.8833 292.464 33.7637 292.983 34.397C293.515 35.0303 294.224 35.347 295.111 35.347C296.365 35.347 297.195 34.796 297.6 33.694H299.937C299.633 34.758 299.063 35.6067 298.227 36.24C297.391 36.8607 296.352 37.171 295.111 37.171C294.11 37.171 293.224 36.9493 292.451 36.506C291.678 36.05 291.07 35.4167 290.627 34.606C290.196 33.7827 289.981 32.8327 289.981 31.756ZM304.651 28.298V34.093C304.651 34.4857 304.74 34.7707 304.917 34.948C305.107 35.1127 305.424 35.195 305.867 35.195H307.197V37H305.487C304.512 37 303.764 36.772 303.245 36.316C302.726 35.86 302.466 35.119 302.466 34.093V28.298H301.231V26.531H302.466V23.928H304.651V26.531H307.197V28.298H304.651ZM310.324 25.144C309.931 25.144 309.602 25.011 309.336 24.745C309.07 24.479 308.937 24.1497 308.937 23.757C308.937 23.3643 309.07 23.035 309.336 22.769C309.602 22.503 309.931 22.37 310.324 22.37C310.704 22.37 311.027 22.503 311.293 22.769C311.559 23.035 311.692 23.3643 311.692 23.757C311.692 24.1497 311.559 24.479 311.293 24.745C311.027 25.011 310.704 25.144 310.324 25.144ZM311.388 26.531V37H309.222V26.531H311.388ZM318.801 37.171C317.813 37.171 316.92 36.9493 316.122 36.506C315.324 36.05 314.697 35.4167 314.241 34.606C313.785 33.7827 313.557 32.8327 313.557 31.756C313.557 30.692 313.791 29.7483 314.26 28.925C314.729 28.1017 315.368 27.4683 316.179 27.025C316.99 26.5817 317.895 26.36 318.896 26.36C319.897 26.36 320.802 26.5817 321.613 27.025C322.424 27.4683 323.063 28.1017 323.532 28.925C324.001 29.7483 324.235 30.692 324.235 31.756C324.235 32.82 323.994 33.7637 323.513 34.587C323.032 35.4103 322.373 36.05 321.537 36.506C320.714 36.9493 319.802 37.171 318.801 37.171ZM318.801 35.29C319.358 35.29 319.878 35.157 320.359 34.891C320.853 34.625 321.252 34.226 321.556 33.694C321.86 33.162 322.012 32.516 322.012 31.756C322.012 30.996 321.866 30.3563 321.575 29.837C321.284 29.305 320.897 28.906 320.416 28.64C319.935 28.374 319.415 28.241 318.858 28.241C318.301 28.241 317.781 28.374 317.3 28.64C316.831 28.906 316.458 29.305 316.179 29.837C315.9 30.3563 315.761 30.996 315.761 31.756C315.761 32.8833 316.046 33.7573 316.616 34.378C317.199 34.986 317.927 35.29 318.801 35.29ZM331.687 26.36C332.51 26.36 333.245 26.531 333.891 26.873C334.549 27.215 335.062 27.7217 335.43 28.393C335.797 29.0643 335.981 29.875 335.981 30.825V37H333.834V31.148C333.834 30.2107 333.599 29.495 333.131 29.001C332.662 28.4943 332.022 28.241 331.212 28.241C330.401 28.241 329.755 28.4943 329.274 29.001C328.805 29.495 328.571 30.2107 328.571 31.148V37H326.405V26.531H328.571V27.728C328.925 27.2973 329.375 26.9617 329.92 26.721C330.477 26.4803 331.066 26.36 331.687 26.36Z" fill="#14181F"/>
</g>
<defs>
<filter id="filter0_i_211_169" x="0" y="0" width="448" height="61" filterUnits="userSpaceOnUse" color-interpolation-filters="sRGB">
<feFlood flood-opacity="0" result="BackgroundImageFix"/>
<feBlend mode="normal" in="SourceGraphic" in2="BackgroundImageFix" result="shape"/>
<feColorMatrix in="SourceAlpha" type="matrix" values="0 0 0 0 0 0 0 0 0 0 0 0 0 0 0 0 0 0 127 0" result="hardAlpha"/>
<feOffset/>
<feGaussianBlur stdDeviation="4"/>
<feComposite in2="hardAlpha" operator="arithmetic" k2="-1" k3="1"/>
<feColorMatrix type="matrix" values="0 0 0 0 0 0 0 0 0 0 0 0 0 0 0 0 0 0 0.97 0"/>
<feBlend mode="normal" in2="shape" result="effect1_innerShadow_211_169"/>
</filter>
<linearGradient id="paint0_linear_211_169" x1="0" y1="30.1648" x2="448" y2="30.1648" gradientUnits="userSpaceOnUse">
<stop stop-color="#A4CCF0"/>
<stop offset="1" stop-color="#2175C2"/>
</linearGradient>
</defs>
</svg>
