<svg width="303" height="61" viewBox="0 0 303 61" fill="none" xmlns="http://www.w3.org/2000/svg">
<g filter="url(#filter0_i_211_197)">
<path d="M0 0H273C289.569 0 303 13.4315 303 30V31C303 47.5685 289.569 61 273 61H0V0Z" fill="url(#paint0_linear_211_197)"/>
<circle cx="111" cy="30.5" r="12" fill="#113B61"/>
<path d="M108.608 26.26V24.932H111.616V36.5H110.144V26.26H108.608Z" fill="#F0F2F5"/>
<path d="M134.591 25.543V29.419H139.151V31.186H134.591V35.233H139.721V37H132.425V23.776H139.721V25.543H134.591ZM155.09 26.36C155.914 26.36 156.648 26.531 157.294 26.873C157.953 27.215 158.466 27.7217 158.833 28.393C159.213 29.0643 159.403 29.875 159.403 30.825V37H157.256V31.148C157.256 30.2107 157.022 29.495 156.553 29.001C156.085 28.4943 155.445 28.241 154.634 28.241C153.824 28.241 153.178 28.4943 152.696 29.001C152.228 29.495 151.993 30.2107 151.993 31.148V37H149.846V31.148C149.846 30.2107 149.612 29.495 149.143 29.001C148.675 28.4943 148.035 28.241 147.224 28.241C146.414 28.241 145.768 28.4943 145.286 29.001C144.818 29.495 144.583 30.2107 144.583 31.148V37H142.417V26.531H144.583V27.728C144.938 27.2973 145.388 26.9617 145.932 26.721C146.477 26.4803 147.06 26.36 147.68 26.36C148.516 26.36 149.264 26.5373 149.922 26.892C150.581 27.2467 151.088 27.7597 151.442 28.431C151.759 27.7977 152.253 27.2973 152.924 26.93C153.596 26.55 154.318 26.36 155.09 26.36ZM161.466 31.718C161.466 30.6667 161.681 29.7357 162.112 28.925C162.555 28.1143 163.151 27.4873 163.898 27.044C164.658 26.588 165.494 26.36 166.406 26.36C167.229 26.36 167.945 26.5247 168.553 26.854C169.174 27.1707 169.668 27.5697 170.035 28.051V26.531H172.22V37H170.035V35.442C169.668 35.936 169.167 36.3477 168.534 36.677C167.901 37.0063 167.179 37.171 166.368 37.171C165.469 37.171 164.645 36.943 163.898 36.487C163.151 36.0183 162.555 35.3723 162.112 34.549C161.681 33.713 161.466 32.7693 161.466 31.718ZM170.035 31.756C170.035 31.034 169.883 30.407 169.579 29.875C169.288 29.343 168.901 28.9377 168.42 28.659C167.939 28.3803 167.419 28.241 166.862 28.241C166.305 28.241 165.785 28.3803 165.304 28.659C164.823 28.925 164.43 29.324 164.126 29.856C163.835 30.3753 163.689 30.996 163.689 31.718C163.689 32.44 163.835 33.0733 164.126 33.618C164.43 34.1627 164.823 34.5807 165.304 34.872C165.798 35.1507 166.317 35.29 166.862 35.29C167.419 35.29 167.939 35.1507 168.42 34.872C168.901 34.5933 169.288 34.188 169.579 33.656C169.883 33.1113 170.035 32.478 170.035 31.756ZM176.196 25.144C175.803 25.144 175.474 25.011 175.208 24.745C174.942 24.479 174.809 24.1497 174.809 23.757C174.809 23.3643 174.942 23.035 175.208 22.769C175.474 22.503 175.803 22.37 176.196 22.37C176.576 22.37 176.899 22.503 177.165 22.769C177.431 23.035 177.564 23.3643 177.564 23.757C177.564 24.1497 177.431 24.479 177.165 24.745C176.899 25.011 176.576 25.144 176.196 25.144ZM177.26 26.531V37H175.094V26.531H177.26ZM182.298 22.94V37H180.132V22.94H182.298Z" fill="#14181F"/>
</g>
<defs>
<filter id="filter0_i_211_197" x="0" y="0" width="303" height="61" filterUnits="userSpaceOnUse" color-interpolation-filters="sRGB">
<feFlood flood-opacity="0" result="BackgroundImageFix"/>
<feBlend mode="normal" in="SourceGraphic" in2="BackgroundImageFix" result="shape"/>
<feColorMatrix in="SourceAlpha" type="matrix" values="0 0 0 0 0 0 0 0 0 0 0 0 0 0 0 0 0 0 127 0" result="hardAlpha"/>
<feOffset/>
<feGaussianBlur stdDeviation="4"/>
<feComposite in2="hardAlpha" operator="arithmetic" k2="-1" k3="1"/>
<feColorMatrix type="matrix" values="0 0 0 0 0 0 0 0 0 0 0 0 0 0 0 0 0 0 0.97 0"/>
<feBlend mode="normal" in2="shape" result="effect1_innerShadow_211_197"/>
</filter>
<linearGradient id="paint0_linear_211_197" x1="0" y1="30.1648" x2="303" y2="30.1648" gradientUnits="userSpaceOnUse">
<stop stop-color="#A4CCF0"/>
<stop offset="1" stop-color="#2175C2"/>
</linearGradient>
</defs>
</svg>
